<svg viewBox="0 0 1400 1000" xmlns="http://www.w3.org/2000/svg"><path d="m380.25 207a201.61 201.61 0 0 1 72.82 73 194.5 194.5 0 0 1 26.93 100v240a194.47 194.47 0 0 1 -26.93 100 201.53 201.53 0 0 1 -72.82 73 193.24 193.24 0 0 1 -99.75 27h-1a193.19 193.19 0 0 1 -99.75-27 201.45 201.45 0 0 1 -72.82-73 194.47 194.47 0 0 1 -26.93-100v-240a194.5 194.5 0 0 1 26.93-100 201.53 201.53 0 0 1 72.82-73 193.19 193.19 0 0 1 99.75-27h1a193.24 193.24 0 0 1 99.75 27zm-185 88q-35.42 35-35.41 85v240q0 49 35.41 84.5t84.25 35.5h1q49.86 0 84.79-35.5t34.91-84.5v-240q0-50-34.91-85t-84.79-35h-1q-48.88 0-84.29 35z" fill="#fff"/><path d="m1320 180v80h-520v200h440v80h-440v200h520v80h-600v-640z" fill="#fff"/><path d="m78 2h2v998h-2z" fill="#0f0"/><path d="m160 2h2v998h-2z" fill="#29abe2"/><path d="m279 2h2v998h-2z" fill="#29abe2"/><path d="m398 2h2v998h-2z" fill="#29abe2"/><path d="m480 2h2v998h-2z" fill="#0f0"/><path d="m718 0h2v998h-2z" fill="#0f0"/><path d="m800 0h2v998h-2z" fill="#29abe2"/><path d="m1020 0h2v998h-2z" fill="#29abe2"/><path d="m1320 2h2v998h-2z" fill="#0f0"/><path d="m1240 2h2v998h-2z" fill="#29abe2"/><g fill="#f0f"><path d="m0 0h1400v2h-1400z"/><path d="m0 178h1400v2h-1400z"/><path d="m0 458h1400v2h-1400z"/><path d="m0 820h1400v2h-1400z"/><path d="m0 998h1400v2h-1400z"/></g><path d="m0 260h1400v2h-1400z" fill="#009ee2"/><path d="m0 540h1400v2h-1400z" fill="#009ee2"/><path d="m0 738h1400v2h-1400z" fill="#009ee2"/></svg>