<svg id="Ebene_1" data-name="Ebene 1" xmlns="http://www.w3.org/2000/svg" viewBox="0 0 1400 1000"><defs><style>.cls-1{fill:#fff;}.cls-2{fill:lime;}.cls-3{fill:#29abe2;}.cls-4{fill:#f0f;}.cls-5{fill:#009ee2;}</style></defs><path class="cls-1" d="M380.25,207a201.61,201.61,0,0,1,72.82,73A194.5,194.5,0,0,1,480,380V620a194.47,194.47,0,0,1-26.93,100,201.53,201.53,0,0,1-72.82,73,193.24,193.24,0,0,1-99.75,27h-1a193.19,193.19,0,0,1-99.75-27,201.45,201.45,0,0,1-72.82-73A194.47,194.47,0,0,1,80,620V380a194.5,194.5,0,0,1,26.93-100,201.53,201.53,0,0,1,72.82-73,193.19,193.19,0,0,1,99.75-27h1A193.24,193.24,0,0,1,380.25,207Zm-185,88q-35.42,35-35.41,85V620q0,49,35.41,84.5T279.5,740h1q49.86,0,84.79-35.5T400.2,620V380q0-50-34.91-85T280.5,260h-1Q230.62,260,195.21,295Z"/><path class="cls-1" d="M1320,180v80H800V460h440v80H800V740h520v80H720V180Z"/><rect class="cls-2" x="78" y="2" width="2" height="998"/><rect class="cls-3" x="160" y="2" width="2" height="998"/><rect class="cls-3" x="279" y="2" width="2" height="998"/><rect class="cls-3" x="398" y="2" width="2" height="998"/><rect class="cls-2" x="480" y="2" width="2" height="998"/><rect class="cls-2" x="718" width="2" height="998"/><rect class="cls-3" x="800" width="2" height="998"/><rect class="cls-3" x="1020" width="2" height="998"/><rect class="cls-2" x="1320" y="2" width="2" height="998"/><rect class="cls-3" x="1240" y="2" width="2" height="998"/><rect class="cls-4" width="1400" height="2"/><rect class="cls-4" y="178" width="1400" height="2"/><rect class="cls-4" y="458" width="1400" height="2"/><rect class="cls-4" y="820" width="1400" height="2"/><rect class="cls-4" y="998" width="1400" height="2"/><rect class="cls-5" y="260" width="1400" height="2"/><rect class="cls-5" y="540" width="1400" height="2"/><rect class="cls-5" y="738" width="1400" height="2"/></svg>