<svg id="Ebene_1" data-name="Ebene 1" xmlns="http://www.w3.org/2000/svg" viewBox="0 0 1100 2100"><defs><style>.cls-1{opacity:0.6;}.cls-2{fill:#fff;}</style></defs><g class="cls-1"><path class="cls-2" d="M888,578V690h80v12H876V578h12m2-2H874V704h96V688H890V576Z"/><path class="cls-2" d="M786.49,578l-36.21,61-.75,1.27,1,1.09,55,60.66h-14.6l-50.21-55.34-.59-.66H672v56H660V578h12v56h67.94l.58-1,32.62-55h13.35m3.51-2H772l-33.2,56H674V576H658V704h16V648h65.2L790,704h20l-58-64,38-64Z"/><path class="cls-2" d="M592,578v86a36.92,36.92,0,0,1-5.13,19A38.58,38.58,0,0,1,573,696.88,37.06,37.06,0,0,1,554,702H492V690h62a25.33,25.33,0,0,0,18.51-7.69A24.38,24.38,0,0,0,580,664V590H476V578H592m2-2H474v16H578v72a22.41,22.41,0,0,1-6.9,16.9A23.31,23.31,0,0,1,554,688H490v16h64a38.81,38.81,0,0,0,20-5.4A40.39,40.39,0,0,0,588.6,684a38.81,38.81,0,0,0,5.4-20V576Z"/><path class="cls-2" d="M408,578v12H376V690h32v12H332V690h32V590H332V578h76m2-2H330v16h32v96H330v16h80V688H378V592h32V576Z"/><path class="cls-2" d="M264,578V702H252V646H144v56H132V578h12v56H252V578h12m2-2H250v56H146V576H130V704h16V648H250v56h16V576Z"/><path class="cls-2" d="M374.51,66l36.81,124H398.49l-11.41-38.57-.42-1.43H289.41l-.43,1.43L277.51,190H264.68L301.49,66h73M293,138h90.13l-.76-2.57-16.57-56L365.35,78H310.82l-.42,1.43-16.66,56L293,138m83-74H300L262,192h17l11.9-40h94.26L397,192h17L376,64Zm-80.34,72,16.66-56h51.54l16.57,56Z"/><path class="cls-2" d="M578,66a32.58,32.58,0,0,1,17,4.62A35.51,35.51,0,0,1,607.38,83,32.64,32.64,0,0,1,612,100a33.06,33.06,0,0,1-1.88,11.13A37.42,37.42,0,0,1,604.8,121l-1.62,2.15,2.53.93A34.2,34.2,0,0,1,628,156a32.52,32.52,0,0,1-4.62,17A35.46,35.46,0,0,1,611,185.38,32.52,32.52,0,0,1,594,190H480V66h98m-86,56h86a21.23,21.23,0,0,0,15.51-6.49,22,22,0,0,0,0-31.23,20.56,20.56,0,0,0-15-6.29H492v44m0,56H594a22,22,0,0,0,0-44H492v44M578,64H478V192H594a34.43,34.43,0,0,0,18-4.9A37.36,37.36,0,0,0,625.1,174a34.43,34.43,0,0,0,4.9-18,34.94,34.94,0,0,0-6.6-20.7,35.32,35.32,0,0,0-17-13.1,39.19,39.19,0,0,0,5.6-10.4,34.9,34.9,0,0,0,2-11.8,34.43,34.43,0,0,0-4.9-18A37.36,37.36,0,0,0,596,68.9,34.43,34.43,0,0,0,578,64Zm-84,56V80h84.53A18.57,18.57,0,0,1,592.1,85.7,19.24,19.24,0,0,1,598,99.8a19.48,19.48,0,0,1-5.9,14.3A19.24,19.24,0,0,1,578,120Zm0,56V136H594a20,20,0,0,1,0,40Z"/><path class="cls-2" d="M796,66a37,37,0,0,1,19,5.12A38.69,38.69,0,0,1,828.88,85,37,37,0,0,1,834,102h-12A25.9,25.9,0,0,0,796,78H734a25.24,25.24,0,0,0-18.3,7.58A25,25,0,0,0,708,104v48a25.94,25.94,0,0,0,3.46,13,25.38,25.38,0,0,0,9.55,9.55A25.92,25.92,0,0,0,734,178h64a25,25,0,0,0,18.42-7.7A25.24,25.24,0,0,0,824,152v-6h12v6a37,37,0,0,1-5.12,19A38.58,38.58,0,0,1,817,184.87,36.94,36.94,0,0,1,798,190H734a36.92,36.92,0,0,1-19-5.13A38.48,38.48,0,0,1,701.13,171,36.92,36.92,0,0,1,696,152V104a37,37,0,0,1,5.13-19A38.58,38.58,0,0,1,715,71.12,37,37,0,0,1,734,66h62m0-2H734a38.81,38.81,0,0,0-20,5.4A40.39,40.39,0,0,0,699.4,84a38.81,38.81,0,0,0-5.4,20v48a38.81,38.81,0,0,0,5.4,20A40.39,40.39,0,0,0,714,186.6a38.81,38.81,0,0,0,20,5.4h64a38.81,38.81,0,0,0,20-5.4A40.39,40.39,0,0,0,832.6,172a38.81,38.81,0,0,0,5.4-20v-8H822v8a23.23,23.23,0,0,1-7,16.9,23,23,0,0,1-17,7.1H734a23.81,23.81,0,0,1-12-3.2,23.24,23.24,0,0,1-8.8-8.8,23.81,23.81,0,0,1-3.2-12V104a23,23,0,0,1,7.1-17A23.23,23.23,0,0,1,734,80h62a23.9,23.9,0,0,1,24,24h16a38.81,38.81,0,0,0-5.4-20A40.39,40.39,0,0,0,816,69.4,38.81,38.81,0,0,0,796,64Z"/><path class="cls-2" d="M868,322v12H806a25.24,25.24,0,0,0-18.3,7.58A25,25,0,0,0,780,360v48a26.26,26.26,0,0,0,26,26h64a25,25,0,0,0,18.42-7.7A25.24,25.24,0,0,0,896,408V390H840V378h68v30a37,37,0,0,1-5.12,19A38.58,38.58,0,0,1,889,440.87,36.94,36.94,0,0,1,870,446H806a36.92,36.92,0,0,1-19-5.13A38.48,38.48,0,0,1,773.13,427,36.92,36.92,0,0,1,768,408V360a37,37,0,0,1,5.13-19A38.58,38.58,0,0,1,787,327.12,37,37,0,0,1,806,322h62m2-2H806a38.81,38.81,0,0,0-20,5.4A40.39,40.39,0,0,0,771.4,340a38.81,38.81,0,0,0-5.4,20v48a38.81,38.81,0,0,0,5.4,20A40.39,40.39,0,0,0,786,442.6a38.81,38.81,0,0,0,20,5.4h64a38.81,38.81,0,0,0,20-5.4A40.39,40.39,0,0,0,904.6,428a38.81,38.81,0,0,0,5.4-20V376H838v16h56v16a23.23,23.23,0,0,1-7,16.9,23,23,0,0,1-17,7.1H806a24.25,24.25,0,0,1-24-24V360a23,23,0,0,1,7.1-17,23.23,23.23,0,0,1,16.9-7h64V320Z"/><path class="cls-2" d="M700,322v12H596v44h88v12H596v56H584V322H700m2-2H582V448h16V392h88V376H598V336H702V320Z"/><path class="cls-2" d="M516,322v12H412v44h88v12H412v44H516v12H400V322H516m2-2H398V448H518V432H414V392h88V376H414V336H518V320Z"/><path class="cls-2" d="M294,322a37,37,0,0,1,19,5.12A38.69,38.69,0,0,1,326.88,341,37,37,0,0,1,332,360v48a37,37,0,0,1-5.12,19A38.58,38.58,0,0,1,313,440.87,36.94,36.94,0,0,1,294,446H192V322H294M204,434h90a25,25,0,0,0,18.42-7.7A25.24,25.24,0,0,0,320,408V360a25.9,25.9,0,0,0-26-26H204V434m90-114H190V448H294a38.81,38.81,0,0,0,20-5.4A40.39,40.39,0,0,0,328.6,428a38.81,38.81,0,0,0,5.4-20V360a38.81,38.81,0,0,0-5.4-20A40.39,40.39,0,0,0,314,325.4a38.81,38.81,0,0,0-20-5.4ZM206,432V336h88a23.9,23.9,0,0,1,24,24v48a23.23,23.23,0,0,1-7,16.9,23,23,0,0,1-17,7.1Z"/><path class="cls-2" d="M798,1602v12H786v-12h12m-60,0v12H726v-12h12m94,32v86a36.92,36.92,0,0,1-5.13,19A38.58,38.58,0,0,1,813,1752.88a37.06,37.06,0,0,1-19,5.12H730a37,37,0,0,1-19-5.12A38.5,38.5,0,0,1,697.13,1739a36.92,36.92,0,0,1-5.13-19v-86h12v86a26.26,26.26,0,0,0,26,26h64a25,25,0,0,0,18.42-7.7A25.24,25.24,0,0,0,820,1720v-86h12m-32-34H784v16h16v-16Zm-60,0H724v16h16v-16Zm94,32H818v88a23.23,23.23,0,0,1-7,16.9,23,23,0,0,1-17,7.1H730a24.25,24.25,0,0,1-24-24v-88H690v88a38.81,38.81,0,0,0,5.4,20,40.39,40.39,0,0,0,14.6,14.6,38.81,38.81,0,0,0,20,5.4h64a38.81,38.81,0,0,0,20-5.4,40.39,40.39,0,0,0,14.6-14.6,38.81,38.81,0,0,0,5.4-20v-88Z"/><path class="cls-2" d="M590,1602v12H578v-12h12m-60,0v12H518v-12h12m56,32a37,37,0,0,1,19,5.13A38.48,38.48,0,0,1,618.87,1653a37,37,0,0,1,5.13,19v48a36.92,36.92,0,0,1-5.13,19A38.58,38.58,0,0,1,605,1752.88a37.06,37.06,0,0,1-19,5.12H522a37,37,0,0,1-19-5.12A38.5,38.5,0,0,1,489.13,1739a36.92,36.92,0,0,1-5.13-19v-48a37,37,0,0,1,5.13-19A38.48,38.48,0,0,1,503,1639.13a36.92,36.92,0,0,1,19-5.13h64m-64,112h64a25,25,0,0,0,18.42-7.7A25.24,25.24,0,0,0,612,1720v-48a25.91,25.91,0,0,0-26-26H522a25.24,25.24,0,0,0-18.3,7.58A25,25,0,0,0,496,1672v48a26.26,26.26,0,0,0,26,26m70-146H576v16h16v-16Zm-60,0H516v16h16v-16Zm54,32H522a38.81,38.81,0,0,0-20,5.4,40.39,40.39,0,0,0-14.6,14.6,38.81,38.81,0,0,0-5.4,20v48a38.81,38.81,0,0,0,5.4,20,40.39,40.39,0,0,0,14.6,14.6,38.81,38.81,0,0,0,20,5.4h64a38.81,38.81,0,0,0,20-5.4,40.39,40.39,0,0,0,14.6-14.6,38.81,38.81,0,0,0,5.4-20v-48a38.81,38.81,0,0,0-5.4-20,40.39,40.39,0,0,0-14.6-14.6,38.81,38.81,0,0,0-20-5.4Zm-64,112a24.25,24.25,0,0,1-24-24v-48a23,23,0,0,1,7.1-17,23.23,23.23,0,0,1,16.9-7h64a23.9,23.9,0,0,1,24,24v48a23.23,23.23,0,0,1-7,16.9,23,23,0,0,1-17,7.1Z"/><path class="cls-2" d="M378.51,1634l36.81,124H402.49l-11.41-38.57-.42-1.43H293.41l-.43,1.43L281.51,1758H268.68l36.81-124h73M297,1706h90.13l-.76-2.57-16.57-56-.42-1.43H314.83l-.43,1.43-16.66,56L297,1706m83-74H304l-38,128h17l11.9-40h94.26L401,1760h17l-38-128Zm-80.34,72,16.66-56h51.54l16.57,56Z"/><path class="cls-2" d="M486.12,1346l-51.6,60.71-1.1,1.29,1.1,1.3,51.6,60.7H471.34l-45.41-50.93-1.49-1.67-1.49,1.67L377.35,1470H362.58l51.78-60.7,1.11-1.3-1.1-1.29L362.77,1346h14.77L423,1396.93l1.49,1.68,1.5-1.68,45.2-50.93h15m4.32-2h-20.2l-45.8,51.6-46-51.6h-20l54.4,64-54.6,64h20l46.2-51.6,46,51.6h20L436,1408l54.4-64Z"/><path class="cls-2" d="M280.24,1346v124H243.38L210,1413.78l-1.72-2.89-1.72,2.89L173.1,1470H136.24V1346h12v112h18.62l.58-1,40.8-68.7L249,1457l.58,1h18.62V1346h12m2-2h-16v112H250.76l-42.52-71.6L165.72,1456H150.24V1344h-16v128h40l34-57.2,34,57.2h40V1344Z"/><path class="cls-2" d="M963.76,1346v13.09l-109.32,95.4-4,3.51H963.76v12h-132v-13.09l109.32-95.4,4-3.51H831.76v-12h132m2-2h-136v16h110l-110,96v16h136v-16h-110l110-96v-16Z"/><path class="cls-2" d="M725.16,1346l-55.32,67.53-.46.55V1470h-12v-55.92l-.45-.55L601.61,1346h14.86l45.41,52.11,1.5,1.73,1.51-1.73,45.4-52.11h14.87m4.22-2h-20l-46,52.8-46-52.8h-20l58,70.8V1472h16v-57.2l58-70.8Z"/><path class="cls-2" d="M1023.32,1090l-36.81,124h-69l-36.81-124h12.83l32.71,110.57.42,1.43h50.53l.43-1.43L1010.49,1090h12.83m2.68-2h-17l-33.32,112H928.14L895,1088H878l38,128h72l38-128Z"/><path class="cls-2" d="M812,1090v86a37,37,0,0,1-5.12,19A38.58,38.58,0,0,1,793,1208.87a37,37,0,0,1-19,5.13H710a36.94,36.94,0,0,1-19-5.13A38.58,38.58,0,0,1,677.12,1195a37,37,0,0,1-5.12-19v-86h12v86a26.26,26.26,0,0,0,26,26h64a25,25,0,0,0,18.42-7.7A25.24,25.24,0,0,0,800,1176v-86h12m2-2H798v88a23.23,23.23,0,0,1-7,16.9,23,23,0,0,1-17,7.1H710a24.25,24.25,0,0,1-24-24v-88H670v88a38.81,38.81,0,0,0,5.4,20,40.39,40.39,0,0,0,14.6,14.6,38.81,38.81,0,0,0,20,5.4h64a38.81,38.81,0,0,0,20-5.4,40.39,40.39,0,0,0,14.6-14.6,38.81,38.81,0,0,0,5.4-20v-88Z"/><path class="cls-2" d="M604,1090v12H544v112H532V1102H472v-12H604m2-2H470v16h60v112h16V1104h60v-16Z"/><path class="cls-2" d="M388,1090v12H314a22,22,0,0,0,0,44h56a32.58,32.58,0,0,1,17,4.62,35.51,35.51,0,0,1,12.41,12.4,33.5,33.5,0,0,1,0,34A35.46,35.46,0,0,1,387,1209.38a32.52,32.52,0,0,1-17,4.62H280v-12h90a22,22,0,0,0,0-44H314a32.52,32.52,0,0,1-17-4.62A35.46,35.46,0,0,1,284.62,1141a33.48,33.48,0,0,1,0-33.94A35.46,35.46,0,0,1,297,1094.62a32.52,32.52,0,0,1,17-4.62h74m2-2H314a34.43,34.43,0,0,0-18,4.9,37.36,37.36,0,0,0-13.1,13.1,35.51,35.51,0,0,0,0,36,37.36,37.36,0,0,0,13.1,13.1,34.43,34.43,0,0,0,18,4.9h56a20,20,0,0,1,0,40H278v16h92a34.43,34.43,0,0,0,18-4.9,37.36,37.36,0,0,0,13.1-13.1,35.51,35.51,0,0,0,0-36,37.36,37.36,0,0,0-13.1-13.1,34.43,34.43,0,0,0-18-4.9H314a20,20,0,0,1,0-40h76v-16Z"/><path class="cls-2" d="M178,1090a32.58,32.58,0,0,1,17,4.62,35.51,35.51,0,0,1,12.41,12.4,33.5,33.5,0,0,1,0,34A35.37,35.37,0,0,1,195,1153.38a32.52,32.52,0,0,1-17,4.62h-4.71l1.79,3,31.41,53H193.14l-32.62-55-.58-1H88v56H76V1090H178m-90,56h90a22,22,0,0,0,0-44H88v44m90-58H74v128H90v-56h68.8l33.2,56h18l-33.2-56H178a34.43,34.43,0,0,0,18-4.9,37.36,37.36,0,0,0,13.1-13.1,35.51,35.51,0,0,0,0-36,37.36,37.36,0,0,0-13.1-13.1,34.43,34.43,0,0,0-18-4.9Zm-88,56v-40h88a20,20,0,0,1,0,40Z"/><path class="cls-2" d="M210.1,834V958h-12V846H179.48l-.58,1-40.8,68.7L97.3,847l-.58-1H78.1V958h-12V834H103l33.42,56.22,1.72,2.89,1.72-2.89L173.24,834H210.1m2-2h-40l-34,57.2-34-57.2h-40V960h16V848H95.58l42.52,71.6L180.62,848H196.1V960h16V832Z"/><path class="cls-2" d="M994.1,834a37,37,0,0,1,19,5.12A38.69,38.69,0,0,1,1027,853a37,37,0,0,1,5.12,19v48a37,37,0,0,1-5.12,19,41,41,0,0,1-2.36,3.54l-.79,1.07.68,1.14,7.88,13.26H1019l-2.79-4.69-1-1.73-1.72,1-.25.16-.16.1a37.06,37.06,0,0,1-19,5.12h-64a37,37,0,0,1-19-5.12A38.5,38.5,0,0,1,897.23,939a36.92,36.92,0,0,1-5.13-19V872a37,37,0,0,1,5.13-19,38.58,38.58,0,0,1,13.88-13.89,37,37,0,0,1,19-5.12h64m23.19,98.58,1.4-4.07a25.88,25.88,0,0,0,1.41-8.51V872a25.9,25.9,0,0,0-26-26H965.84l1.8,3,47.44,79.86,2.21,3.7M930.1,946h64a25.11,25.11,0,0,0,13.34-3.66l1.68-1-1-1.7-55-92.63-.58-1H930.1a25.24,25.24,0,0,0-18.3,7.58A25,25,0,0,0,904.1,872v48a26.26,26.26,0,0,0,26,26m64-114h-64a38.81,38.81,0,0,0-20,5.4A40.39,40.39,0,0,0,895.5,852a38.81,38.81,0,0,0-5.4,20v48a38.81,38.81,0,0,0,5.4,20,40.39,40.39,0,0,0,14.6,14.6,38.81,38.81,0,0,0,20,5.4h64a38.81,38.81,0,0,0,20-5.4l.43-.27,3.37,5.67h18l-9.67-16.28a43.61,43.61,0,0,0,2.47-3.72,38.81,38.81,0,0,0,5.4-20V872a38.81,38.81,0,0,0-5.4-20,40.39,40.39,0,0,0-14.6-14.6,38.81,38.81,0,0,0-20-5.4Zm22.7,95.85L969.35,848H994.1a23.9,23.9,0,0,1,24,24v48a23.81,23.81,0,0,1-1.3,7.85ZM930.1,944a24.25,24.25,0,0,1-24-24V872a23,23,0,0,1,7.1-17,23.23,23.23,0,0,1,16.9-7h21.25l55,92.63A23,23,0,0,1,994.1,944Z"/><path class="cls-2" d="M582.1,834a37,37,0,0,1,19,5.12A38.69,38.69,0,0,1,615,853a37,37,0,0,1,5.12,19v48A37,37,0,0,1,615,939a38.58,38.58,0,0,1-13.89,13.88,36.94,36.94,0,0,1-19,5.13h-64a36.92,36.92,0,0,1-19-5.13A38.48,38.48,0,0,1,485.23,939a36.94,36.94,0,0,1-5.13-19V872a36.94,36.94,0,0,1,5.13-19,38.5,38.5,0,0,1,13.88-13.89,37,37,0,0,1,19-5.12h64m-64,112h64a25,25,0,0,0,18.42-7.7A25.24,25.24,0,0,0,608.1,920V872a25.9,25.9,0,0,0-26-26h-64a25.24,25.24,0,0,0-18.3,7.58A25,25,0,0,0,492.1,872v48a26.26,26.26,0,0,0,26,26m64-114h-64a38.81,38.81,0,0,0-20,5.4A40.39,40.39,0,0,0,483.5,852a38.81,38.81,0,0,0-5.4,20v48a38.81,38.81,0,0,0,5.4,20,40.39,40.39,0,0,0,14.6,14.6,38.81,38.81,0,0,0,20,5.4h64a38.81,38.81,0,0,0,20-5.4A40.39,40.39,0,0,0,616.7,940a38.81,38.81,0,0,0,5.4-20V872a38.81,38.81,0,0,0-5.4-20,40.39,40.39,0,0,0-14.6-14.6,38.81,38.81,0,0,0-20-5.4Zm-64,112a24.25,24.25,0,0,1-24-24V872a23,23,0,0,1,7.1-17,23.23,23.23,0,0,1,16.9-7h64a23.9,23.9,0,0,1,24,24v48a23.23,23.23,0,0,1-7,16.9,23,23,0,0,1-17,7.1Z"/><path class="cls-2" d="M412.1,834V958H375.24L309.3,847l-.58-1H290.1V958h-12V834H315L380.9,945l.58,1H400.1V834h12m2-2h-16V944H382.62L316.1,832h-40V960h16V848h15.48L374.1,960h40V832Z"/><path class="cls-2" d="M790.1,834a32.58,32.58,0,0,1,17,4.62A35.51,35.51,0,0,1,819.48,851a33.5,33.5,0,0,1,0,34,35.46,35.46,0,0,1-12.41,12.41,32.52,32.52,0,0,1-17,4.62h-90v56h-12V834h102m-90,56h90a22,22,0,0,0,0-44h-90v44m90-58h-104V960h16V904h88a34.43,34.43,0,0,0,18-4.9A37.36,37.36,0,0,0,821.2,886a35.51,35.51,0,0,0,0-36,37.36,37.36,0,0,0-13.1-13.1,34.43,34.43,0,0,0-18-4.9Zm-88,56V848h88a20,20,0,0,1,0,40Z"/><path class="cls-2" d="M970.8,1946v12h-84v-12h84m2-2h-88v16h88v-16Z"/><path class="cls-2" d="M753,1890v86H741v-86h12m1.8,110v16h-16v-16h16m.2-112H739v90h16v-90Zm1.8,110h-20v20h20v-20Z"/></g><path class="cls-2" d="M890,576V688h48v16H874V576Z"/><path class="cls-2" d="M674,576v56h19.8L713,576h17l-23.2,62.2L746,704H728l-33.2-56H674v56H658V576Z"/><path class="cls-2" d="M594,576v88a38.81,38.81,0,0,1-5.4,20A40.39,40.39,0,0,1,574,698.6a38.81,38.81,0,0,1-20,5.4V688a23.9,23.9,0,0,0,24-24V592H530V576Z"/><path class="cls-2" d="M378,592V704H362V576h16Z"/><path class="cls-2" d="M178,576v56h40V576h16V704H218V648H178v56H162V576Z"/><path class="cls-2" d="M367,192h17L346,64H330L292,192h17l11.84-40h34.29Zm-41.43-56L338,94.14,350.38,136Z"/><path class="cls-2" d="M524,68.9A37.36,37.36,0,0,1,537.1,82a34.43,34.43,0,0,1,4.9,18,36.07,36.07,0,0,1-2.6,13.5,33.24,33.24,0,0,1-7.4,11.3,36.32,36.32,0,0,1,13.1,13.1A34.93,34.93,0,0,1,550,156a34.43,34.43,0,0,1-4.9,18A37.36,37.36,0,0,1,532,187.1a34.43,34.43,0,0,1-18,4.9H478V64h28A34.43,34.43,0,0,1,524,68.9ZM494,120h12a19.94,19.94,0,0,0,14.1-34.1A19.24,19.24,0,0,0,506,80H494Zm0,56h20a20,20,0,0,0,0-40H494Z"/><path class="cls-2" d="M699.4,84A40.39,40.39,0,0,1,714,69.4,38.81,38.81,0,0,1,734,64h.2a38.81,38.81,0,0,1,20,5.4A40.39,40.39,0,0,1,768.8,84a38.81,38.81,0,0,1,5.4,20h-16a23.9,23.9,0,0,0-24-24H734a23.23,23.23,0,0,0-16.9,7,23,23,0,0,0-7.1,17v48a23.22,23.22,0,0,0,3.3,12,24.19,24.19,0,0,0,8.8,8.8A23.29,23.29,0,0,0,734,176h2a24.24,24.24,0,0,0,24.2-24v-8h16v8a38.81,38.81,0,0,1-5.4,20,40.13,40.13,0,0,1-14.7,14.6A39.35,39.35,0,0,1,736,192h-2a38.81,38.81,0,0,1-20-5.4A40.39,40.39,0,0,1,699.4,172a38.81,38.81,0,0,1-5.4-20V104A38.81,38.81,0,0,1,699.4,84Z"/><path class="cls-2" d="M823.2,424.9a23.23,23.23,0,0,0,7-16.9V392H806V376h40.2v32a38.81,38.81,0,0,1-5.4,20,40.39,40.39,0,0,1-14.6,14.6,38.81,38.81,0,0,1-20,5.4H806a38.81,38.81,0,0,1-20-5.4A40.39,40.39,0,0,1,771.4,428a38.81,38.81,0,0,1-5.4-20V360a38.81,38.81,0,0,1,5.4-20A40.39,40.39,0,0,1,786,325.4a38.81,38.81,0,0,1,20-5.4h.2v16H806a23.23,23.23,0,0,0-16.9,7,23,23,0,0,0-7.1,17v48a24.25,24.25,0,0,0,24,24h.2A23,23,0,0,0,823.2,424.9Z"/><path class="cls-2" d="M654,320v16H598v40h40v16H598v56H582V320Z"/><path class="cls-2" d="M470,320v16H414v40h40v16H414v40h56v16H398V320Z"/><path class="cls-2" d="M250,325.4A40.39,40.39,0,0,1,264.6,340a38.81,38.81,0,0,1,5.4,20v48a38.81,38.81,0,0,1-5.4,20A40.39,40.39,0,0,1,250,442.6a38.81,38.81,0,0,1-20,5.4H190V320h40A38.81,38.81,0,0,1,250,325.4ZM206,432h24a23,23,0,0,0,17-7.1,23.23,23.23,0,0,0,7-16.9V360a23.9,23.9,0,0,0-24-24H206Z"/><path class="cls-2" d="M737.9,1632v88a24.25,24.25,0,0,0,24,24h.2a23.9,23.9,0,0,0,24-24v-88h16v88a38.81,38.81,0,0,1-5.4,20,40.58,40.58,0,0,1-14.5,14.6,38.67,38.67,0,0,1-20.1,5.4h-.2a38.81,38.81,0,0,1-20-5.4,40.39,40.39,0,0,1-14.6-14.6,38.81,38.81,0,0,1-5.4-20v-88Zm16-32v16h-16v-16Zm32.2,0v16h-16v-16Z"/><path class="cls-2" d="M574.2,1637.4a40.39,40.39,0,0,1,14.6,14.6,38.81,38.81,0,0,1,5.4,20v48a38.81,38.81,0,0,1-5.4,20,40.39,40.39,0,0,1-14.6,14.6,38.81,38.81,0,0,1-20,5.4H554a38.81,38.81,0,0,1-20-5.4,40.39,40.39,0,0,1-14.6-14.6,38.81,38.81,0,0,1-5.4-20v-48a38.81,38.81,0,0,1,5.4-20,40.39,40.39,0,0,1,14.6-14.6,38.81,38.81,0,0,1,20-5.4h.2A38.81,38.81,0,0,1,574.2,1637.4ZM546,1600v16H530v-16Zm-8.9,55a23,23,0,0,0-7.1,17v48a24.25,24.25,0,0,0,24,24h.2a23,23,0,0,0,17-7.1,23.23,23.23,0,0,0,7-16.9v-48a23.9,23.9,0,0,0-24-24H554A23.21,23.21,0,0,0,537.1,1655Zm40.9-55v16H562v-16Z"/><path class="cls-2" d="M334,1632h16l.4,1.6L313,1760H296Zm0-32v16H318v-16Zm32,104v16H318v-16Zm-16-72,38,128H371l-37.4-126.2.4-1.8Zm0,0v16H334v-16Zm16-32v16H350v-16Z"/><rect class="cls-2" x="364" y="1600" width="16" height="16"/><rect class="cls-2" x="304" y="1600" width="16" height="16"/><path class="cls-2" d="M434.94,1408l32.4,64h-18l-25-46.8-25,46.8h-18l32.4-64-32.4-64h18l25,46.8,25-46.8h18Z"/><path class="cls-2" d="M162.24,1472V1344h16v128Zm0-3.8,46-86.6,46,86.6v3.8h-16l-30-56.4-30,56.4h-16Zm0,3.8v-16h16v16Zm76,0V1344h16v128Zm0,0v-16h16v16Z"/><path class="cls-2" d="M912.56,1456h53.2v16h-72v-16l53.2-96h-53.2v-16h72v16Z"/><path class="cls-2" d="M671.28,1418v54h-16v-54l-35.4-74h17l26.4,53.8,26.6-53.8h17Z"/><path class="cls-2" d="M960.4,1214.4l-.4,1.6H944l-38-128h17Zm-.4,1.6H944l-.6-1.6L981,1088h17Zm0-16v16H944v-16Z"/><path class="cls-2" d="M717.9,1088v88a24.25,24.25,0,0,0,24,24h.2a23.9,23.9,0,0,0,24-24v-88h16v88a38.81,38.81,0,0,1-5.4,20,40.58,40.58,0,0,1-14.5,14.6,38.67,38.67,0,0,1-20.1,5.4h-.2a38.81,38.81,0,0,1-20-5.4,40.39,40.39,0,0,1-14.6-14.6,38.81,38.81,0,0,1-5.4-20v-88Z"/><path class="cls-2" d="M574,1104H546v112H530V1104H502v-16h72Z"/><path class="cls-2" d="M336.1,1194.1A20,20,0,0,0,322,1160h-8a34.43,34.43,0,0,1-18-4.9,37.36,37.36,0,0,1-13.1-13.1,35.51,35.51,0,0,1,0-36,37.36,37.36,0,0,1,13.1-13.1,34.43,34.43,0,0,1,18-4.9h24v16H314a20,20,0,0,0,0,40h8a34.43,34.43,0,0,1,18,4.9,37.36,37.36,0,0,1,13.1,13.1,35.51,35.51,0,0,1,0,36,37.36,37.36,0,0,1-13.1,13.1,34.43,34.43,0,0,1-18,4.9H278v-16h44A19.24,19.24,0,0,0,336.1,1194.1Z"/><path class="cls-2" d="M132,1092.9a37.36,37.36,0,0,1,13.1,13.1,34.43,34.43,0,0,1,4.9,18,35.43,35.43,0,0,1-2.8,14,36.69,36.69,0,0,1-7.9,11.7,34,34,0,0,1-11.7,7.7L145,1216H128l-16.6-56H90v56H74V1088h40A34.43,34.43,0,0,1,132,1092.9Zm-3.9,45.2A20,20,0,0,0,114,1104H90v40h24A19.24,19.24,0,0,0,128.1,1138.1Z"/><polygon class="cls-2" points="168.1 832 138.1 888.4 108.1 832 92.1 832 92.1 835.8 92.1 848 92.1 960 108.1 960 108.1 865.92 138.1 922.4 168.1 865.92 168.1 960 184.1 960 184.1 848 184.1 835.8 184.1 832 168.1 832"/><path class="cls-2" d="M1035.9,960l-9.67-16.28a43.61,43.61,0,0,0,2.47-3.72,38.81,38.81,0,0,0,5.4-20V872a38.81,38.81,0,0,0-5.4-20,40.39,40.39,0,0,0-14.6-14.6,38.81,38.81,0,0,0-20-5.4h-.2a38.81,38.81,0,0,0-20,5.4A40.39,40.39,0,0,0,959.3,852a38.81,38.81,0,0,0-5.4,20v48a38.81,38.81,0,0,0,5.4,20,40.39,40.39,0,0,0,14.6,14.6,38.81,38.81,0,0,0,20,5.4h.2a38.81,38.81,0,0,0,20-5.4l.43-.27,3.37,5.67Zm-42-112h.2a23.9,23.9,0,0,1,24,24v48a23.81,23.81,0,0,1-1.3,7.85l-41.89-70.5A24.09,24.09,0,0,1,977,855,23.23,23.23,0,0,1,993.9,848Zm.2,96h-.2a24.25,24.25,0,0,1-24-24V879.1l36.51,61.53A23.08,23.08,0,0,1,994.1,944Z"/><path class="cls-2" d="M570.2,837.4A40.39,40.39,0,0,1,584.8,852a38.81,38.81,0,0,1,5.4,20v48a38.81,38.81,0,0,1-5.4,20,40.39,40.39,0,0,1-14.6,14.6,38.81,38.81,0,0,1-20,5.4H550a38.81,38.81,0,0,1-20-5.4A40.39,40.39,0,0,1,515.4,940a38.81,38.81,0,0,1-5.4-20V872a38.81,38.81,0,0,1,5.4-20A40.39,40.39,0,0,1,530,837.4a38.81,38.81,0,0,1,20-5.4h.2A38.81,38.81,0,0,1,570.2,837.4ZM533.1,855a23,23,0,0,0-7.1,17v48a24.25,24.25,0,0,0,24,24h.2a23,23,0,0,0,17-7.1,23.23,23.23,0,0,0,7-16.9V872a23.9,23.9,0,0,0-24-24H550A23.23,23.23,0,0,0,533.1,855Z"/><polygon class="cls-2" points="342.1 832 342.1 926.39 292.1 832 276.1 832 276.1 835.4 276.1 848 276.1 960 292.1 960 292.1 865.61 342.1 960 358.1 960 358.1 956.6 358.1 944 358.1 832 342.1 832"/><path class="cls-2" d="M686.1,832h40.2a34.43,34.43,0,0,1,18,4.9A37.36,37.36,0,0,1,757.4,850a35.51,35.51,0,0,1,0,36,37.36,37.36,0,0,1-13.1,13.1,34.43,34.43,0,0,1-18,4.9H702.1v56h-16Zm54.3,50.1A20,20,0,0,0,726.3,848H702.1v40h24.2A19.24,19.24,0,0,0,740.4,882.1Z"/><path class="cls-2" d="M295.2,1942v20h-20v-20Zm0,56v20h-20v-20Z"/><path class="cls-2" d="M147.2,1996v20h-20v-20Z"/><path class="cls-2" d="M597,2036H580l12-40h16.8Zm11.8-92v16h-16v-16Z"/><path class="cls-2" d="M956.8,1944v16h-56v-16Z"/><path class="cls-2" d="M440.2,2036h-17l12-40H452Z"/><path class="cls-2" d="M756.8,1998v20h-20v-20Zm-1.8-94v70H739v-86h16Z"/></svg>