<svg id="Ebene_1" data-name="Ebene 1" xmlns="http://www.w3.org/2000/svg" viewBox="0 0 1100 2100"><defs><style>.cls-1{fill:#fff;}</style></defs><path class="cls-1" d="M890,576V688h80v16H874V576Z"/><path class="cls-1" d="M674,576v56h64.8L772,576h18l-38,64,58,64H790l-50.8-56H674v56H658V576Z"/><path class="cls-1" d="M594,576v88a38.81,38.81,0,0,1-5.4,20A40.39,40.39,0,0,1,574,698.6a38.81,38.81,0,0,1-20,5.4H490V688h64a23.31,23.31,0,0,0,17.1-7.1A22.41,22.41,0,0,0,578,664V592H474V576Z"/><path class="cls-1" d="M410,592H378v96h32v16H330V688h32V592H330V576h80Z"/><path class="cls-1" d="M146,576v56H250V576h16V704H250V648H146v56H130V576Z"/><path class="cls-1" d="M397,192h17L376,64H300L262,192h17l11.9-40h94.26ZM295.66,136l16.66-56h51.54l16.57,56Z"/><path class="cls-1" d="M596,68.9A37.36,37.36,0,0,1,609.1,82a34.43,34.43,0,0,1,4.9,18,34.9,34.9,0,0,1-2,11.8,39.19,39.19,0,0,1-5.6,10.4,35.32,35.32,0,0,1,17,13.1A34.94,34.94,0,0,1,630,156a34.43,34.43,0,0,1-4.9,18A37.36,37.36,0,0,1,612,187.1a34.43,34.43,0,0,1-18,4.9H478V64H578A34.43,34.43,0,0,1,596,68.9ZM494,120h84a19.24,19.24,0,0,0,14.1-5.9A19.48,19.48,0,0,0,598,99.8a19.24,19.24,0,0,0-5.9-14.1A18.57,18.57,0,0,0,578,80H494Zm0,56H594a20,20,0,0,0,0-40H494Z"/><path class="cls-1" d="M699.4,84A40.39,40.39,0,0,1,714,69.4,38.81,38.81,0,0,1,734,64h62a38.81,38.81,0,0,1,20,5.4A40.39,40.39,0,0,1,830.6,84a38.81,38.81,0,0,1,5.4,20H820a23.9,23.9,0,0,0-24-24H734a23.23,23.23,0,0,0-16.9,7,23,23,0,0,0-7.1,17v48a23.81,23.81,0,0,0,3.2,12,23.24,23.24,0,0,0,8.8,8.8,23.81,23.81,0,0,0,12,3.2h64a23,23,0,0,0,17-7.1,23.23,23.23,0,0,0,7-16.9v-8h16v8a38.81,38.81,0,0,1-5.4,20A40.39,40.39,0,0,1,818,186.6a38.81,38.81,0,0,1-20,5.4H734a38.81,38.81,0,0,1-20-5.4A40.39,40.39,0,0,1,699.4,172a38.81,38.81,0,0,1-5.4-20V104A38.81,38.81,0,0,1,699.4,84Z"/><path class="cls-1" d="M887,424.9a23.23,23.23,0,0,0,7-16.9V392H838V376h72v32a38.81,38.81,0,0,1-5.4,20A40.39,40.39,0,0,1,890,442.6a38.81,38.81,0,0,1-20,5.4H806a38.81,38.81,0,0,1-20-5.4A40.39,40.39,0,0,1,771.4,428a38.81,38.81,0,0,1-5.4-20V360a38.81,38.81,0,0,1,5.4-20A40.39,40.39,0,0,1,786,325.4a38.81,38.81,0,0,1,20-5.4h64v16H806a23.23,23.23,0,0,0-16.9,7,23,23,0,0,0-7.1,17v48a24.25,24.25,0,0,0,24,24h64A23,23,0,0,0,887,424.9Z"/><path class="cls-1" d="M702,320v16H598v40h88v16H598v56H582V320Z"/><path class="cls-1" d="M518,320v16H414v40h88v16H414v40H518v16H398V320Z"/><path class="cls-1" d="M314,325.4A40.39,40.39,0,0,1,328.6,340a38.81,38.81,0,0,1,5.4,20v48a38.81,38.81,0,0,1-5.4,20A40.39,40.39,0,0,1,314,442.6a38.81,38.81,0,0,1-20,5.4H190V320H294A38.81,38.81,0,0,1,314,325.4ZM206,432h88a23,23,0,0,0,17-7.1,23.23,23.23,0,0,0,7-16.9V360a23.9,23.9,0,0,0-24-24H206Z"/><path class="cls-1" d="M706,1632v88a24.25,24.25,0,0,0,24,24h64a23,23,0,0,0,17-7.1,23.23,23.23,0,0,0,7-16.9v-88h16v88a38.81,38.81,0,0,1-5.4,20,40.39,40.39,0,0,1-14.6,14.6,38.81,38.81,0,0,1-20,5.4H730a38.81,38.81,0,0,1-20-5.4,40.39,40.39,0,0,1-14.6-14.6,38.81,38.81,0,0,1-5.4-20v-88Zm34-32v16H724v-16Zm60,0v16H784v-16Z"/><path class="cls-1" d="M606,1637.4a40.39,40.39,0,0,1,14.6,14.6,38.81,38.81,0,0,1,5.4,20v48a38.81,38.81,0,0,1-5.4,20,40.39,40.39,0,0,1-14.6,14.6,38.81,38.81,0,0,1-20,5.4H522a38.81,38.81,0,0,1-20-5.4,40.39,40.39,0,0,1-14.6-14.6,38.81,38.81,0,0,1-5.4-20v-48a38.81,38.81,0,0,1,5.4-20,40.39,40.39,0,0,1,14.6-14.6,38.81,38.81,0,0,1,20-5.4h64A38.81,38.81,0,0,1,606,1637.4ZM505.1,1655a23,23,0,0,0-7.1,17v48a24.25,24.25,0,0,0,24,24h64a23,23,0,0,0,17-7.1,23.23,23.23,0,0,0,7-16.9v-48a23.9,23.9,0,0,0-24-24H522A23.23,23.23,0,0,0,505.1,1655Zm26.9-55v16H516v-16Zm60,0v16H576v-16Z"/><path class="cls-1" d="M401,1760h17l-38-128H304l-38,128h17l11.9-40h94.26Zm-101.34-56,16.66-56h51.54l16.57,56Z"/><path class="cls-1" d="M436,1408l54.4,64h-20l-46-51.6-46.2,51.6h-20l54.6-64-54.4-64h20l46,51.6,45.8-51.6h20.2Z"/><polygon class="cls-1" points="266.24 1344 266.24 1456 250.76 1456 208.24 1384.4 165.72 1456 150.24 1456 150.24 1344 134.24 1344 134.24 1456 134.24 1472 150.24 1472 158.24 1472 174.24 1472 208.24 1414.8 242.24 1472 258.24 1472 266.24 1472 282.24 1472 282.24 1456 282.24 1344 266.24 1344"/><path class="cls-1" d="M855.76,1456h110v16h-136v-16l110-96h-110v-16h136v16Z"/><path class="cls-1" d="M671.38,1414.8V1472h-16v-57.2l-58-70.8h20l46,52.8,46-52.8h20Z"/><polygon class="cls-1" points="1009 1088 975.68 1200 928.14 1200 895 1088 878 1088 916 1216 932 1216 972 1216 988 1216 1026 1088 1009 1088"/><path class="cls-1" d="M686,1088v88a24.25,24.25,0,0,0,24,24h64a23,23,0,0,0,17-7.1,23.23,23.23,0,0,0,7-16.9v-88h16v88a38.81,38.81,0,0,1-5.4,20,40.39,40.39,0,0,1-14.6,14.6,38.81,38.81,0,0,1-20,5.4H710a38.81,38.81,0,0,1-20-5.4,40.39,40.39,0,0,1-14.6-14.6,38.81,38.81,0,0,1-5.4-20v-88Z"/><path class="cls-1" d="M606,1104H546v112H530V1104H470v-16H606Z"/><path class="cls-1" d="M384.1,1194.1A20,20,0,0,0,370,1160H314a34.43,34.43,0,0,1-18-4.9,37.36,37.36,0,0,1-13.1-13.1,35.51,35.51,0,0,1,0-36,37.36,37.36,0,0,1,13.1-13.1,34.43,34.43,0,0,1,18-4.9h76v16H314a20,20,0,0,0,0,40h56a34.43,34.43,0,0,1,18,4.9,37.36,37.36,0,0,1,13.1,13.1,35.51,35.51,0,0,1,0,36,37.36,37.36,0,0,1-13.1,13.1,34.43,34.43,0,0,1-18,4.9H278v-16h92A19.24,19.24,0,0,0,384.1,1194.1Z"/><path class="cls-1" d="M196,1092.9a37.36,37.36,0,0,1,13.1,13.1,35.51,35.51,0,0,1,0,36,37.36,37.36,0,0,1-13.1,13.1,34.43,34.43,0,0,1-18,4.9h-1.2l33.2,56H192l-33.2-56H90v56H74V1088H178A34.43,34.43,0,0,1,196,1092.9Zm-3.9,45.2A20,20,0,0,0,178,1104H90v40h88A19.24,19.24,0,0,0,192.1,1138.1Z"/><polygon class="cls-1" points="196.1 832 188.1 832 172.1 832 138.1 889.2 104.1 832 88.1 832 80.1 832 64.1 832 64.1 848 64.1 960 80.1 960 80.1 848 95.58 848 138.1 919.6 180.62 848 196.1 848 196.1 960 212.1 960 212.1 848 212.1 832 196.1 832"/><path class="cls-1" d="M1035.9,960l-9.67-16.28a43.61,43.61,0,0,0,2.47-3.72,38.81,38.81,0,0,0,5.4-20V872a38.81,38.81,0,0,0-5.4-20,40.39,40.39,0,0,0-14.6-14.6,38.81,38.81,0,0,0-20-5.4h-64a38.81,38.81,0,0,0-20,5.4A40.39,40.39,0,0,0,895.5,852a38.81,38.81,0,0,0-5.4,20v48a38.81,38.81,0,0,0,5.4,20,40.39,40.39,0,0,0,14.6,14.6,38.81,38.81,0,0,0,20,5.4h64a38.81,38.81,0,0,0,20-5.4l.43-.27,3.37,5.67Zm-24.8-105a23.13,23.13,0,0,1,7,17v48a23.81,23.81,0,0,1-1.3,7.85L969.35,848H994.1A23.13,23.13,0,0,1,1011.1,855Zm-17,89h-64a24.25,24.25,0,0,1-24-24V872a23,23,0,0,1,7.1-17,23.23,23.23,0,0,1,16.9-7h21.25l55,92.63A23,23,0,0,1,994.1,944Z"/><path class="cls-1" d="M602.1,837.4A40.39,40.39,0,0,1,616.7,852a38.81,38.81,0,0,1,5.4,20v48a38.81,38.81,0,0,1-5.4,20,40.39,40.39,0,0,1-14.6,14.6,38.81,38.81,0,0,1-20,5.4h-64a38.81,38.81,0,0,1-20-5.4A40.39,40.39,0,0,1,483.5,940a38.81,38.81,0,0,1-5.4-20V872a38.81,38.81,0,0,1,5.4-20,40.39,40.39,0,0,1,14.6-14.6,38.81,38.81,0,0,1,20-5.4h64A38.81,38.81,0,0,1,602.1,837.4ZM501.2,855a23,23,0,0,0-7.1,17v48a24.25,24.25,0,0,0,24,24h64a23,23,0,0,0,17-7.1,23.23,23.23,0,0,0,7-16.9V872a23.9,23.9,0,0,0-24-24h-64A23.23,23.23,0,0,0,501.2,855Z"/><polygon class="cls-1" points="398.1 832 398.1 944 382.62 944 316.1 832 300.1 832 292.1 832 276.1 832 276.1 848 276.1 960 292.1 960 292.1 848 307.58 848 374.1 960 390.1 960 398.1 960 414.1 960 414.1 944 414.1 832 398.1 832"/><path class="cls-1" d="M686.1,832h104a34.43,34.43,0,0,1,18,4.9A37.36,37.36,0,0,1,821.2,850a35.51,35.51,0,0,1,0,36,37.36,37.36,0,0,1-13.1,13.1,34.43,34.43,0,0,1-18,4.9h-88v56h-16Zm118.1,50.1A20,20,0,0,0,790.1,848h-88v40h88A19.24,19.24,0,0,0,804.2,882.1Z"/><path class="cls-1" d="M972.8,1944v16h-88v-16Z"/><path class="cls-1" d="M756.8,1998v20h-20v-20Zm-1.8-94v74H739v-90h16Z"/><path class="cls-1" d="M295.2,1942v20h-20v-20Zm0,56v20h-20v-20Z"/><path class="cls-1" d="M147.2,1996v20h-20v-20Z"/><path class="cls-1" d="M597,2036H580l12-40h16.8Zm11.8-92v16h-16v-16Z"/><path class="cls-1" d="M440.2,2036h-17l12-40H452Z"/></svg>