<svg viewBox="0 0 1100 2100" xmlns="http://www.w3.org/2000/svg"><g fill="#fff"><path d="m890 576v112h80v16h-96v-128z"/><path d="m674 576v56h64.8l33.2-56h18l-38 64 58 64h-20l-50.8-56h-65.2v56h-16v-128z"/><path d="m594 576v88a38.81 38.81 0 0 1 -5.4 20 40.39 40.39 0 0 1 -14.6 14.6 38.81 38.81 0 0 1 -20 5.4h-64v-16h64a23.31 23.31 0 0 0 17.1-7.1 22.41 22.41 0 0 0 6.9-16.9v-72h-104v-16z"/><path d="m410 592h-32v96h32v16h-80v-16h32v-96h-32v-16h80z"/><path d="m146 576v56h104v-56h16v128h-16v-56h-104v56h-16v-128z"/><path d="m397 192h17l-38-128h-76l-38 128h17l11.9-40h94.26zm-101.34-56 16.66-56h51.54l16.57 56z"/><path d="m596 68.9a37.36 37.36 0 0 1 13.1 13.1 34.43 34.43 0 0 1 4.9 18 34.9 34.9 0 0 1 -2 11.8 39.19 39.19 0 0 1 -5.6 10.4 35.32 35.32 0 0 1 17 13.1 34.94 34.94 0 0 1 6.6 20.7 34.43 34.43 0 0 1 -4.9 18 37.36 37.36 0 0 1 -13.1 13.1 34.43 34.43 0 0 1 -18 4.9h-116v-128h100a34.43 34.43 0 0 1 18 4.9zm-102 51.1h84a19.24 19.24 0 0 0 14.1-5.9 19.48 19.48 0 0 0 5.9-14.3 19.24 19.24 0 0 0 -5.9-14.1 18.57 18.57 0 0 0 -14.1-5.7h-84zm0 56h100a20 20 0 0 0 0-40h-100z"/><path d="m699.4 84a40.39 40.39 0 0 1 14.6-14.6 38.81 38.81 0 0 1 20-5.4h62a38.81 38.81 0 0 1 20 5.4 40.39 40.39 0 0 1 14.6 14.6 38.81 38.81 0 0 1 5.4 20h-16a23.9 23.9 0 0 0 -24-24h-62a23.23 23.23 0 0 0 -16.9 7 23 23 0 0 0 -7.1 17v48a23.81 23.81 0 0 0 3.2 12 23.24 23.24 0 0 0 8.8 8.8 23.81 23.81 0 0 0 12 3.2h64a23 23 0 0 0 17-7.1 23.23 23.23 0 0 0 7-16.9v-8h16v8a38.81 38.81 0 0 1 -5.4 20 40.39 40.39 0 0 1 -14.6 14.6 38.81 38.81 0 0 1 -20 5.4h-64a38.81 38.81 0 0 1 -20-5.4 40.39 40.39 0 0 1 -14.6-14.6 38.81 38.81 0 0 1 -5.4-20v-48a38.81 38.81 0 0 1 5.4-20z"/><path d="m887 424.9a23.23 23.23 0 0 0 7-16.9v-16h-56v-16h72v32a38.81 38.81 0 0 1 -5.4 20 40.39 40.39 0 0 1 -14.6 14.6 38.81 38.81 0 0 1 -20 5.4h-64a38.81 38.81 0 0 1 -20-5.4 40.39 40.39 0 0 1 -14.6-14.6 38.81 38.81 0 0 1 -5.4-20v-48a38.81 38.81 0 0 1 5.4-20 40.39 40.39 0 0 1 14.6-14.6 38.81 38.81 0 0 1 20-5.4h64v16h-64a23.23 23.23 0 0 0 -16.9 7 23 23 0 0 0 -7.1 17v48a24.25 24.25 0 0 0 24 24h64a23 23 0 0 0 17-7.1z"/><path d="m702 320v16h-104v40h88v16h-88v56h-16v-128z"/><path d="m518 320v16h-104v40h88v16h-88v40h104v16h-120v-128z"/><path d="m314 325.4a40.39 40.39 0 0 1 14.6 14.6 38.81 38.81 0 0 1 5.4 20v48a38.81 38.81 0 0 1 -5.4 20 40.39 40.39 0 0 1 -14.6 14.6 38.81 38.81 0 0 1 -20 5.4h-104v-128h104a38.81 38.81 0 0 1 20 5.4zm-108 106.6h88a23 23 0 0 0 17-7.1 23.23 23.23 0 0 0 7-16.9v-48a23.9 23.9 0 0 0 -24-24h-88z"/><path d="m706 1632v88a24.25 24.25 0 0 0 24 24h64a23 23 0 0 0 17-7.1 23.23 23.23 0 0 0 7-16.9v-88h16v88a38.81 38.81 0 0 1 -5.4 20 40.39 40.39 0 0 1 -14.6 14.6 38.81 38.81 0 0 1 -20 5.4h-64a38.81 38.81 0 0 1 -20-5.4 40.39 40.39 0 0 1 -14.6-14.6 38.81 38.81 0 0 1 -5.4-20v-88zm34-32v16h-16v-16zm60 0v16h-16v-16z"/><path d="m606 1637.4a40.39 40.39 0 0 1 14.6 14.6 38.81 38.81 0 0 1 5.4 20v48a38.81 38.81 0 0 1 -5.4 20 40.39 40.39 0 0 1 -14.6 14.6 38.81 38.81 0 0 1 -20 5.4h-64a38.81 38.81 0 0 1 -20-5.4 40.39 40.39 0 0 1 -14.6-14.6 38.81 38.81 0 0 1 -5.4-20v-48a38.81 38.81 0 0 1 5.4-20 40.39 40.39 0 0 1 14.6-14.6 38.81 38.81 0 0 1 20-5.4h64a38.81 38.81 0 0 1 20 5.4zm-100.9 17.6a23 23 0 0 0 -7.1 17v48a24.25 24.25 0 0 0 24 24h64a23 23 0 0 0 17-7.1 23.23 23.23 0 0 0 7-16.9v-48a23.9 23.9 0 0 0 -24-24h-64a23.23 23.23 0 0 0 -16.9 7zm26.9-55v16h-16v-16zm60 0v16h-16v-16z"/><path d="m401 1760h17l-38-128h-76l-38 128h17l11.9-40h94.26zm-101.34-56 16.66-56h51.54l16.57 56z"/><path d="m436 1408 54.4 64h-20l-46-51.6-46.2 51.6h-20l54.6-64-54.4-64h20l46 51.6 45.8-51.6h20.2z"/><path d="m266.24 1344v112h-15.48l-42.52-71.6-42.52 71.6h-15.48v-112h-16v112 16h16 8 16l34-57.2 34 57.2h16 8 16v-16-112z"/><path d="m855.76 1456h110v16h-136v-16l110-96h-110v-16h136v16z"/><path d="m671.38 1414.8v57.2h-16v-57.2l-58-70.8h20l46 52.8 46-52.8h20z"/><path d="m1009 1088-33.32 112h-47.54l-33.14-112h-17l38 128h16 40 16l38-128z"/><path d="m686 1088v88a24.25 24.25 0 0 0 24 24h64a23 23 0 0 0 17-7.1 23.23 23.23 0 0 0 7-16.9v-88h16v88a38.81 38.81 0 0 1 -5.4 20 40.39 40.39 0 0 1 -14.6 14.6 38.81 38.81 0 0 1 -20 5.4h-64a38.81 38.81 0 0 1 -20-5.4 40.39 40.39 0 0 1 -14.6-14.6 38.81 38.81 0 0 1 -5.4-20v-88z"/><path d="m606 1104h-60v112h-16v-112h-60v-16h136z"/><path d="m384.1 1194.1a20 20 0 0 0 -14.1-34.1h-56a34.43 34.43 0 0 1 -18-4.9 37.36 37.36 0 0 1 -13.1-13.1 35.51 35.51 0 0 1 0-36 37.36 37.36 0 0 1 13.1-13.1 34.43 34.43 0 0 1 18-4.9h76v16h-76a20 20 0 0 0 0 40h56a34.43 34.43 0 0 1 18 4.9 37.36 37.36 0 0 1 13.1 13.1 35.51 35.51 0 0 1 0 36 37.36 37.36 0 0 1 -13.1 13.1 34.43 34.43 0 0 1 -18 4.9h-92v-16h92a19.24 19.24 0 0 0 14.1-5.9z"/><path d="m196 1092.9a37.36 37.36 0 0 1 13.1 13.1 35.51 35.51 0 0 1 0 36 37.36 37.36 0 0 1 -13.1 13.1 34.43 34.43 0 0 1 -18 4.9h-1.2l33.2 56h-18l-33.2-56h-68.8v56h-16v-128h104a34.43 34.43 0 0 1 18 4.9zm-3.9 45.2a20 20 0 0 0 -14.1-34.1h-88v40h88a19.24 19.24 0 0 0 14.1-5.9z"/><path d="m196.1 832h-8-16l-34 57.2-34-57.2h-16-8-16v16 112h16v-112h15.48l42.52 71.6 42.52-71.6h15.48v112h16v-112-16z"/><path d="m1035.9 960-9.67-16.28a43.61 43.61 0 0 0 2.47-3.72 38.81 38.81 0 0 0 5.4-20v-48a38.81 38.81 0 0 0 -5.4-20 40.39 40.39 0 0 0 -14.6-14.6 38.81 38.81 0 0 0 -20-5.4h-64a38.81 38.81 0 0 0 -20 5.4 40.39 40.39 0 0 0 -14.6 14.6 38.81 38.81 0 0 0 -5.4 20v48a38.81 38.81 0 0 0 5.4 20 40.39 40.39 0 0 0 14.6 14.6 38.81 38.81 0 0 0 20 5.4h64a38.81 38.81 0 0 0 20-5.4l.43-.27 3.37 5.67zm-24.8-105a23.13 23.13 0 0 1 7 17v48a23.81 23.81 0 0 1 -1.3 7.85l-47.45-79.85h24.75a23.13 23.13 0 0 1 17 7zm-17 89h-64a24.25 24.25 0 0 1 -24-24v-48a23 23 0 0 1 7.1-17 23.23 23.23 0 0 1 16.9-7h21.25l55 92.63a23 23 0 0 1 -12.25 3.37z"/><path d="m602.1 837.4a40.39 40.39 0 0 1 14.6 14.6 38.81 38.81 0 0 1 5.4 20v48a38.81 38.81 0 0 1 -5.4 20 40.39 40.39 0 0 1 -14.6 14.6 38.81 38.81 0 0 1 -20 5.4h-64a38.81 38.81 0 0 1 -20-5.4 40.39 40.39 0 0 1 -14.6-14.6 38.81 38.81 0 0 1 -5.4-20v-48a38.81 38.81 0 0 1 5.4-20 40.39 40.39 0 0 1 14.6-14.6 38.81 38.81 0 0 1 20-5.4h64a38.81 38.81 0 0 1 20 5.4zm-100.9 17.6a23 23 0 0 0 -7.1 17v48a24.25 24.25 0 0 0 24 24h64a23 23 0 0 0 17-7.1 23.23 23.23 0 0 0 7-16.9v-48a23.9 23.9 0 0 0 -24-24h-64a23.23 23.23 0 0 0 -16.9 7z"/><path d="m398.1 832v112h-15.48l-66.52-112h-16-8-16v16 112h16v-112h15.48l66.52 112h16 8 16v-16-112z"/><path d="m686.1 832h104a34.43 34.43 0 0 1 18 4.9 37.36 37.36 0 0 1 13.1 13.1 35.51 35.51 0 0 1 0 36 37.36 37.36 0 0 1 -13.1 13.1 34.43 34.43 0 0 1 -18 4.9h-88v56h-16zm118.1 50.1a20 20 0 0 0 -14.1-34.1h-88v40h88a19.24 19.24 0 0 0 14.1-5.9z"/><path d="m972.8 1944v16h-88v-16z"/><path d="m756.8 1998v20h-20v-20zm-1.8-94v74h-16v-90h16z"/><g opacity=".6"><path d="m888 578v112h48v12h-60v-124zm2-2h-16v128h64v-16h-48z"/><path d="m727.12 578-22.19 59.5-.34.9.49.82 37.4 62.78h-13.34l-32.62-55-.58-1h-23.94v56h-12v-124h12v56h23.23l.46-1.35 18.74-54.65zm2.88-2h-17l-19.2 56h-19.8v-56h-16v128h16v-56h20.8l33.2 56h18l-39.2-65.8z"/><path d="m592 578v86a37 37 0 0 1 -5.12 19 38.69 38.69 0 0 1 -13.88 13.88 37 37 0 0 1 -17 5.12v-12a25.92 25.92 0 0 0 24-26v-74h-48v-12zm2-2h-64v16h48v72a23.9 23.9 0 0 1 -24 24v16a38.81 38.81 0 0 0 20-5.4 40.39 40.39 0 0 0 14.6-14.6 38.81 38.81 0 0 0 5.4-20z"/><path d="m376 578v124h-12v-124zm2-2h-16v128h16z"/><path d="m232 578v124h-12v-56h-44v56h-12v-124h12v56h44v-56zm2-2h-16v56h-40v-56h-16v128h16v-56h40v56h16z"/><path d="m344.51 66 36.81 124h-12.83l-11.44-38.57-.43-1.43h-37.28l-.42 1.43-11.41 38.57h-12.83l36.81-124h13m-21.62 72h30.17l-.76-2.57-12.41-41.85-1.87-6.47-2 6.47-12.39 41.85-.76 2.57m23.15-74h-16l-38 128h17l11.84-40h34.29l11.87 40h17zm-20.43 72 12.43-41.86 12.38 41.86z"/><path d="m506 66a32.58 32.58 0 0 1 17 4.62 35.51 35.51 0 0 1 12.38 12.38 32.64 32.64 0 0 1 4.62 17 34.24 34.24 0 0 1 -2.46 12.76 31.46 31.46 0 0 1 -6.95 10.63l-1.84 1.83 2.24 1.31a34.38 34.38 0 0 1 12.39 12.39 33.19 33.19 0 0 1 4.62 17.08 32.52 32.52 0 0 1 -4.62 17 35.46 35.46 0 0 1 -12.38 12.38 32.52 32.52 0 0 1 -17 4.62h-34v-124zm-14 56h14a21.94 21.94 0 0 0 15.51-37.52 21.26 21.26 0 0 0 -15.51-6.48h-14zm0 56h22a22 22 0 0 0 0-44h-22zm14-114h-28v128h36a34.43 34.43 0 0 0 18-4.9 37.36 37.36 0 0 0 13.1-13.1 34.43 34.43 0 0 0 4.9-18 34.93 34.93 0 0 0 -4.9-18.1 36.32 36.32 0 0 0 -13.1-13.1 33.24 33.24 0 0 0 7.4-11.3 36.07 36.07 0 0 0 2.6-13.5 34.43 34.43 0 0 0 -4.9-18 37.36 37.36 0 0 0 -13.1-13.1 34.43 34.43 0 0 0 -18-4.9zm-12 56v-40h12a19.94 19.94 0 0 1 14.1 34.1 19.24 19.24 0 0 1 -14.1 5.9zm0 56v-40h20a20 20 0 0 1 0 40z"/><path d="m734.2 66a37.06 37.06 0 0 1 19 5.12 38.58 38.58 0 0 1 13.87 13.88 36.87 36.87 0 0 1 5.08 17h-12a25.9 25.9 0 0 0 -25.95-24h-.2a25.24 25.24 0 0 0 -18.3 7.58 25 25 0 0 0 -7.7 18.42v48a25.22 25.22 0 0 0 3.58 13 26.3 26.3 0 0 0 9.51 9.52 25.37 25.37 0 0 0 12.91 3.48h2a26.26 26.26 0 0 0 26.2-26v-6h12v6a36.92 36.92 0 0 1 -5.13 19 38.26 38.26 0 0 1 -14 13.88 37.62 37.62 0 0 1 -19.07 5.12h-2a36.92 36.92 0 0 1 -19-5.13 38.58 38.58 0 0 1 -13.88-13.87 37 37 0 0 1 -5.12-19v-48a37 37 0 0 1 5.12-19 38.69 38.69 0 0 1 13.88-13.88 37 37 0 0 1 19-5.12zm0-2h-.2a38.81 38.81 0 0 0 -20 5.4 40.39 40.39 0 0 0 -14.6 14.6 38.81 38.81 0 0 0 -5.4 20v48a38.81 38.81 0 0 0 5.4 20 40.39 40.39 0 0 0 14.6 14.6 38.81 38.81 0 0 0 20 5.4h2a39.35 39.35 0 0 0 20.1-5.4 40.13 40.13 0 0 0 14.7-14.6 38.81 38.81 0 0 0 5.4-20v-8h-16v8a24.24 24.24 0 0 1 -24.2 24h-2a23.29 23.29 0 0 1 -11.9-3.2 24.19 24.19 0 0 1 -8.8-8.8 23.22 23.22 0 0 1 -3.3-12v-48a23 23 0 0 1 7.1-17 23.23 23.23 0 0 1 16.9-7h.2a23.9 23.9 0 0 1 24 24h16a38.81 38.81 0 0 0 -5.4-20 40.39 40.39 0 0 0 -14.6-14.6 38.81 38.81 0 0 0 -20-5.4z"/><path d="m804.2 322v12a26.1 26.1 0 0 0 -24.2 26v48a26.24 26.24 0 0 0 26 26h.2a25 25 0 0 0 18.42-7.7 25.24 25.24 0 0 0 7.58-18.3v-18h-24.2v-12h36.2v30a36.92 36.92 0 0 1 -5.13 19 38.48 38.48 0 0 1 -13.88 13.88 37 37 0 0 1 -19 5.13h-.19a36.92 36.92 0 0 1 -19-5.13 38.58 38.58 0 0 1 -13.88-13.88 37 37 0 0 1 -5.12-19v-48a37 37 0 0 1 5.12-19 38.69 38.69 0 0 1 13.88-13.88 37 37 0 0 1 17.2-5.12m2-2h-.2a38.81 38.81 0 0 0 -20 5.4 40.39 40.39 0 0 0 -14.6 14.6 38.81 38.81 0 0 0 -5.4 20v48a38.81 38.81 0 0 0 5.4 20 40.39 40.39 0 0 0 14.6 14.6 38.81 38.81 0 0 0 20 5.4h.2a38.81 38.81 0 0 0 20-5.4 40.39 40.39 0 0 0 14.6-14.6 38.81 38.81 0 0 0 5.4-20v-32h-40.2v16h24.2v16a23.23 23.23 0 0 1 -7 16.9 23 23 0 0 1 -17 7.1h-.2a24.25 24.25 0 0 1 -24-24v-48a23 23 0 0 1 7.1-17 23.23 23.23 0 0 1 16.9-7h.2z"/><path d="m652 322v12h-56v44h40v12h-40v56h-12v-124zm2-2h-72v128h16v-56h40v-16h-40v-40h56z"/><path d="m468 322v12h-56v44h40v12h-40v44h56v12h-68v-124zm2-2h-72v128h72v-16h-56v-40h40v-16h-40v-40h56z"/><path d="m230 322a37 37 0 0 1 19 5.12 38.69 38.69 0 0 1 13.88 13.88 37 37 0 0 1 5.12 19v48a37 37 0 0 1 -5.12 19 38.58 38.58 0 0 1 -13.88 13.87 36.94 36.94 0 0 1 -19 5.13h-38v-124zm-26 112h26a25 25 0 0 0 18.42-7.7 25.24 25.24 0 0 0 7.58-18.3v-48a25.9 25.9 0 0 0 -26-26h-26zm26-114h-40v128h40a38.81 38.81 0 0 0 20-5.4 40.39 40.39 0 0 0 14.6-14.6 38.81 38.81 0 0 0 5.4-20v-48a38.81 38.81 0 0 0 -5.4-20 40.39 40.39 0 0 0 -14.6-14.6 38.81 38.81 0 0 0 -20-5.4zm-24 112v-96h24a23.9 23.9 0 0 1 24 24v48a23.23 23.23 0 0 1 -7 16.9 23 23 0 0 1 -17 7.1z"/><path d="m784.1 1602v12h-12v-12zm-32.2 0v12h-12v-12zm48.2 32v86a37 37 0 0 1 -5.12 19 38.84 38.84 0 0 1 -13.8 13.89 36.86 36.86 0 0 1 -19.08 5.11h-.2a37 37 0 0 1 -19-5.12 38.61 38.61 0 0 1 -13.9-13.88 37 37 0 0 1 -5.12-19v-86h12v86a26.26 26.26 0 0 0 26 26h.2a25.91 25.91 0 0 0 26-26v-86h12m-14-34h-16v16h16zm-32.2 0h-16v16h16zm48.2 32h-16v88a23.9 23.9 0 0 1 -24 24h-.2a24.25 24.25 0 0 1 -24-24v-88h-16v88a38.81 38.81 0 0 0 5.4 20 40.39 40.39 0 0 0 14.6 14.6 38.81 38.81 0 0 0 20 5.4h.2a38.67 38.67 0 0 0 20.1-5.4 40.58 40.58 0 0 0 14.5-14.6 38.81 38.81 0 0 0 5.4-20z"/><path d="m576 1602v12h-12v-12zm-32 0v12h-12v-12zm10.2 32a37 37 0 0 1 19 5.13 38.48 38.48 0 0 1 13.87 13.87 37 37 0 0 1 5.13 19v48a36.92 36.92 0 0 1 -5.13 19 38.58 38.58 0 0 1 -13.88 13.89 37.06 37.06 0 0 1 -19 5.12h-.19a37 37 0 0 1 -19-5.12 38.61 38.61 0 0 1 -13.88-13.89 37 37 0 0 1 -5.12-19v-48a37.06 37.06 0 0 1 5.12-19 38.58 38.58 0 0 1 13.88-13.87 36.92 36.92 0 0 1 19-5.13zm-.2 112h.2a25 25 0 0 0 18.42-7.7 25.24 25.24 0 0 0 7.58-18.3v-48a25.91 25.91 0 0 0 -26-26h-.2a25.24 25.24 0 0 0 -18.3 7.58 25 25 0 0 0 -7.7 18.42v48a26.24 26.24 0 0 0 26 26m24-146h-16v16h16zm-32 0h-16v16h16zm8.2 32h-.2a38.81 38.81 0 0 0 -20 5.4 40.39 40.39 0 0 0 -14.6 14.6 38.81 38.81 0 0 0 -5.4 20v48a38.81 38.81 0 0 0 5.4 20 40.39 40.39 0 0 0 14.6 14.6 38.81 38.81 0 0 0 20 5.4h.2a38.81 38.81 0 0 0 20-5.4 40.39 40.39 0 0 0 14.6-14.6 38.81 38.81 0 0 0 5.4-20v-48a38.81 38.81 0 0 0 -5.4-20 40.39 40.39 0 0 0 -14.6-14.6 38.81 38.81 0 0 0 -20-5.4zm-.2 112a24.25 24.25 0 0 1 -24-24v-48a24.07 24.07 0 0 1 24-24h.2a23.9 23.9 0 0 1 24 24v48a23.23 23.23 0 0 1 -7 16.9 23 23 0 0 1 -17 7.1z"/><path d="m364 1602v12h-12v-12zm2-2h-16v16h16z"/><path d="m348.51 1634 36.81 124h-12.83l-11.43-38.57-.42-1.43h-37.3l-.42 1.43-11.41 38.57h-12.83l36.81-124h13m-21.62 72h30.19l-.76-2.57-12.4-41.93-1.9-6.5-1.92 6.48-12.41 41.93-.76 2.57m23.09-73.98h-16l-38 128h17l11.84-40h34.31l11.85 40h17zm-20.43 72 12.43-41.93 12.41 41.93z"/><path d="m332 1602v12h-12v-12zm2-2h-16v16h16z"/><path d="m464.09 1346-30.93 61.1-.46.9.46.9 30.93 61.1h-13.55l-24.43-45.74-1.77-3.3-1.76 3.3-24.44 45.74h-13.54l30.93-61.1.45-.9-.45-.9-30.93-61.1h13.54l24.44 45.74 1.76 3.31 1.77-3.31 24.43-45.74zm3.25-2h-18l-25 46.8-25-46.8h-18l32.4 64-32.4 64h18l25-46.8 25 46.8h18l-32.4-64z"/><path d="m252.24 1346v108h-3.24l-8.72-16.42v-91.58h12m-76 0v91.58l-8.76 16.42h-3.28v-108h12m32 39.86 28 52.72v25.42l-26.24-49.34-1.77-3.32-1.77 3.32-26.22 49.34v-25.4l28-52.72m38.32 72.12 5.68 10.7v1.3h-12v-12zm-70.32 0v12h-12v-1.3l5.68-10.7zm78-114h-16v94.08l9.52 17.92h6.48zm-76 0h-16v112h6.48l9.52-17.92zm30 37.6-30 56.48v33.92l30-56.4 30 56.4v-33.92zm39.52 74.4h-9.52v16h16v-3.8zm-69.52 0h-9.52l-6.48 12.2v3.8h16zm-16 0v16z"/><path d="m963.76 1346v13.48l-53 95.55-1.64 3h54.59v12h-68v-13.48l53-95.55 1.64-3h-54.59v-12zm2-2h-72v16h53.24l-53.2 96v16h72v-16h-53.2l53.2-96v-16z"/><path d="m703.7 1346-34.22 71.13-.2.41v52.46h-12v-52.45l-.19-.41-34-71.14h12.58l25.85 52.68 1.79 3.65 1.8-3.64 26-52.69zm3.18-2h-17l-26.6 53.8-26.4-53.8h-17l35.4 74v54h16v-54z"/><path d="m995.32 1090-36.81 124h-13l-.11-.38-36.72-123.62h12.83l28.49 96.32 1.92 6.46 1.92-6.46 28.65-96.32zm2.68-2h-17l-29.08 97.75-28.92-97.75h-17l37.46 126.19-.06.21.6 1.6h16z"/><path d="m780.1 1090v86a36.92 36.92 0 0 1 -5.13 19 38.73 38.73 0 0 1 -13.79 13.89 36.86 36.86 0 0 1 -19.08 5.11h-.2a37 37 0 0 1 -19-5.12 38.61 38.61 0 0 1 -13.9-13.88 37 37 0 0 1 -5.12-19v-86h12v86a26.26 26.26 0 0 0 26 26h.2a25.91 25.91 0 0 0 26-26v-86h12m2-2h-16v88a23.9 23.9 0 0 1 -24 24h-.2a24.25 24.25 0 0 1 -24-24v-88h-16v88a38.81 38.81 0 0 0 5.4 20 40.39 40.39 0 0 0 14.6 14.6 38.81 38.81 0 0 0 20 5.4h.2a38.67 38.67 0 0 0 20.1-5.4 40.58 40.58 0 0 0 14.5-14.6 38.81 38.81 0 0 0 5.4-20z"/><path d="m572 1090v12h-28v112h-12v-112h-28v-12zm2-2h-72v16h28v112h16v-112h28z"/><path d="m336 1090v12h-22a22 22 0 0 0 0 44h8a32.58 32.58 0 0 1 17 4.62 35.51 35.51 0 0 1 12.41 12.4 33.5 33.5 0 0 1 0 34 35.46 35.46 0 0 1 -12.41 12.36 32.52 32.52 0 0 1 -17 4.62h-42v-12h42a22 22 0 0 0 0-44h-8a32.52 32.52 0 0 1 -17-4.62 35.46 35.46 0 0 1 -12.38-12.38 33.48 33.48 0 0 1 0-33.94 35.46 35.46 0 0 1 12.38-12.44 32.52 32.52 0 0 1 17-4.62zm2-2h-24a34.43 34.43 0 0 0 -18 4.9 37.36 37.36 0 0 0 -13.1 13.1 35.51 35.51 0 0 0 0 36 37.36 37.36 0 0 0 13.1 13.1 34.43 34.43 0 0 0 18 4.9h8a20 20 0 0 1 0 40h-44v16h44a34.43 34.43 0 0 0 18-4.9 37.36 37.36 0 0 0 13.1-13.1 35.51 35.51 0 0 0 0-36 37.36 37.36 0 0 0 -13.1-13.1 34.43 34.43 0 0 0 -18-4.9h-8a20 20 0 0 1 0-40h24z"/><path d="m114 1090a32.58 32.58 0 0 1 17 4.62 35.51 35.51 0 0 1 12.41 12.4 32.64 32.64 0 0 1 4.62 17 33.7 33.7 0 0 1 -2.64 13.22 35.06 35.06 0 0 1 -7.47 11.07 32.26 32.26 0 0 1 -11 7.25l-1.71.67.52 1.76 16.64 56h-12.88l-16.17-54.57-.43-1.43h-24.89v56h-12v-123.99zm-26 56h26a22 22 0 0 0 0-44h-26zm26-58h-40v128h16v-56h21.4l16.6 56h17l-17.4-58.6a34 34 0 0 0 11.7-7.7 36.69 36.69 0 0 0 7.9-11.7 35.43 35.43 0 0 0 2.8-14 34.43 34.43 0 0 0 -4.9-18 37.36 37.36 0 0 0 -13.1-13.1 34.43 34.43 0 0 0 -18-4.9zm-24 56v-40h24a20 20 0 0 1 0 40z"/><path d="m182.1 834v124h-12v-100.11l-3.77 7.11-28.23 53.14-28.23-53.14-3.77-7.09v100.09h-12v-124h12.8l29.43 55.34 1.77 3.32 1.77-3.32 29.43-55.34zm2-2h-16l-30 56.4-30-56.4h-16v128h16v-94.08l30 56.48 30-56.48v94.08h16z"/><path d="m994.1 834a37 37 0 0 1 19 5.12 38.69 38.69 0 0 1 13.9 13.88 37 37 0 0 1 5.12 19v48a37 37 0 0 1 -5.12 19 41 41 0 0 1 -2.36 3.54l-.79 1.07.68 1.14 7.88 13.26h-13.41l-2.79-4.69-1-1.74-1.73 1-.25.16-.16.11a37.06 37.06 0 0 1 -19 5.12h-.2a37 37 0 0 1 -19-5.12 38.69 38.69 0 0 1 -13.87-13.85 37 37 0 0 1 -5.12-19v-48a37 37 0 0 1 5.12-19 38.69 38.69 0 0 1 13.89-13.89 37 37 0 0 1 19-5.12h.2m23.19 98.58 1.4-4.07a25.88 25.88 0 0 0 1.41-8.51v-47.99a25.9 25.9 0 0 0 -26-26h-.2a25.24 25.24 0 0 0 -18.3 7.58 25.52 25.52 0 0 0 -2.25 2.53l-.86 1.08.7 1.18 41.89 70.51 2.21 3.7m-23.38 13.42h.2a25.16 25.16 0 0 0 13.35-3.67l1.68-1-1-1.7-36.51-61.52-3.72-6.27v48.16a26.26 26.26 0 0 0 26 26m.2-114h-.2a38.81 38.81 0 0 0 -20 5.4 40.39 40.39 0 0 0 -14.6 14.6 38.81 38.81 0 0 0 -5.4 20v48a38.81 38.81 0 0 0 5.4 20 40.39 40.39 0 0 0 14.6 14.6 38.81 38.81 0 0 0 20 5.4h.2a38.81 38.81 0 0 0 20-5.4l.43-.27 3.37 5.67h18l-9.67-16.28a43.61 43.61 0 0 0 2.47-3.72 38.81 38.81 0 0 0 5.4-20v-48a38.81 38.81 0 0 0 -5.4-20 40.39 40.39 0 0 0 -14.6-14.6 38.81 38.81 0 0 0 -20-5.4zm22.7 95.85-41.89-70.5a24.09 24.09 0 0 1 2.09-2.35 23.23 23.23 0 0 1 16.9-7h.2a23.9 23.9 0 0 1 24 24v48a23.81 23.81 0 0 1 -1.3 7.85zm-22.9 16.15a24.25 24.25 0 0 1 -24-24v-40.9l36.51 61.53a23.08 23.08 0 0 1 -12.31 3.37z"/><path d="m550.2 834a37.06 37.06 0 0 1 19 5.12 38.69 38.69 0 0 1 13.88 13.88 37 37 0 0 1 5.12 19v48a37 37 0 0 1 -5.12 19 38.58 38.58 0 0 1 -13.89 13.88 36.94 36.94 0 0 1 -19 5.13h-.19a36.92 36.92 0 0 1 -19-5.13 38.5 38.5 0 0 1 -13.88-13.88 37 37 0 0 1 -5.12-19v-48a37 37 0 0 1 5.12-19 38.69 38.69 0 0 1 13.88-13.88 37 37 0 0 1 19-5.12zm-.2 112h.2a25 25 0 0 0 18.42-7.7 25.24 25.24 0 0 0 7.58-18.3v-48a25.9 25.9 0 0 0 -26-26h-.2a25.24 25.24 0 0 0 -18.3 7.58 25 25 0 0 0 -7.7 18.42v48a26.26 26.26 0 0 0 26 26m.2-114h-.2a38.81 38.81 0 0 0 -20 5.4 40.39 40.39 0 0 0 -14.6 14.6 38.81 38.81 0 0 0 -5.4 20v48a38.81 38.81 0 0 0 5.4 20 40.39 40.39 0 0 0 14.6 14.6 38.81 38.81 0 0 0 20 5.4h.2a38.81 38.81 0 0 0 20-5.4 40.39 40.39 0 0 0 14.6-14.6 38.81 38.81 0 0 0 5.4-20v-48a38.81 38.81 0 0 0 -5.4-20 40.39 40.39 0 0 0 -14.6-14.6 38.81 38.81 0 0 0 -20-5.4zm-.2 112a24.25 24.25 0 0 1 -24-24v-48a23 23 0 0 1 7.1-17 23.23 23.23 0 0 1 16.9-7h.2a23.9 23.9 0 0 1 24 24v48a23.23 23.23 0 0 1 -7 16.9 23 23 0 0 1 -17 7.1z"/><path d="m356.1 834v124h-12.8l-49.43-93.33-3.77-7.11v100.44h-12v-124h12.8l49.43 93.33 3.77 7.11v-100.44zm2-2h-16v94.39l-50-94.39h-16v128h16v-94.39l50 94.39h16z"/><path d="m726.3 834a32.58 32.58 0 0 1 17 4.62 35.51 35.51 0 0 1 12.38 12.38 33.5 33.5 0 0 1 0 34 35.46 35.46 0 0 1 -12.41 12.41 32.52 32.52 0 0 1 -17 4.62h-26.17v56h-12v-124.03zm-26.2 56h26.2a22 22 0 0 0 0-44h-26.2zm26.2-58h-40.2v128h16v-56h24.2a34.43 34.43 0 0 0 18-4.9 37.36 37.36 0 0 0 13.1-13.1 35.51 35.51 0 0 0 0-36 37.36 37.36 0 0 0 -13.1-13.1 34.43 34.43 0 0 0 -18-4.9zm-24.2 56v-40h24.2a20 20 0 0 1 0 40z"/><path d="m954.8 1946v12h-52v-12zm2-2h-56v16h56z"/><path d="m753 1890v82h-12v-82zm1.8 110v16h-16v-16zm.2-112h-16v86h16zm1.8 110h-20v20h20z"/></g><path d="m364 1600h16v16h-16z"/><path d="m304 1600h16v16h-16z"/><path d="m295.2 1942v20h-20v-20zm0 56v20h-20v-20z"/><path d="m147.2 1996v20h-20v-20z"/><path d="m597 2036h-17l12-40h16.8zm11.8-92v16h-16v-16z"/><path d="m440.2 2036h-17l12-40h16.8z"/></g></svg>