<svg id="Ebene_1" data-name="Ebene 1" xmlns="http://www.w3.org/2000/svg" viewBox="0 0 1100 2100"><defs><style>.cls-1{fill:#fff;}.cls-2{opacity:0.6;}</style></defs><path class="cls-1" d="M890,576V688h80v16H874V576Z"/><path class="cls-1" d="M674,576v56h64.8L772,576h18l-38,64,58,64H790l-50.8-56H674v56H658V576Z"/><path class="cls-1" d="M594,576v88a38.81,38.81,0,0,1-5.4,20A40.39,40.39,0,0,1,574,698.6a38.81,38.81,0,0,1-20,5.4H490V688h64a23.31,23.31,0,0,0,17.1-7.1A22.41,22.41,0,0,0,578,664V592H474V576Z"/><path class="cls-1" d="M410,592H378v96h32v16H330V688h32V592H330V576h80Z"/><path class="cls-1" d="M146,576v56H250V576h16V704H250V648H146v56H130V576Z"/><path class="cls-1" d="M397,192h17L376,64H300L262,192h17l11.9-40h94.26ZM295.66,136l16.66-56h51.54l16.57,56Z"/><path class="cls-1" d="M596,68.9A37.36,37.36,0,0,1,609.1,82a34.43,34.43,0,0,1,4.9,18,34.9,34.9,0,0,1-2,11.8,39.19,39.19,0,0,1-5.6,10.4,35.32,35.32,0,0,1,17,13.1A34.94,34.94,0,0,1,630,156a34.43,34.43,0,0,1-4.9,18A37.36,37.36,0,0,1,612,187.1a34.43,34.43,0,0,1-18,4.9H478V64H578A34.43,34.43,0,0,1,596,68.9ZM494,120h84a19.24,19.24,0,0,0,14.1-5.9A19.48,19.48,0,0,0,598,99.8a19.24,19.24,0,0,0-5.9-14.1A18.57,18.57,0,0,0,578,80H494Zm0,56H594a20,20,0,0,0,0-40H494Z"/><path class="cls-1" d="M699.4,84A40.39,40.39,0,0,1,714,69.4,38.81,38.81,0,0,1,734,64h62a38.81,38.81,0,0,1,20,5.4A40.39,40.39,0,0,1,830.6,84a38.81,38.81,0,0,1,5.4,20H820a23.9,23.9,0,0,0-24-24H734a23.23,23.23,0,0,0-16.9,7,23,23,0,0,0-7.1,17v48a23.81,23.81,0,0,0,3.2,12,23.24,23.24,0,0,0,8.8,8.8,23.81,23.81,0,0,0,12,3.2h64a23,23,0,0,0,17-7.1,23.23,23.23,0,0,0,7-16.9v-8h16v8a38.81,38.81,0,0,1-5.4,20A40.39,40.39,0,0,1,818,186.6a38.81,38.81,0,0,1-20,5.4H734a38.81,38.81,0,0,1-20-5.4A40.39,40.39,0,0,1,699.4,172a38.81,38.81,0,0,1-5.4-20V104A38.81,38.81,0,0,1,699.4,84Z"/><path class="cls-1" d="M887,424.9a23.23,23.23,0,0,0,7-16.9V392H838V376h72v32a38.81,38.81,0,0,1-5.4,20A40.39,40.39,0,0,1,890,442.6a38.81,38.81,0,0,1-20,5.4H806a38.81,38.81,0,0,1-20-5.4A40.39,40.39,0,0,1,771.4,428a38.81,38.81,0,0,1-5.4-20V360a38.81,38.81,0,0,1,5.4-20A40.39,40.39,0,0,1,786,325.4a38.81,38.81,0,0,1,20-5.4h64v16H806a23.23,23.23,0,0,0-16.9,7,23,23,0,0,0-7.1,17v48a24.25,24.25,0,0,0,24,24h64A23,23,0,0,0,887,424.9Z"/><path class="cls-1" d="M702,320v16H598v40h88v16H598v56H582V320Z"/><path class="cls-1" d="M518,320v16H414v40h88v16H414v40H518v16H398V320Z"/><path class="cls-1" d="M314,325.4A40.39,40.39,0,0,1,328.6,340a38.81,38.81,0,0,1,5.4,20v48a38.81,38.81,0,0,1-5.4,20A40.39,40.39,0,0,1,314,442.6a38.81,38.81,0,0,1-20,5.4H190V320H294A38.81,38.81,0,0,1,314,325.4ZM206,432h88a23,23,0,0,0,17-7.1,23.23,23.23,0,0,0,7-16.9V360a23.9,23.9,0,0,0-24-24H206Z"/><path class="cls-1" d="M706,1632v88a24.25,24.25,0,0,0,24,24h64a23,23,0,0,0,17-7.1,23.23,23.23,0,0,0,7-16.9v-88h16v88a38.81,38.81,0,0,1-5.4,20,40.39,40.39,0,0,1-14.6,14.6,38.81,38.81,0,0,1-20,5.4H730a38.81,38.81,0,0,1-20-5.4,40.39,40.39,0,0,1-14.6-14.6,38.81,38.81,0,0,1-5.4-20v-88Zm34-32v16H724v-16Zm60,0v16H784v-16Z"/><path class="cls-1" d="M606,1637.4a40.39,40.39,0,0,1,14.6,14.6,38.81,38.81,0,0,1,5.4,20v48a38.81,38.81,0,0,1-5.4,20,40.39,40.39,0,0,1-14.6,14.6,38.81,38.81,0,0,1-20,5.4H522a38.81,38.81,0,0,1-20-5.4,40.39,40.39,0,0,1-14.6-14.6,38.81,38.81,0,0,1-5.4-20v-48a38.81,38.81,0,0,1,5.4-20,40.39,40.39,0,0,1,14.6-14.6,38.81,38.81,0,0,1,20-5.4h64A38.81,38.81,0,0,1,606,1637.4ZM505.1,1655a23,23,0,0,0-7.1,17v48a24.25,24.25,0,0,0,24,24h64a23,23,0,0,0,17-7.1,23.23,23.23,0,0,0,7-16.9v-48a23.9,23.9,0,0,0-24-24H522A23.23,23.23,0,0,0,505.1,1655Zm26.9-55v16H516v-16Zm60,0v16H576v-16Z"/><path class="cls-1" d="M401,1760h17l-38-128H304l-38,128h17l11.9-40h94.26Zm-101.34-56,16.66-56h51.54l16.57,56Z"/><path class="cls-1" d="M436,1408l54.4,64h-20l-46-51.6-46.2,51.6h-20l54.6-64-54.4-64h20l46,51.6,45.8-51.6h20.2Z"/><polygon class="cls-1" points="266.24 1344 266.24 1456 250.76 1456 208.24 1384.4 165.72 1456 150.24 1456 150.24 1344 134.24 1344 134.24 1456 134.24 1472 150.24 1472 158.24 1472 174.24 1472 208.24 1414.8 242.24 1472 258.24 1472 266.24 1472 282.24 1472 282.24 1456 282.24 1344 266.24 1344"/><path class="cls-1" d="M855.76,1456h110v16h-136v-16l110-96h-110v-16h136v16Z"/><path class="cls-1" d="M671.38,1414.8V1472h-16v-57.2l-58-70.8h20l46,52.8,46-52.8h20Z"/><polygon class="cls-1" points="1009 1088 975.68 1200 928.14 1200 895 1088 878 1088 916 1216 932 1216 972 1216 988 1216 1026 1088 1009 1088"/><path class="cls-1" d="M686,1088v88a24.25,24.25,0,0,0,24,24h64a23,23,0,0,0,17-7.1,23.23,23.23,0,0,0,7-16.9v-88h16v88a38.81,38.81,0,0,1-5.4,20,40.39,40.39,0,0,1-14.6,14.6,38.81,38.81,0,0,1-20,5.4H710a38.81,38.81,0,0,1-20-5.4,40.39,40.39,0,0,1-14.6-14.6,38.81,38.81,0,0,1-5.4-20v-88Z"/><path class="cls-1" d="M606,1104H546v112H530V1104H470v-16H606Z"/><path class="cls-1" d="M384.1,1194.1A20,20,0,0,0,370,1160H314a34.43,34.43,0,0,1-18-4.9,37.36,37.36,0,0,1-13.1-13.1,35.51,35.51,0,0,1,0-36,37.36,37.36,0,0,1,13.1-13.1,34.43,34.43,0,0,1,18-4.9h76v16H314a20,20,0,0,0,0,40h56a34.43,34.43,0,0,1,18,4.9,37.36,37.36,0,0,1,13.1,13.1,35.51,35.51,0,0,1,0,36,37.36,37.36,0,0,1-13.1,13.1,34.43,34.43,0,0,1-18,4.9H278v-16h92A19.24,19.24,0,0,0,384.1,1194.1Z"/><path class="cls-1" d="M196,1092.9a37.36,37.36,0,0,1,13.1,13.1,35.51,35.51,0,0,1,0,36,37.36,37.36,0,0,1-13.1,13.1,34.43,34.43,0,0,1-18,4.9h-1.2l33.2,56H192l-33.2-56H90v56H74V1088H178A34.43,34.43,0,0,1,196,1092.9Zm-3.9,45.2A20,20,0,0,0,178,1104H90v40h88A19.24,19.24,0,0,0,192.1,1138.1Z"/><polygon class="cls-1" points="196.1 832 188.1 832 172.1 832 138.1 889.2 104.1 832 88.1 832 80.1 832 64.1 832 64.1 848 64.1 960 80.1 960 80.1 848 95.58 848 138.1 919.6 180.62 848 196.1 848 196.1 960 212.1 960 212.1 848 212.1 832 196.1 832"/><path class="cls-1" d="M1035.9,960l-9.67-16.28a43.61,43.61,0,0,0,2.47-3.72,38.81,38.81,0,0,0,5.4-20V872a38.81,38.81,0,0,0-5.4-20,40.39,40.39,0,0,0-14.6-14.6,38.81,38.81,0,0,0-20-5.4h-64a38.81,38.81,0,0,0-20,5.4A40.39,40.39,0,0,0,895.5,852a38.81,38.81,0,0,0-5.4,20v48a38.81,38.81,0,0,0,5.4,20,40.39,40.39,0,0,0,14.6,14.6,38.81,38.81,0,0,0,20,5.4h64a38.81,38.81,0,0,0,20-5.4l.43-.27,3.37,5.67Zm-24.8-105a23.13,23.13,0,0,1,7,17v48a23.81,23.81,0,0,1-1.3,7.85L969.35,848H994.1A23.13,23.13,0,0,1,1011.1,855Zm-17,89h-64a24.25,24.25,0,0,1-24-24V872a23,23,0,0,1,7.1-17,23.23,23.23,0,0,1,16.9-7h21.25l55,92.63A23,23,0,0,1,994.1,944Z"/><path class="cls-1" d="M602.1,837.4A40.39,40.39,0,0,1,616.7,852a38.81,38.81,0,0,1,5.4,20v48a38.81,38.81,0,0,1-5.4,20,40.39,40.39,0,0,1-14.6,14.6,38.81,38.81,0,0,1-20,5.4h-64a38.81,38.81,0,0,1-20-5.4A40.39,40.39,0,0,1,483.5,940a38.81,38.81,0,0,1-5.4-20V872a38.81,38.81,0,0,1,5.4-20,40.39,40.39,0,0,1,14.6-14.6,38.81,38.81,0,0,1,20-5.4h64A38.81,38.81,0,0,1,602.1,837.4ZM501.2,855a23,23,0,0,0-7.1,17v48a24.25,24.25,0,0,0,24,24h64a23,23,0,0,0,17-7.1,23.23,23.23,0,0,0,7-16.9V872a23.9,23.9,0,0,0-24-24h-64A23.23,23.23,0,0,0,501.2,855Z"/><polygon class="cls-1" points="398.1 832 398.1 944 382.62 944 316.1 832 300.1 832 292.1 832 276.1 832 276.1 848 276.1 960 292.1 960 292.1 848 307.58 848 374.1 960 390.1 960 398.1 960 414.1 960 414.1 944 414.1 832 398.1 832"/><path class="cls-1" d="M686.1,832h104a34.43,34.43,0,0,1,18,4.9A37.36,37.36,0,0,1,821.2,850a35.51,35.51,0,0,1,0,36,37.36,37.36,0,0,1-13.1,13.1,34.43,34.43,0,0,1-18,4.9h-88v56h-16Zm118.1,50.1A20,20,0,0,0,790.1,848h-88v40h88A19.24,19.24,0,0,0,804.2,882.1Z"/><path class="cls-1" d="M972.8,1944v16h-88v-16Z"/><path class="cls-1" d="M756.8,1998v20h-20v-20Zm-1.8-94v74H739v-90h16Z"/><g class="cls-2"><path class="cls-1" d="M888,578V690h48v12H876V578h12m2-2H874V704h64V688H890V576Z"/><path class="cls-1" d="M727.12,578l-22.19,59.5-.34.9.49.82L742.48,702H729.14l-32.62-55-.58-1H672v56H660V578h12v56h23.23l.46-1.35L714.43,578h12.69m2.88-2H713l-19.2,56H674V576H658V704h16V648h20.8L728,704h18l-39.2-65.8L730,576Z"/><path class="cls-1" d="M592,578v86a37,37,0,0,1-5.12,19A38.69,38.69,0,0,1,573,696.88,37,37,0,0,1,556,702v-12A25.92,25.92,0,0,0,580,664V590H532V578h60m2-2H530v16h48v72a23.9,23.9,0,0,1-24,24v16a38.81,38.81,0,0,0,20-5.4A40.39,40.39,0,0,0,588.6,684a38.81,38.81,0,0,0,5.4-20V576Z"/><path class="cls-1" d="M376,578V702H364V578h12m2-2H362V704h16V576Z"/><path class="cls-1" d="M232,578V702H220V646H176v56H164V578h12v56h44V578h12m2-2H218v56H178V576H162V704h16V648h40v56h16V576Z"/><path class="cls-1" d="M344.51,66l36.81,124H368.49l-11.44-38.57-.43-1.43H319.34l-.42,1.43L307.51,190H294.68L331.49,66h13m-21.62,72h30.17l-.76-2.57L339.87,93.58,338,87.11,336,93.58l-12.39,41.85-.76,2.57M346,64H330L292,192h17l11.84-40h34.29L367,192h17L346,64Zm-20.43,72L338,94.14,350.38,136Z"/><path class="cls-1" d="M506,66a32.58,32.58,0,0,1,17,4.62A35.51,35.51,0,0,1,535.38,83,32.64,32.64,0,0,1,540,100a34.24,34.24,0,0,1-2.46,12.76,31.46,31.46,0,0,1-6.95,10.63l-1.84,1.83,2.24,1.31a34.38,34.38,0,0,1,12.39,12.39A33.19,33.19,0,0,1,548,156a32.52,32.52,0,0,1-4.62,17A35.46,35.46,0,0,1,531,185.38,32.52,32.52,0,0,1,514,190H480V66h26m-14,56h14a21.94,21.94,0,0,0,15.51-37.52A21.26,21.26,0,0,0,506,78H492v44m0,56h22a22,22,0,0,0,0-44H492v44M506,64H478V192h36a34.43,34.43,0,0,0,18-4.9A37.36,37.36,0,0,0,545.1,174a34.43,34.43,0,0,0,4.9-18,34.93,34.93,0,0,0-4.9-18.1A36.32,36.32,0,0,0,532,124.8a33.24,33.24,0,0,0,7.4-11.3A36.07,36.07,0,0,0,542,100a34.43,34.43,0,0,0-4.9-18A37.36,37.36,0,0,0,524,68.9,34.43,34.43,0,0,0,506,64Zm-12,56V80h12a19.94,19.94,0,0,1,14.1,34.1A19.24,19.24,0,0,1,506,120Zm0,56V136h20a20,20,0,0,1,0,40Z"/><path class="cls-1" d="M734.2,66a37.06,37.06,0,0,1,19,5.12A38.58,38.58,0,0,1,767.07,85a36.87,36.87,0,0,1,5.08,17h-12A25.9,25.9,0,0,0,734.2,78H734a25.24,25.24,0,0,0-18.3,7.58A25,25,0,0,0,708,104v48a25.22,25.22,0,0,0,3.58,13,26.3,26.3,0,0,0,9.51,9.52A25.37,25.37,0,0,0,734,178h2a26.26,26.26,0,0,0,26.2-26v-6h12v6a36.92,36.92,0,0,1-5.13,19,38.26,38.26,0,0,1-14,13.88A37.62,37.62,0,0,1,736,190h-2a36.92,36.92,0,0,1-19-5.13A38.58,38.58,0,0,1,701.12,171,37,37,0,0,1,696,152V104a37,37,0,0,1,5.12-19A38.69,38.69,0,0,1,715,71.12,37,37,0,0,1,734,66h.2m0-2H734a38.81,38.81,0,0,0-20,5.4A40.39,40.39,0,0,0,699.4,84a38.81,38.81,0,0,0-5.4,20v48a38.81,38.81,0,0,0,5.4,20A40.39,40.39,0,0,0,714,186.6a38.81,38.81,0,0,0,20,5.4h2a39.35,39.35,0,0,0,20.1-5.4A40.13,40.13,0,0,0,770.8,172a38.81,38.81,0,0,0,5.4-20v-8h-16v8A24.24,24.24,0,0,1,736,176h-2a23.29,23.29,0,0,1-11.9-3.2,24.19,24.19,0,0,1-8.8-8.8,23.22,23.22,0,0,1-3.3-12V104a23,23,0,0,1,7.1-17A23.23,23.23,0,0,1,734,80h.2a23.9,23.9,0,0,1,24,24h16a38.81,38.81,0,0,0-5.4-20,40.39,40.39,0,0,0-14.6-14.6,38.81,38.81,0,0,0-20-5.4Z"/><path class="cls-1" d="M804.2,322v12A26.1,26.1,0,0,0,780,360v48a26.24,26.24,0,0,0,26,26h.2a25,25,0,0,0,18.42-7.7A25.24,25.24,0,0,0,832.2,408V390H808V378h36.2v30a36.92,36.92,0,0,1-5.13,19,38.48,38.48,0,0,1-13.88,13.88,37,37,0,0,1-19,5.13H806a36.92,36.92,0,0,1-19-5.13A38.58,38.58,0,0,1,773.12,427,37,37,0,0,1,768,408V360a37,37,0,0,1,5.12-19A38.69,38.69,0,0,1,787,327.12,37,37,0,0,1,804.2,322m2-2H806a38.81,38.81,0,0,0-20,5.4A40.39,40.39,0,0,0,771.4,340a38.81,38.81,0,0,0-5.4,20v48a38.81,38.81,0,0,0,5.4,20A40.39,40.39,0,0,0,786,442.6a38.81,38.81,0,0,0,20,5.4h.2a38.81,38.81,0,0,0,20-5.4A40.39,40.39,0,0,0,840.8,428a38.81,38.81,0,0,0,5.4-20V376H806v16h24.2v16a23.23,23.23,0,0,1-7,16.9,23,23,0,0,1-17,7.1H806a24.25,24.25,0,0,1-24-24V360a23,23,0,0,1,7.1-17,23.23,23.23,0,0,1,16.9-7h.2V320Z"/><path class="cls-1" d="M652,322v12H596v44h40v12H596v56H584V322h68m2-2H582V448h16V392h40V376H598V336h56V320Z"/><path class="cls-1" d="M468,322v12H412v44h40v12H412v44h56v12H400V322h68m2-2H398V448h72V432H414V392h40V376H414V336h56V320Z"/><path class="cls-1" d="M230,322a37,37,0,0,1,19,5.12A38.69,38.69,0,0,1,262.88,341,37,37,0,0,1,268,360v48a37,37,0,0,1-5.12,19A38.58,38.58,0,0,1,249,440.87,36.94,36.94,0,0,1,230,446H192V322h38M204,434h26a25,25,0,0,0,18.42-7.7A25.24,25.24,0,0,0,256,408V360a25.9,25.9,0,0,0-26-26H204V434m26-114H190V448h40a38.81,38.81,0,0,0,20-5.4A40.39,40.39,0,0,0,264.6,428a38.81,38.81,0,0,0,5.4-20V360a38.81,38.81,0,0,0-5.4-20A40.39,40.39,0,0,0,250,325.4a38.81,38.81,0,0,0-20-5.4ZM206,432V336h24a23.9,23.9,0,0,1,24,24v48a23.23,23.23,0,0,1-7,16.9,23,23,0,0,1-17,7.1Z"/><path class="cls-1" d="M784.1,1602v12h-12v-12h12m-32.2,0v12h-12v-12h12m48.2,32v86a37,37,0,0,1-5.12,19,38.84,38.84,0,0,1-13.8,13.89A36.86,36.86,0,0,1,762.1,1758h-.2a37,37,0,0,1-19-5.12A38.61,38.61,0,0,1,729,1739a37,37,0,0,1-5.12-19v-86h12v86a26.26,26.26,0,0,0,26,26h.2a25.91,25.91,0,0,0,26-26v-86h12m-14-34h-16v16h16v-16Zm-32.2,0h-16v16h16v-16Zm48.2,32h-16v88a23.9,23.9,0,0,1-24,24h-.2a24.25,24.25,0,0,1-24-24v-88h-16v88a38.81,38.81,0,0,0,5.4,20,40.39,40.39,0,0,0,14.6,14.6,38.81,38.81,0,0,0,20,5.4h.2a38.67,38.67,0,0,0,20.1-5.4,40.58,40.58,0,0,0,14.5-14.6,38.81,38.81,0,0,0,5.4-20v-88Z"/><path class="cls-1" d="M576,1602v12H564v-12h12m-32,0v12H532v-12h12m10.2,32a37,37,0,0,1,19,5.13A38.48,38.48,0,0,1,587.07,1653a37,37,0,0,1,5.13,19v48a36.92,36.92,0,0,1-5.13,19,38.58,38.58,0,0,1-13.88,13.89,37.06,37.06,0,0,1-19,5.12H554a37,37,0,0,1-19-5.12A38.61,38.61,0,0,1,521.12,1739a37,37,0,0,1-5.12-19v-48a37.06,37.06,0,0,1,5.12-19A38.58,38.58,0,0,1,535,1639.13a36.92,36.92,0,0,1,19-5.13h.2m-.2,112h.2a25,25,0,0,0,18.42-7.7,25.24,25.24,0,0,0,7.58-18.3v-48a25.91,25.91,0,0,0-26-26H554a25.24,25.24,0,0,0-18.3,7.58A25,25,0,0,0,528,1672v48a26.24,26.24,0,0,0,26,26m24-146H562v16h16v-16Zm-32,0H530v16h16v-16Zm8.2,32H554a38.81,38.81,0,0,0-20,5.4,40.39,40.39,0,0,0-14.6,14.6,38.81,38.81,0,0,0-5.4,20v48a38.81,38.81,0,0,0,5.4,20,40.39,40.39,0,0,0,14.6,14.6,38.81,38.81,0,0,0,20,5.4h.2a38.81,38.81,0,0,0,20-5.4,40.39,40.39,0,0,0,14.6-14.6,38.81,38.81,0,0,0,5.4-20v-48a38.81,38.81,0,0,0-5.4-20,40.39,40.39,0,0,0-14.6-14.6,38.81,38.81,0,0,0-20-5.4Zm-.2,112a24.25,24.25,0,0,1-24-24v-48a24.07,24.07,0,0,1,24-24h.2a23.9,23.9,0,0,1,24,24v48a23.23,23.23,0,0,1-7,16.9,23,23,0,0,1-17,7.1Z"/><path class="cls-1" d="M364,1602v12H352v-12h12m2-2H350v16h16v-16Z"/><path class="cls-1" d="M348.51,1634l36.81,124H372.49l-11.43-38.57-.42-1.43h-37.3l-.42,1.43L311.51,1758H298.68l36.81-124h13m-21.62,72h30.19l-.76-2.57L343.9,1661.5,342,1655l-1.92,6.48-12.41,41.93-.76,2.57M350,1632H334l-38,128h17l11.84-40h34.31L371,1760h17l-38-128Zm-20.43,72L342,1662.07,354.41,1704Z"/><path class="cls-1" d="M332,1602v12H320v-12h12m2-2H318v16h16v-16Z"/><path class="cls-1" d="M464.09,1346l-30.93,61.1-.46.9.46.9,30.93,61.1H450.54l-24.43-45.74-1.77-3.3-1.76,3.3L398.14,1470H384.6l30.93-61.1.45-.9-.45-.9L384.6,1346h13.54l24.44,45.74,1.76,3.31,1.77-3.31L450.54,1346h13.55m3.25-2h-18l-25,46.8-25-46.8h-18l32.4,64-32.4,64h18l25-46.8,25,46.8h18l-32.4-64,32.4-64Z"/><path class="cls-1" d="M252.24,1346v108H249l-8.72-16.42V1346h12m-76,0v91.58L167.52,1454h-3.28V1346h12m32,39.86,28,52.72V1464L210,1414.66l-1.77-3.32-1.77,3.32L180.24,1464v-25.4l28-52.72M246.56,1458l5.68,10.7v1.3h-12v-12h6.32m-70.32,0v12h-12v-1.3l5.68-10.7h6.32m78-114h-16v94.08l9.52,17.92h6.48V1344Zm-76,0h-16v112h6.48l9.52-17.92V1344Zm30,37.6-30,56.48V1472l30-56.4,30,56.4v-33.92l-30-56.48Zm39.52,74.4h-9.52v16h16v-3.8l-6.48-12.2Zm-69.52,0h-9.52l-6.48,12.2v3.8h16v-16Zm-16,0v16h0v-16Zm92,12.2v0Zm0,3.8h0Z"/><path class="cls-1" d="M963.76,1346v13.48l-53,95.55-1.64,3h54.59v12h-68v-13.48l53-95.55,1.64-3H895.76v-12h68m2-2h-72v16H947l-53.2,96v16h72v-16h-53.2l53.2-96v-16Z"/><path class="cls-1" d="M703.7,1346l-34.22,71.13-.2.41V1470h-12v-52.45l-.19-.41-34-71.14h12.58l25.85,52.68,1.79,3.65,1.8-3.64,26-52.69H703.7m3.18-2h-17l-26.6,53.8-26.4-53.8h-17l35.4,74v54h16v-54l35.6-74Z"/><path class="cls-1" d="M995.32,1090l-36.81,124h-13l-.11-.38L908.68,1090h12.83L950,1186.32l1.92,6.46,1.92-6.46L982.49,1090h12.83m2.68-2H981l-29.08,97.75L923,1088H906l37.46,126.19-.06.21.6,1.6h16l38-128Z"/><path class="cls-1" d="M780.1,1090v86a36.92,36.92,0,0,1-5.13,19,38.73,38.73,0,0,1-13.79,13.89A36.86,36.86,0,0,1,742.1,1214h-.2a37,37,0,0,1-19-5.12A38.61,38.61,0,0,1,709,1195a37,37,0,0,1-5.12-19v-86h12v86a26.26,26.26,0,0,0,26,26h.2a25.91,25.91,0,0,0,26-26v-86h12m2-2h-16v88a23.9,23.9,0,0,1-24,24h-.2a24.25,24.25,0,0,1-24-24v-88h-16v88a38.81,38.81,0,0,0,5.4,20,40.39,40.39,0,0,0,14.6,14.6,38.81,38.81,0,0,0,20,5.4h.2a38.67,38.67,0,0,0,20.1-5.4,40.58,40.58,0,0,0,14.5-14.6,38.81,38.81,0,0,0,5.4-20v-88Z"/><path class="cls-1" d="M572,1090v12H544v112H532V1102H504v-12h68m2-2H502v16h28v112h16V1104h28v-16Z"/><path class="cls-1" d="M336,1090v12H314a22,22,0,0,0,0,44h8a32.58,32.58,0,0,1,17,4.62,35.51,35.51,0,0,1,12.41,12.4,33.5,33.5,0,0,1,0,34A35.46,35.46,0,0,1,339,1209.38a32.52,32.52,0,0,1-17,4.62H280v-12h42a22,22,0,0,0,0-44h-8a32.52,32.52,0,0,1-17-4.62A35.46,35.46,0,0,1,284.62,1141a33.48,33.48,0,0,1,0-33.94A35.46,35.46,0,0,1,297,1094.62a32.52,32.52,0,0,1,17-4.62h22m2-2H314a34.43,34.43,0,0,0-18,4.9,37.36,37.36,0,0,0-13.1,13.1,35.51,35.51,0,0,0,0,36,37.36,37.36,0,0,0,13.1,13.1,34.43,34.43,0,0,0,18,4.9h8a20,20,0,0,1,0,40H278v16h44a34.43,34.43,0,0,0,18-4.9,37.36,37.36,0,0,0,13.1-13.1,35.51,35.51,0,0,0,0-36,37.36,37.36,0,0,0-13.1-13.1,34.43,34.43,0,0,0-18-4.9h-8a20,20,0,0,1,0-40h24v-16Z"/><path class="cls-1" d="M114,1090a32.58,32.58,0,0,1,17,4.62,35.51,35.51,0,0,1,12.41,12.4,32.64,32.64,0,0,1,4.62,17,33.7,33.7,0,0,1-2.64,13.22,35.06,35.06,0,0,1-7.47,11.07,32.26,32.26,0,0,1-11,7.25l-1.71.67.52,1.76,16.64,56H129.49l-16.17-54.57-.43-1.43H88v56H76V1090h38m-26,56h26a22,22,0,0,0,0-44H88v44m26-58H74v128H90v-56h21.4l16.6,56h17l-17.4-58.6a34,34,0,0,0,11.7-7.7,36.69,36.69,0,0,0,7.9-11.7,35.43,35.43,0,0,0,2.8-14,34.43,34.43,0,0,0-4.9-18,37.36,37.36,0,0,0-13.1-13.1,34.43,34.43,0,0,0-18-4.9Zm-24,56v-40h24a20,20,0,0,1,0,40Z"/><path class="cls-1" d="M182.1,834V958h-12V857.89L166.33,865,138.1,918.14,109.87,865l-3.77-7.09V958h-12V834h12.8l29.43,55.34,1.77,3.32,1.77-3.32L169.3,834h12.8m2-2h-16l-30,56.4-30-56.4h-16V960h16V865.92l30,56.48,30-56.48V960h16V832Z"/><path class="cls-1" d="M994.1,834a37,37,0,0,1,19,5.12A38.69,38.69,0,0,1,1027,853a37,37,0,0,1,5.12,19v48a37,37,0,0,1-5.12,19,41,41,0,0,1-2.36,3.54l-.79,1.07.68,1.14,7.88,13.26H1019l-2.79-4.69-1-1.74-1.73,1-.25.16-.16.11a37.06,37.06,0,0,1-19,5.12h-.2a37,37,0,0,1-19-5.12A38.69,38.69,0,0,1,961,939a37,37,0,0,1-5.12-19V872A37,37,0,0,1,961,853a38.69,38.69,0,0,1,13.89-13.89,37,37,0,0,1,19-5.12h.2m23.19,98.58,1.4-4.07a25.88,25.88,0,0,0,1.41-8.51V872a25.9,25.9,0,0,0-26-26h-.2a25.24,25.24,0,0,0-18.3,7.58,25.52,25.52,0,0,0-2.25,2.53l-.86,1.08.7,1.18,41.89,70.51,2.21,3.7M993.9,946h.2a25.16,25.16,0,0,0,13.35-3.67l1.68-1-1-1.7-36.51-61.52-3.72-6.27V920a26.26,26.26,0,0,0,26,26m.2-114h-.2a38.81,38.81,0,0,0-20,5.4A40.39,40.39,0,0,0,959.3,852a38.81,38.81,0,0,0-5.4,20v48a38.81,38.81,0,0,0,5.4,20,40.39,40.39,0,0,0,14.6,14.6,38.81,38.81,0,0,0,20,5.4h.2a38.81,38.81,0,0,0,20-5.4l.43-.27,3.37,5.67h18l-9.67-16.28a43.61,43.61,0,0,0,2.47-3.72,38.81,38.81,0,0,0,5.4-20V872a38.81,38.81,0,0,0-5.4-20,40.39,40.39,0,0,0-14.6-14.6,38.81,38.81,0,0,0-20-5.4Zm22.7,95.85-41.89-70.5A24.09,24.09,0,0,1,977,855a23.23,23.23,0,0,1,16.9-7h.2a23.9,23.9,0,0,1,24,24v48a23.81,23.81,0,0,1-1.3,7.85ZM993.9,944a24.25,24.25,0,0,1-24-24V879.1l36.51,61.53A23.08,23.08,0,0,1,994.1,944Z"/><path class="cls-1" d="M550.2,834a37.06,37.06,0,0,1,19,5.12A38.69,38.69,0,0,1,583.08,853a37,37,0,0,1,5.12,19v48a37,37,0,0,1-5.12,19,38.58,38.58,0,0,1-13.89,13.88,36.94,36.94,0,0,1-19,5.13H550a36.92,36.92,0,0,1-19-5.13A38.5,38.5,0,0,1,517.12,939,37,37,0,0,1,512,920V872a37,37,0,0,1,5.12-19A38.69,38.69,0,0,1,531,839.12,37,37,0,0,1,550,834h.2M550,946h.2a25,25,0,0,0,18.42-7.7A25.24,25.24,0,0,0,576.2,920V872a25.9,25.9,0,0,0-26-26H550a25.24,25.24,0,0,0-18.3,7.58A25,25,0,0,0,524,872v48a26.26,26.26,0,0,0,26,26m.2-114H550a38.81,38.81,0,0,0-20,5.4A40.39,40.39,0,0,0,515.4,852a38.81,38.81,0,0,0-5.4,20v48a38.81,38.81,0,0,0,5.4,20A40.39,40.39,0,0,0,530,954.6a38.81,38.81,0,0,0,20,5.4h.2a38.81,38.81,0,0,0,20-5.4A40.39,40.39,0,0,0,584.8,940a38.81,38.81,0,0,0,5.4-20V872a38.81,38.81,0,0,0-5.4-20,40.39,40.39,0,0,0-14.6-14.6,38.81,38.81,0,0,0-20-5.4ZM550,944a24.25,24.25,0,0,1-24-24V872a23,23,0,0,1,7.1-17,23.23,23.23,0,0,1,16.9-7h.2a23.9,23.9,0,0,1,24,24v48a23.23,23.23,0,0,1-7,16.9,23,23,0,0,1-17,7.1Z"/><path class="cls-1" d="M356.1,834V958H343.3l-49.43-93.33-3.77-7.11V958h-12V834h12.8l49.43,93.33,3.77,7.11V834h12m2-2h-16v94.39L292.1,832h-16V960h16V865.61l50,94.39h16V832Z"/><path class="cls-1" d="M726.3,834a32.58,32.58,0,0,1,17,4.62A35.51,35.51,0,0,1,755.68,851a33.5,33.5,0,0,1,0,34,35.46,35.46,0,0,1-12.41,12.41,32.52,32.52,0,0,1-17,4.62H700.1v56h-12V834h38.2m-26.2,56h26.2a22,22,0,0,0,0-44H700.1v44m26.2-58H686.1V960h16V904h24.2a34.43,34.43,0,0,0,18-4.9A37.36,37.36,0,0,0,757.4,886a35.51,35.51,0,0,0,0-36,37.36,37.36,0,0,0-13.1-13.1,34.43,34.43,0,0,0-18-4.9Zm-24.2,56V848h24.2a20,20,0,0,1,0,40Z"/><path class="cls-1" d="M954.8,1946v12h-52v-12h52m2-2h-56v16h56v-16Z"/><path class="cls-1" d="M753,1890v82H741v-82h12m1.8,110v16h-16v-16h16m.2-112H739v86h16v-86Zm1.8,110h-20v20h20v-20Z"/></g><rect class="cls-1" x="364" y="1600" width="16" height="16"/><rect class="cls-1" x="304" y="1600" width="16" height="16"/><path class="cls-1" d="M295.2,1942v20h-20v-20Zm0,56v20h-20v-20Z"/><path class="cls-1" d="M147.2,1996v20h-20v-20Z"/><path class="cls-1" d="M597,2036H580l12-40h16.8Zm11.8-92v16h-16v-16Z"/><path class="cls-1" d="M440.2,2036h-17l12-40H452Z"/></svg>