<svg viewBox="0 0 1100 2100" xmlns="http://www.w3.org/2000/svg"><g fill="#fff"><path d="m885 576v112h48v16h-64v-128z"/><path d="m679 576v56h19.8l19.2-56h17l-23.2 62.2 39.2 65.8h-18l-33.2-56h-20.8v56h-16v-128z"/><path d="m545 576v88a38.81 38.81 0 0 1 -5.4 20 40.39 40.39 0 0 1 -14.6 14.6 38.83 38.83 0 0 1 -20 5.4v-16a23.9 23.9 0 0 0 24-24v-72h-48v-16z"/><path d="m363 592v112h-16v-128h16z"/><path d="m173 576v56h40v-56h16v128h-16v-56h-40v56h-16v-128z"/><path d="m377.94 192h17l-38-128h-16l-38 128h17l11.83-40h34.29zm-41.43-56 12.38-41.86 12.42 41.86z"/><path d="m559.94 68.9a37.44 37.44 0 0 1 13.06 13.1 34.52 34.52 0 0 1 4.9 18 36.07 36.07 0 0 1 -2.6 13.5 33.39 33.39 0 0 1 -7.4 11.3 36.39 36.39 0 0 1 13.1 13.1 35 35 0 0 1 4.9 18.1 34.52 34.52 0 0 1 -4.9 18 37.44 37.44 0 0 1 -13.1 13.1 34.43 34.43 0 0 1 -18 4.9h-36v-128h28a34.43 34.43 0 0 1 18.04 4.9zm-30 51.1h12a19.94 19.94 0 0 0 14.06-34.1 19.28 19.28 0 0 0 -14.1-5.9h-12zm0 56h20a20 20 0 0 0 0-40h-20z"/><path d="m710.34 84a40.31 40.31 0 0 1 14.6-14.6 38.81 38.81 0 0 1 20-5.4h.2a38.83 38.83 0 0 1 20 5.4 40.39 40.39 0 0 1 14.6 14.6 38.81 38.81 0 0 1 5.4 20h-16a23.9 23.9 0 0 0 -24-24h-.2a23.21 23.21 0 0 0 -16.94 7 23 23 0 0 0 -7.1 17v48a23.22 23.22 0 0 0 3.3 12 24.19 24.19 0 0 0 8.8 8.8 23.26 23.26 0 0 0 11.9 3.2h2a23.34 23.34 0 0 0 17.1-7.1 23.09 23.09 0 0 0 7.1-16.9v-8h16v8a38.81 38.81 0 0 1 -5.4 20 40.13 40.13 0 0 1 -14.7 14.6 39.35 39.35 0 0 1 -20.1 5.4h-2a38.81 38.81 0 0 1 -20-5.4 40.31 40.31 0 0 1 -14.6-14.6 38.81 38.81 0 0 1 -5.4-20v-48a38.81 38.81 0 0 1 5.44-20z"/><path d="m850.14 424.9a23.27 23.27 0 0 0 7-16.9v-16h-24.2v-16h40.2v32a38.81 38.81 0 0 1 -5.4 20 40.39 40.39 0 0 1 -14.6 14.6 38.83 38.83 0 0 1 -20 5.4h-.2a38.81 38.81 0 0 1 -20-5.4 40.31 40.31 0 0 1 -14.6-14.6 38.81 38.81 0 0 1 -5.4-20v-48a38.81 38.81 0 0 1 5.4-20 40.31 40.31 0 0 1 14.6-14.6 38.81 38.81 0 0 1 20-5.4h.2v16h-.2a23.21 23.21 0 0 0 -16.9 7 23 23 0 0 0 -7.1 17v48a24.25 24.25 0 0 0 24 24h.2a23 23 0 0 0 17-7.1z"/><path d="m675.6 320v16h-56v40h40v16h-40v56h-16v-128z"/><path d="m486.27 320v16h-56v40h40v16h-40v40h56v16h-72v-128z"/><path d="m276.94 325.4a40.39 40.39 0 0 1 14.6 14.6 38.81 38.81 0 0 1 5.4 20v48a38.81 38.81 0 0 1 -5.4 20 40.39 40.39 0 0 1 -14.6 14.6 38.83 38.83 0 0 1 -20 5.4h-40v-128h40a38.83 38.83 0 0 1 20 5.4zm-44 106.6h24a23 23 0 0 0 17-7.1 23.27 23.27 0 0 0 7-16.9v-48a23.9 23.9 0 0 0 -24-24h-24z"/><path d="m733.89 1632v88a24.25 24.25 0 0 0 24 24h.2a23.9 23.9 0 0 0 24-24v-88h16v88a38.81 38.81 0 0 1 -5.4 20 40.66 40.66 0 0 1 -14.5 14.6 38.67 38.67 0 0 1 -20.1 5.4h-.2a38.81 38.81 0 0 1 -20-5.4 40.31 40.31 0 0 1 -14.6-14.6 38.81 38.81 0 0 1 -5.4-20v-88zm16-32v16h-16v-16zm32.2 0v16h-16v-16z"/><path d="m571 1637.4a40.39 40.39 0 0 1 14.6 14.6 38.81 38.81 0 0 1 5.4 20v48a38.81 38.81 0 0 1 -5.4 20 40.39 40.39 0 0 1 -14.6 14.6 38.83 38.83 0 0 1 -20 5.4h-.2a38.81 38.81 0 0 1 -20-5.4 40.31 40.31 0 0 1 -14.6-14.6 38.81 38.81 0 0 1 -5.4-20v-48a38.81 38.81 0 0 1 5.4-20 40.31 40.31 0 0 1 14.6-14.6 38.81 38.81 0 0 1 20-5.4h.2a38.83 38.83 0 0 1 20 5.4zm-28.2-37.4v16h-16v-16zm-8.9 55a23 23 0 0 0 -7.1 17v48a24.25 24.25 0 0 0 24 24h.2a23 23 0 0 0 17-7.1 23.27 23.27 0 0 0 7-16.9v-48a23.9 23.9 0 0 0 -24-24h-.2a23.21 23.21 0 0 0 -16.86 7zm40.9-55v16h-16v-16z"/><path d="m330 1632h16l.4 1.6-37.4 126.4h-17zm0-32v16h-16v-16zm32 104v16h-48v-16zm-16-72 38 128h-17l-37.4-126.2.4-1.8zm0 0v16h-16v-16zm16-32v16h-16v-16z"/><path d="m444.38 1408 32.4 64h-18l-25-46.8-25 46.8h-18l32.4-64-32.4-64h18l25 46.8 25-46.8h18z"/><path d="m143.28 1472v-128h16v128zm0-3.8 46-86.6 46 86.6v3.8h-16l-30-56.4-30 56.4h-16zm0 3.8v-16h16v16zm76 0v-128h16v128zm0 0v-16h16v16z"/><path d="m893.6 1456h53.2v16h-72v-16l53.2-96h-53.2v-16h72v16z"/><path d="m683.69 1418v54h-16v-54l-35.4-74h17l26.4 53.8 26.6-53.8h17z"/><path d="m969.44 1214.4-.4 1.6h-16.04l-38-128h17zm-.4 1.6h-16.04l-.6-1.6 37.6-126.4h17zm0-16v16h-16.04v-16z"/><path d="m719.89 1088v88a24.25 24.25 0 0 0 24 24h.2a23.9 23.9 0 0 0 24-24v-88h16v88a38.81 38.81 0 0 1 -5.4 20 40.66 40.66 0 0 1 -14.5 14.6 38.67 38.67 0 0 1 -20.1 5.4h-.2a38.81 38.81 0 0 1 -20-5.4 40.31 40.31 0 0 1 -14.6-14.6 38.81 38.81 0 0 1 -5.4-20v-88z"/><path d="m572.94 1104h-28v112h-16v-112h-28v-16h72z"/><path d="m348.09 1194.1a20 20 0 0 0 -14.09-34.1h-8a34.38 34.38 0 0 1 -18-4.9 37.27 37.27 0 0 1 -13.1-13.1 35.51 35.51 0 0 1 0-36 37.27 37.27 0 0 1 13.1-13.1 34.38 34.38 0 0 1 18-4.9h24v16h-24a20 20 0 0 0 0 40h8a34.43 34.43 0 0 1 18 4.9 37.44 37.44 0 0 1 13.1 13.1 35.51 35.51 0 0 1 0 36 37.44 37.44 0 0 1 -13.1 13.1 34.43 34.43 0 0 1 -18 4.9h-44v-16h44a19.28 19.28 0 0 0 14.09-5.9z"/><path d="m141 1092.9a37.44 37.44 0 0 1 13.1 13.1 34.52 34.52 0 0 1 4.9 18 35.6 35.6 0 0 1 -2.8 14 36.69 36.69 0 0 1 -7.9 11.7 34 34 0 0 1 -11.7 7.7l17.4 58.6h-17l-16.6-56h-21.4v56h-16v-128h40a34.43 34.43 0 0 1 18 4.9zm-3.9 45.2a20 20 0 0 0 -14.1-34.1h-24v40h24a19.28 19.28 0 0 0 14.14-5.9z"/><path d="m149.14 832-30 56.4-30-56.4h-16v3.8 12.2 112h16v-94.08l30 56.48 30-56.48v94.08h16v-112-12.2-3.8z"/><path d="m1016.94 960-9.68-16.28a43.71 43.71 0 0 0 2.48-3.72 38.81 38.81 0 0 0 5.4-20v-48a38.81 38.81 0 0 0 -5.4-20 40.39 40.39 0 0 0 -14.6-14.6 38.83 38.83 0 0 0 -20-5.4h-.2a38.81 38.81 0 0 0 -20 5.4 40.31 40.31 0 0 0 -14.6 14.6 38.81 38.81 0 0 0 -5.4 20v48a38.81 38.81 0 0 0 5.4 20 40.31 40.31 0 0 0 14.6 14.6 38.81 38.81 0 0 0 20 5.4h.2a38.83 38.83 0 0 0 20-5.4l.43-.27 3.37 5.67zm-42-112h.2a23.9 23.9 0 0 1 24 24v48a23.81 23.81 0 0 1 -1.3 7.85l-41.84-70.5a24.09 24.09 0 0 1 2-2.35 23.21 23.21 0 0 1 16.94-7zm.2 96h-.2a24.25 24.25 0 0 1 -24-24v-40.9l36.5 61.53a23 23 0 0 1 -12.3 3.37z"/><path d="m573 837.4a40.39 40.39 0 0 1 14.6 14.6 38.81 38.81 0 0 1 5.4 20v48a38.81 38.81 0 0 1 -5.4 20 40.39 40.39 0 0 1 -14.6 14.6 38.83 38.83 0 0 1 -20 5.4h-.2a38.81 38.81 0 0 1 -20-5.4 40.31 40.31 0 0 1 -14.6-14.6 38.81 38.81 0 0 1 -5.4-20v-48a38.81 38.81 0 0 1 5.4-20 40.31 40.31 0 0 1 14.6-14.6 38.81 38.81 0 0 1 20-5.4h.2a38.83 38.83 0 0 1 20 5.4zm-37.06 17.6a23 23 0 0 0 -7.1 17v48a24.25 24.25 0 0 0 24 24h.2a23 23 0 0 0 17-7.1 23.27 23.27 0 0 0 7-16.9v-48a23.9 23.9 0 0 0 -24-24h-.2a23.21 23.21 0 0 0 -16.9 7z"/><path d="m363.99 832v94.39l-50-94.39h-16v3.4 12.6 112h16v-94.39l50 94.39h16v-3.4-12.6-112z"/><path d="m725.89 832h40.2a34.43 34.43 0 0 1 18 4.9 37.44 37.44 0 0 1 13.1 13.1 35.51 35.51 0 0 1 0 36 37.44 37.44 0 0 1 -13.1 13.1 34.43 34.43 0 0 1 -18 4.9h-24.2v56h-16zm54.3 50.1a20 20 0 0 0 -14.1-34.1h-24.2v40h24.2a19.28 19.28 0 0 0 14.1-5.9z"/><path d="m295.2 1942v20h-20v-20zm0 56v20h-20v-20z"/><path d="m147.2 1996v20h-20v-20z"/><path d="m597 2036h-17l12-40h16.8zm11.8-92v16h-16v-16z"/><path d="m956.8 1944v16h-56v-16z"/><path d="m440.2 2036h-17l12-40h16.8z"/><path d="m756.8 1998v20h-20v-20zm-1.8-94v70h-16v-86h16z"/></g></svg>