<svg id="Ebene_1" data-name="Ebene 1" xmlns="http://www.w3.org/2000/svg" viewBox="0 0 1100 2100"><defs><style>.cls-1{fill:#fff;}</style></defs><path class="cls-1" d="M885,576V688h48v16H869V576Z"/><path class="cls-1" d="M679,576v56h19.8L718,576h17l-23.2,62.2L751,704H733l-33.2-56H679v56H663V576Z"/><path class="cls-1" d="M545,576v88a38.81,38.81,0,0,1-5.4,20A40.39,40.39,0,0,1,525,698.6a38.83,38.83,0,0,1-20,5.4V688a23.9,23.9,0,0,0,24-24V592H481V576Z"/><path class="cls-1" d="M363,592V704H347V576h16Z"/><path class="cls-1" d="M173,576v56h40V576h16V704H213V648H173v56H157V576Z"/><path class="cls-1" d="M377.94,192h17l-38-128h-16l-38,128h17l11.83-40h34.29Zm-41.43-56,12.38-41.86L361.31,136Z"/><path class="cls-1" d="M559.94,68.9A37.44,37.44,0,0,1,573,82a34.52,34.52,0,0,1,4.9,18,36.07,36.07,0,0,1-2.6,13.5,33.39,33.39,0,0,1-7.4,11.3A36.39,36.39,0,0,1,581,137.9a35,35,0,0,1,4.9,18.1,34.52,34.52,0,0,1-4.9,18,37.44,37.44,0,0,1-13.1,13.1,34.43,34.43,0,0,1-18,4.9h-36V64h28A34.43,34.43,0,0,1,559.94,68.9Zm-30,51.1h12A19.94,19.94,0,0,0,556,85.9a19.28,19.28,0,0,0-14.1-5.9h-12Zm0,56h20a20,20,0,0,0,0-40h-20Z"/><path class="cls-1" d="M710.34,84a40.31,40.31,0,0,1,14.6-14.6,38.81,38.81,0,0,1,20-5.4h.2a38.83,38.83,0,0,1,20,5.4A40.39,40.39,0,0,1,779.74,84a38.81,38.81,0,0,1,5.4,20h-16a23.9,23.9,0,0,0-24-24h-.2A23.21,23.21,0,0,0,728,87a23,23,0,0,0-7.1,17v48a23.22,23.22,0,0,0,3.3,12,24.19,24.19,0,0,0,8.8,8.8,23.26,23.26,0,0,0,11.9,3.2h2a23.34,23.34,0,0,0,17.1-7.1,23.09,23.09,0,0,0,7.1-16.9v-8h16v8a38.81,38.81,0,0,1-5.4,20A40.13,40.13,0,0,1,767,186.6a39.35,39.35,0,0,1-20.1,5.4h-2a38.81,38.81,0,0,1-20-5.4,40.31,40.31,0,0,1-14.6-14.6,38.81,38.81,0,0,1-5.4-20V104A38.81,38.81,0,0,1,710.34,84Z"/><path class="cls-1" d="M850.14,424.9a23.27,23.27,0,0,0,7-16.9V392h-24.2V376h40.2v32a38.81,38.81,0,0,1-5.4,20,40.39,40.39,0,0,1-14.6,14.6,38.83,38.83,0,0,1-20,5.4h-.2a38.81,38.81,0,0,1-20-5.4,40.31,40.31,0,0,1-14.6-14.6,38.81,38.81,0,0,1-5.4-20V360a38.81,38.81,0,0,1,5.4-20,40.31,40.31,0,0,1,14.6-14.6,38.81,38.81,0,0,1,20-5.4h.2v16h-.2a23.21,23.21,0,0,0-16.9,7,23,23,0,0,0-7.1,17v48a24.25,24.25,0,0,0,24,24h.2A23,23,0,0,0,850.14,424.9Z"/><path class="cls-1" d="M675.6,320v16h-56v40h40v16h-40v56h-16V320Z"/><path class="cls-1" d="M486.27,320v16h-56v40h40v16h-40v40h56v16h-72V320Z"/><path class="cls-1" d="M276.94,325.4a40.39,40.39,0,0,1,14.6,14.6,38.81,38.81,0,0,1,5.4,20v48a38.81,38.81,0,0,1-5.4,20,40.39,40.39,0,0,1-14.6,14.6,38.83,38.83,0,0,1-20,5.4h-40V320h40A38.83,38.83,0,0,1,276.94,325.4Zm-44,106.6h24a23,23,0,0,0,17-7.1,23.27,23.27,0,0,0,7-16.9V360a23.9,23.9,0,0,0-24-24h-24Z"/><path class="cls-1" d="M733.89,1632v88a24.25,24.25,0,0,0,24,24h.2a23.9,23.9,0,0,0,24-24v-88h16v88a38.81,38.81,0,0,1-5.4,20,40.66,40.66,0,0,1-14.5,14.6,38.67,38.67,0,0,1-20.1,5.4h-.2a38.81,38.81,0,0,1-20-5.4,40.31,40.31,0,0,1-14.6-14.6,38.81,38.81,0,0,1-5.4-20v-88Zm16-32v16h-16v-16Zm32.2,0v16h-16v-16Z"/><path class="cls-1" d="M571,1637.4a40.39,40.39,0,0,1,14.6,14.6,38.81,38.81,0,0,1,5.4,20v48a38.81,38.81,0,0,1-5.4,20,40.39,40.39,0,0,1-14.6,14.6,38.83,38.83,0,0,1-20,5.4h-.2a38.81,38.81,0,0,1-20-5.4,40.31,40.31,0,0,1-14.6-14.6,38.81,38.81,0,0,1-5.4-20v-48a38.81,38.81,0,0,1,5.4-20,40.31,40.31,0,0,1,14.6-14.6,38.81,38.81,0,0,1,20-5.4h.2A38.83,38.83,0,0,1,571,1637.4Zm-28.2-37.4v16h-16v-16Zm-8.9,55a23,23,0,0,0-7.1,17v48a24.25,24.25,0,0,0,24,24h.2a23,23,0,0,0,17-7.1,23.27,23.27,0,0,0,7-16.9v-48a23.9,23.9,0,0,0-24-24h-.2A23.21,23.21,0,0,0,533.94,1655Zm40.9-55v16h-16v-16Z"/><path class="cls-1" d="M330,1632h16l.4,1.6L309,1760H292Zm0-32v16H314v-16Zm32,104v16H314v-16Zm-16-72,38,128H367l-37.4-126.2.4-1.8Zm0,0v16H330v-16Zm16-32v16H346v-16Z"/><path class="cls-1" d="M444.38,1408l32.4,64h-18l-25-46.8-25,46.8h-18l32.4-64-32.4-64h18l25,46.8,25-46.8h18Z"/><path class="cls-1" d="M143.28,1472V1344h16v128Zm0-3.8,46-86.6,46,86.6v3.8h-16l-30-56.4-30,56.4h-16Zm0,3.8v-16h16v16Zm76,0V1344h16v128Zm0,0v-16h16v16Z"/><path class="cls-1" d="M893.6,1456h53.2v16h-72v-16l53.2-96H874.8v-16h72v16Z"/><path class="cls-1" d="M683.69,1418v54h-16v-54l-35.4-74h17l26.4,53.8,26.6-53.8h17Z"/><path class="cls-1" d="M969.44,1214.4l-.4,1.6H953l-38-128h17Zm-.4,1.6H953l-.6-1.6L990,1088h17Zm0-16v16H953v-16Z"/><path class="cls-1" d="M719.89,1088v88a24.25,24.25,0,0,0,24,24h.2a23.9,23.9,0,0,0,24-24v-88h16v88a38.81,38.81,0,0,1-5.4,20,40.66,40.66,0,0,1-14.5,14.6,38.67,38.67,0,0,1-20.1,5.4h-.2a38.81,38.81,0,0,1-20-5.4,40.31,40.31,0,0,1-14.6-14.6,38.81,38.81,0,0,1-5.4-20v-88Z"/><path class="cls-1" d="M572.94,1104h-28v112h-16V1104h-28v-16h72Z"/><path class="cls-1" d="M348.09,1194.1A20,20,0,0,0,334,1160h-8a34.38,34.38,0,0,1-18-4.9,37.27,37.27,0,0,1-13.1-13.1,35.51,35.51,0,0,1,0-36,37.27,37.27,0,0,1,13.1-13.1,34.38,34.38,0,0,1,18-4.9h24v16H326a20,20,0,0,0,0,40h8a34.43,34.43,0,0,1,18,4.9,37.44,37.44,0,0,1,13.1,13.1,35.51,35.51,0,0,1,0,36,37.44,37.44,0,0,1-13.1,13.1,34.43,34.43,0,0,1-18,4.9H290v-16h44A19.28,19.28,0,0,0,348.09,1194.1Z"/><path class="cls-1" d="M141,1092.9a37.44,37.44,0,0,1,13.1,13.1,34.52,34.52,0,0,1,4.9,18,35.6,35.6,0,0,1-2.8,14,36.69,36.69,0,0,1-7.9,11.7,34,34,0,0,1-11.7,7.7L154,1216H137l-16.6-56H99v56H83V1088h40A34.43,34.43,0,0,1,141,1092.9Zm-3.9,45.2A20,20,0,0,0,123,1104H99v40h24A19.28,19.28,0,0,0,137.14,1138.1Z"/><polygon class="cls-1" points="149.14 832 119.14 888.4 89.14 832 73.14 832 73.14 835.8 73.14 848 73.14 960 89.14 960 89.14 865.92 119.14 922.4 149.14 865.92 149.14 960 165.14 960 165.14 848 165.14 835.8 165.14 832 149.14 832"/><path class="cls-1" d="M1016.94,960l-9.68-16.28a43.71,43.71,0,0,0,2.48-3.72,38.81,38.81,0,0,0,5.4-20V872a38.81,38.81,0,0,0-5.4-20,40.39,40.39,0,0,0-14.6-14.6,38.83,38.83,0,0,0-20-5.4h-.2a38.81,38.81,0,0,0-20,5.4,40.31,40.31,0,0,0-14.6,14.6,38.81,38.81,0,0,0-5.4,20v48a38.81,38.81,0,0,0,5.4,20,40.31,40.31,0,0,0,14.6,14.6,38.81,38.81,0,0,0,20,5.4h.2a38.83,38.83,0,0,0,20-5.4l.43-.27,3.37,5.67Zm-42-112h.2a23.9,23.9,0,0,1,24,24v48a23.81,23.81,0,0,1-1.3,7.85L956,857.35A24.09,24.09,0,0,1,958,855,23.21,23.21,0,0,1,974.94,848Zm.2,96h-.2a24.25,24.25,0,0,1-24-24V879.1l36.5,61.53A23,23,0,0,1,975.14,944Z"/><path class="cls-1" d="M573,837.4a40.39,40.39,0,0,1,14.6,14.6,38.81,38.81,0,0,1,5.4,20v48a38.81,38.81,0,0,1-5.4,20A40.39,40.39,0,0,1,573,954.6a38.83,38.83,0,0,1-20,5.4h-.2a38.81,38.81,0,0,1-20-5.4,40.31,40.31,0,0,1-14.6-14.6,38.81,38.81,0,0,1-5.4-20V872a38.81,38.81,0,0,1,5.4-20,40.31,40.31,0,0,1,14.6-14.6,38.81,38.81,0,0,1,20-5.4h.2A38.83,38.83,0,0,1,573,837.4ZM535.94,855a23,23,0,0,0-7.1,17v48a24.25,24.25,0,0,0,24,24h.2a23,23,0,0,0,17-7.1,23.27,23.27,0,0,0,7-16.9V872a23.9,23.9,0,0,0-24-24h-.2A23.21,23.21,0,0,0,535.94,855Z"/><polygon class="cls-1" points="363.99 832 363.99 926.39 313.99 832 297.99 832 297.99 835.4 297.99 848 297.99 960 313.99 960 313.99 865.61 363.99 960 379.99 960 379.99 956.6 379.99 944 379.99 832 363.99 832"/><path class="cls-1" d="M725.89,832h40.2a34.43,34.43,0,0,1,18,4.9,37.44,37.44,0,0,1,13.1,13.1,35.51,35.51,0,0,1,0,36,37.44,37.44,0,0,1-13.1,13.1,34.43,34.43,0,0,1-18,4.9h-24.2v56h-16Zm54.3,50.1a20,20,0,0,0-14.1-34.1h-24.2v40h24.2A19.28,19.28,0,0,0,780.19,882.1Z"/><path class="cls-1" d="M295.2,1942v20h-20v-20Zm0,56v20h-20v-20Z"/><path class="cls-1" d="M147.2,1996v20h-20v-20Z"/><path class="cls-1" d="M597,2036H580l12-40h16.8Zm11.8-92v16h-16v-16Z"/><path class="cls-1" d="M956.8,1944v16h-56v-16Z"/><path class="cls-1" d="M440.2,2036h-17l12-40H452Z"/><path class="cls-1" d="M756.8,1998v20h-20v-20Zm-1.8-94v70H739v-86h16Z"/></svg>