<svg viewBox="0 0 1100 2100" xmlns="http://www.w3.org/2000/svg"><g fill="#fff"><path d="m890 576v112h80v16h-96v-128z"/><path d="m674 576v56h64.8l33.2-56h18l-38 64 58 64h-20l-50.8-56h-65.2v56h-16v-128z"/><path d="m594 576v88a38.81 38.81 0 0 1 -5.4 20 40.39 40.39 0 0 1 -14.6 14.6 38.81 38.81 0 0 1 -20 5.4h-64v-16h64a23.31 23.31 0 0 0 17.1-7.1 22.41 22.41 0 0 0 6.9-16.9v-72h-104v-16z"/><path d="m410 592h-32v96h32v16h-80v-16h32v-96h-32v-16h80z"/><path d="m146 576v56h104v-56h16v128h-16v-56h-104v56h-16v-128z"/><path d="m397 192h17l-38-128h-76l-38 128h17l11.9-40h94.26zm-101.34-56 16.66-56h51.54l16.57 56z"/><path d="m596 68.9a37.36 37.36 0 0 1 13.1 13.1 34.43 34.43 0 0 1 4.9 18 34.9 34.9 0 0 1 -2 11.8 39.19 39.19 0 0 1 -5.6 10.4 35.32 35.32 0 0 1 17 13.1 34.94 34.94 0 0 1 6.6 20.7 34.43 34.43 0 0 1 -4.9 18 37.36 37.36 0 0 1 -13.1 13.1 34.43 34.43 0 0 1 -18 4.9h-116v-128h100a34.43 34.43 0 0 1 18 4.9zm-102 51.1h84a19.24 19.24 0 0 0 14.1-5.9 19.48 19.48 0 0 0 5.9-14.3 19.24 19.24 0 0 0 -5.9-14.1 18.57 18.57 0 0 0 -14.1-5.7h-84zm0 56h100a20 20 0 0 0 0-40h-100z"/><path d="m699.4 84a40.39 40.39 0 0 1 14.6-14.6 38.81 38.81 0 0 1 20-5.4h62a38.81 38.81 0 0 1 20 5.4 40.39 40.39 0 0 1 14.6 14.6 38.81 38.81 0 0 1 5.4 20h-16a23.9 23.9 0 0 0 -24-24h-62a23.23 23.23 0 0 0 -16.9 7 23 23 0 0 0 -7.1 17v48a23.81 23.81 0 0 0 3.2 12 23.24 23.24 0 0 0 8.8 8.8 23.81 23.81 0 0 0 12 3.2h64a23 23 0 0 0 17-7.1 23.23 23.23 0 0 0 7-16.9v-8h16v8a38.81 38.81 0 0 1 -5.4 20 40.39 40.39 0 0 1 -14.6 14.6 38.81 38.81 0 0 1 -20 5.4h-64a38.81 38.81 0 0 1 -20-5.4 40.39 40.39 0 0 1 -14.6-14.6 38.81 38.81 0 0 1 -5.4-20v-48a38.81 38.81 0 0 1 5.4-20z"/><path d="m887 424.9a23.23 23.23 0 0 0 7-16.9v-16h-56v-16h72v32a38.81 38.81 0 0 1 -5.4 20 40.39 40.39 0 0 1 -14.6 14.6 38.81 38.81 0 0 1 -20 5.4h-64a38.81 38.81 0 0 1 -20-5.4 40.39 40.39 0 0 1 -14.6-14.6 38.81 38.81 0 0 1 -5.4-20v-48a38.81 38.81 0 0 1 5.4-20 40.39 40.39 0 0 1 14.6-14.6 38.81 38.81 0 0 1 20-5.4h64v16h-64a23.23 23.23 0 0 0 -16.9 7 23 23 0 0 0 -7.1 17v48a24.25 24.25 0 0 0 24 24h64a23 23 0 0 0 17-7.1z"/><path d="m702 320v16h-104v40h88v16h-88v56h-16v-128z"/><path d="m518 320v16h-104v40h88v16h-88v40h104v16h-120v-128z"/><path d="m314 325.4a40.39 40.39 0 0 1 14.6 14.6 38.81 38.81 0 0 1 5.4 20v48a38.81 38.81 0 0 1 -5.4 20 40.39 40.39 0 0 1 -14.6 14.6 38.81 38.81 0 0 1 -20 5.4h-104v-128h104a38.81 38.81 0 0 1 20 5.4zm-108 106.6h88a23 23 0 0 0 17-7.1 23.23 23.23 0 0 0 7-16.9v-48a23.9 23.9 0 0 0 -24-24h-88z"/><path d="m706 1632v88a24.25 24.25 0 0 0 24 24h64a23 23 0 0 0 17-7.1 23.23 23.23 0 0 0 7-16.9v-88h16v88a38.81 38.81 0 0 1 -5.4 20 40.39 40.39 0 0 1 -14.6 14.6 38.81 38.81 0 0 1 -20 5.4h-64a38.81 38.81 0 0 1 -20-5.4 40.39 40.39 0 0 1 -14.6-14.6 38.81 38.81 0 0 1 -5.4-20v-88zm34-32v16h-16v-16zm60 0v16h-16v-16z"/><path d="m606 1637.4a40.39 40.39 0 0 1 14.6 14.6 38.81 38.81 0 0 1 5.4 20v48a38.81 38.81 0 0 1 -5.4 20 40.39 40.39 0 0 1 -14.6 14.6 38.81 38.81 0 0 1 -20 5.4h-64a38.81 38.81 0 0 1 -20-5.4 40.39 40.39 0 0 1 -14.6-14.6 38.81 38.81 0 0 1 -5.4-20v-48a38.81 38.81 0 0 1 5.4-20 40.39 40.39 0 0 1 14.6-14.6 38.81 38.81 0 0 1 20-5.4h64a38.81 38.81 0 0 1 20 5.4zm-100.9 17.6a23 23 0 0 0 -7.1 17v48a24.25 24.25 0 0 0 24 24h64a23 23 0 0 0 17-7.1 23.23 23.23 0 0 0 7-16.9v-48a23.9 23.9 0 0 0 -24-24h-64a23.23 23.23 0 0 0 -16.9 7zm26.9-55v16h-16v-16zm60 0v16h-16v-16z"/><path d="m401 1760h17l-38-128h-76l-38 128h17l11.9-40h94.26zm-101.34-56 16.66-56h51.54l16.57 56z"/><path d="m436 1408 54.4 64h-20l-46-51.6-46.2 51.6h-20l54.6-64-54.4-64h20l46 51.6 45.8-51.6h20.2z"/><path d="m266.24 1344v112h-15.48l-42.52-71.6-42.52 71.6h-15.48v-112h-16v112 16h16 8 16l34-57.2 34 57.2h16 8 16v-16-112z"/><path d="m855.76 1456h110v16h-136v-16l110-96h-110v-16h136v16z"/><path d="m671.38 1414.8v57.2h-16v-57.2l-58-70.8h20l46 52.8 46-52.8h20z"/><path d="m1009 1088-33.32 112h-47.54l-33.14-112h-17l38 128h16 40 16l38-128z"/><path d="m686 1088v88a24.25 24.25 0 0 0 24 24h64a23 23 0 0 0 17-7.1 23.23 23.23 0 0 0 7-16.9v-88h16v88a38.81 38.81 0 0 1 -5.4 20 40.39 40.39 0 0 1 -14.6 14.6 38.81 38.81 0 0 1 -20 5.4h-64a38.81 38.81 0 0 1 -20-5.4 40.39 40.39 0 0 1 -14.6-14.6 38.81 38.81 0 0 1 -5.4-20v-88z"/><path d="m606 1104h-60v112h-16v-112h-60v-16h136z"/><path d="m384.1 1194.1a20 20 0 0 0 -14.1-34.1h-56a34.43 34.43 0 0 1 -18-4.9 37.36 37.36 0 0 1 -13.1-13.1 35.51 35.51 0 0 1 0-36 37.36 37.36 0 0 1 13.1-13.1 34.43 34.43 0 0 1 18-4.9h76v16h-76a20 20 0 0 0 0 40h56a34.43 34.43 0 0 1 18 4.9 37.36 37.36 0 0 1 13.1 13.1 35.51 35.51 0 0 1 0 36 37.36 37.36 0 0 1 -13.1 13.1 34.43 34.43 0 0 1 -18 4.9h-92v-16h92a19.24 19.24 0 0 0 14.1-5.9z"/><path d="m196 1092.9a37.36 37.36 0 0 1 13.1 13.1 35.51 35.51 0 0 1 0 36 37.36 37.36 0 0 1 -13.1 13.1 34.43 34.43 0 0 1 -18 4.9h-1.2l33.2 56h-18l-33.2-56h-68.8v56h-16v-128h104a34.43 34.43 0 0 1 18 4.9zm-3.9 45.2a20 20 0 0 0 -14.1-34.1h-88v40h88a19.24 19.24 0 0 0 14.1-5.9z"/><path d="m196.1 832h-8-16l-34 57.2-34-57.2h-16-8-16v16 112h16v-112h15.48l42.52 71.6 42.52-71.6h15.48v112h16v-112-16z"/><path d="m1035.9 960-9.67-16.28a43.61 43.61 0 0 0 2.47-3.72 38.81 38.81 0 0 0 5.4-20v-48a38.81 38.81 0 0 0 -5.4-20 40.39 40.39 0 0 0 -14.6-14.6 38.81 38.81 0 0 0 -20-5.4h-64a38.81 38.81 0 0 0 -20 5.4 40.39 40.39 0 0 0 -14.6 14.6 38.81 38.81 0 0 0 -5.4 20v48a38.81 38.81 0 0 0 5.4 20 40.39 40.39 0 0 0 14.6 14.6 38.81 38.81 0 0 0 20 5.4h64a38.81 38.81 0 0 0 20-5.4l.43-.27 3.37 5.67zm-24.8-105a23.13 23.13 0 0 1 7 17v48a23.81 23.81 0 0 1 -1.3 7.85l-47.45-79.85h24.75a23.13 23.13 0 0 1 17 7zm-17 89h-64a24.25 24.25 0 0 1 -24-24v-48a23 23 0 0 1 7.1-17 23.23 23.23 0 0 1 16.9-7h21.25l55 92.63a23 23 0 0 1 -12.25 3.37z"/><path d="m602.1 837.4a40.39 40.39 0 0 1 14.6 14.6 38.81 38.81 0 0 1 5.4 20v48a38.81 38.81 0 0 1 -5.4 20 40.39 40.39 0 0 1 -14.6 14.6 38.81 38.81 0 0 1 -20 5.4h-64a38.81 38.81 0 0 1 -20-5.4 40.39 40.39 0 0 1 -14.6-14.6 38.81 38.81 0 0 1 -5.4-20v-48a38.81 38.81 0 0 1 5.4-20 40.39 40.39 0 0 1 14.6-14.6 38.81 38.81 0 0 1 20-5.4h64a38.81 38.81 0 0 1 20 5.4zm-100.9 17.6a23 23 0 0 0 -7.1 17v48a24.25 24.25 0 0 0 24 24h64a23 23 0 0 0 17-7.1 23.23 23.23 0 0 0 7-16.9v-48a23.9 23.9 0 0 0 -24-24h-64a23.23 23.23 0 0 0 -16.9 7z"/><path d="m398.1 832v112h-15.48l-66.52-112h-16-8-16v16 112h16v-112h15.48l66.52 112h16 8 16v-16-112z"/><path d="m686.1 832h104a34.43 34.43 0 0 1 18 4.9 37.36 37.36 0 0 1 13.1 13.1 35.51 35.51 0 0 1 0 36 37.36 37.36 0 0 1 -13.1 13.1 34.43 34.43 0 0 1 -18 4.9h-88v56h-16zm118.1 50.1a20 20 0 0 0 -14.1-34.1h-88v40h88a19.24 19.24 0 0 0 14.1-5.9z"/><path d="m972.8 1944v16h-88v-16z"/><path d="m756.8 1998v20h-20v-20zm-1.8-94v74h-16v-90h16z"/><path d="m295.2 1942v20h-20v-20zm0 56v20h-20v-20z"/><path d="m147.2 1996v20h-20v-20z"/><path d="m597 2036h-17l12-40h16.8zm11.8-92v16h-16v-16z"/><path d="m440.2 2036h-17l12-40h16.8z"/></g></svg>