<svg id="Ebene_1" data-name="Ebene 1" xmlns="http://www.w3.org/2000/svg" viewBox="0 0 1100 2100"><defs><style>.cls-1{fill:#fff;}</style></defs><path class="cls-1" d="M890,576V688h48v16H874V576Z"/><path class="cls-1" d="M684,576v56h19.8L723,576h17l-23.2,62.2L756,704H738l-33.2-56H684v56H668V576Z"/><path class="cls-1" d="M550,576v88a38.81,38.81,0,0,1-5.4,20A40.39,40.39,0,0,1,530,698.6a38.81,38.81,0,0,1-20,5.4V688a23.9,23.9,0,0,0,24-24V592H486V576Z"/><path class="cls-1" d="M368,592V704H352V576h16Z"/><path class="cls-1" d="M178,576v56h40V576h16V704H218V648H178v56H162V576Z"/><path class="cls-1" d="M367,192h17L346,64H330L292,192h17l11.84-40h34.29Zm-41.43-56L338,94.14,350.38,136Z"/><path class="cls-1" d="M549,68.9A37.36,37.36,0,0,1,562.1,82a34.43,34.43,0,0,1,4.9,18,36.07,36.07,0,0,1-2.6,13.5,33.24,33.24,0,0,1-7.4,11.3,36.32,36.32,0,0,1,13.1,13.1A34.93,34.93,0,0,1,575,156a34.43,34.43,0,0,1-4.9,18A37.36,37.36,0,0,1,557,187.1a34.43,34.43,0,0,1-18,4.9H503V64h28A34.43,34.43,0,0,1,549,68.9ZM519,120h12a19.94,19.94,0,0,0,14.1-34.1A19.24,19.24,0,0,0,531,80H519Zm0,56h20a20,20,0,0,0,0-40H519Z"/><path class="cls-1" d="M699.4,84A40.39,40.39,0,0,1,714,69.4,38.81,38.81,0,0,1,734,64h.2a38.81,38.81,0,0,1,20,5.4A40.39,40.39,0,0,1,768.8,84a38.81,38.81,0,0,1,5.4,20h-16a23.9,23.9,0,0,0-24-24H734a23.23,23.23,0,0,0-16.9,7,23,23,0,0,0-7.1,17v48a23.22,23.22,0,0,0,3.3,12,24.19,24.19,0,0,0,8.8,8.8A23.29,23.29,0,0,0,734,176h2a24.24,24.24,0,0,0,24.2-24v-8h16v8a38.81,38.81,0,0,1-5.4,20,40.13,40.13,0,0,1-14.7,14.6A39.35,39.35,0,0,1,736,192h-2a38.81,38.81,0,0,1-20-5.4A40.39,40.39,0,0,1,699.4,172a38.81,38.81,0,0,1-5.4-20V104A38.81,38.81,0,0,1,699.4,84Z"/><path class="cls-1" d="M823.2,424.9a23.23,23.23,0,0,0,7-16.9V392H806V376h40.2v32a38.81,38.81,0,0,1-5.4,20,40.39,40.39,0,0,1-14.6,14.6,38.81,38.81,0,0,1-20,5.4H806a38.81,38.81,0,0,1-20-5.4A40.39,40.39,0,0,1,771.4,428a38.81,38.81,0,0,1-5.4-20V360a38.81,38.81,0,0,1,5.4-20A40.39,40.39,0,0,1,786,325.4a38.81,38.81,0,0,1,20-5.4h.2v16H806a23.23,23.23,0,0,0-16.9,7,23,23,0,0,0-7.1,17v48a24.25,24.25,0,0,0,24,24h.2A23,23,0,0,0,823.2,424.9Z"/><path class="cls-1" d="M648.67,320v16h-56v40h40v16h-40v56h-16V320Z"/><path class="cls-1" d="M459.33,320v16h-56v40h40v16h-40v40h56v16h-72V320Z"/><path class="cls-1" d="M250,325.4A40.39,40.39,0,0,1,264.6,340a38.81,38.81,0,0,1,5.4,20v48a38.81,38.81,0,0,1-5.4,20A40.39,40.39,0,0,1,250,442.6a38.81,38.81,0,0,1-20,5.4H190V320h40A38.81,38.81,0,0,1,250,325.4ZM206,432h24a23,23,0,0,0,17-7.1,23.23,23.23,0,0,0,7-16.9V360a23.9,23.9,0,0,0-24-24H206Z"/><path class="cls-1" d="M737.9,1632v88a24.25,24.25,0,0,0,24,24h.2a23.9,23.9,0,0,0,24-24v-88h16v88a38.81,38.81,0,0,1-5.4,20,40.58,40.58,0,0,1-14.5,14.6,38.67,38.67,0,0,1-20.1,5.4h-.2a38.81,38.81,0,0,1-20-5.4,40.39,40.39,0,0,1-14.6-14.6,38.81,38.81,0,0,1-5.4-20v-88Zm16-32v16h-16v-16Zm32.2,0v16h-16v-16Z"/><path class="cls-1" d="M575.05,1637.4a40.39,40.39,0,0,1,14.6,14.6,38.81,38.81,0,0,1,5.4,20v48a38.81,38.81,0,0,1-5.4,20,40.39,40.39,0,0,1-14.6,14.6,38.81,38.81,0,0,1-20,5.4h-.2a38.81,38.81,0,0,1-20-5.4,40.39,40.39,0,0,1-14.6-14.6,38.81,38.81,0,0,1-5.4-20v-48a38.81,38.81,0,0,1,5.4-20,40.39,40.39,0,0,1,14.6-14.6,38.81,38.81,0,0,1,20-5.4h.2A38.81,38.81,0,0,1,575.05,1637.4Zm-28.2-37.4v16h-16v-16Zm-8.9,55a23,23,0,0,0-7.1,17v48a24.25,24.25,0,0,0,24,24h.2a23,23,0,0,0,17-7.1,23.23,23.23,0,0,0,7-16.9v-48a23.9,23.9,0,0,0-24-24h-.2A23.23,23.23,0,0,0,538,1655Zm40.9-55v16h-16v-16Z"/><path class="cls-1" d="M334,1632h16l.4,1.6L313,1760H296Zm0-32v16H318v-16Zm32,104v16H318v-16Zm-16-72,38,128H371l-37.4-126.2.4-1.8Zm0,0v16H334v-16Zm16-32v16H350v-16Z"/><path class="cls-1" d="M463.35,1408l32.4,64h-18l-25-46.8-25,46.8h-18l32.4-64-32.4-64h18l25,46.8,25-46.8h18Z"/><path class="cls-1" d="M162.24,1472V1344h16v128Zm0-3.8,46-86.6,46,86.6v3.8h-16l-30-56.4-30,56.4h-16Zm0,3.8v-16h16v16Zm76,0V1344h16v128Zm0,0v-16h16v16Z"/><path class="cls-1" d="M912.56,1456h53.2v16h-72v-16l53.2-96h-53.2v-16h72v16Z"/><path class="cls-1" d="M702.65,1418v54h-16v-54l-35.4-74h17l26.4,53.8,26.6-53.8h17Z"/><path class="cls-1" d="M960.4,1214.4l-.4,1.6H944l-38-128h17Zm-.4,1.6H944l-.6-1.6L981,1088h17Zm0-16v16H944v-16Z"/><path class="cls-1" d="M710.85,1088v88a24.25,24.25,0,0,0,24,24h.2a23.9,23.9,0,0,0,24-24v-88h16v88a38.81,38.81,0,0,1-5.4,20,40.58,40.58,0,0,1-14.5,14.6,38.67,38.67,0,0,1-20.1,5.4h-.2a38.81,38.81,0,0,1-20-5.4,40.39,40.39,0,0,1-14.6-14.6,38.81,38.81,0,0,1-5.4-20v-88Z"/><path class="cls-1" d="M563.9,1104h-28v112h-16V1104h-28v-16h72Z"/><path class="cls-1" d="M339.05,1194.1A20,20,0,0,0,325,1160h-8a34.43,34.43,0,0,1-18-4.9,37.36,37.36,0,0,1-13.1-13.1,35.51,35.51,0,0,1,0-36,37.36,37.36,0,0,1,13.1-13.1,34.43,34.43,0,0,1,18-4.9h24v16H317a20,20,0,0,0,0,40h8a34.43,34.43,0,0,1,18,4.9,37.36,37.36,0,0,1,13.1,13.1,35.51,35.51,0,0,1,0,36,37.36,37.36,0,0,1-13.1,13.1,34.43,34.43,0,0,1-18,4.9H281v-16h44A19.24,19.24,0,0,0,339.05,1194.1Z"/><path class="cls-1" d="M132,1092.9a37.36,37.36,0,0,1,13.1,13.1,34.43,34.43,0,0,1,4.9,18,35.43,35.43,0,0,1-2.8,14,36.69,36.69,0,0,1-7.9,11.7,34,34,0,0,1-11.7,7.7L145,1216H128l-16.6-56H90v56H74V1088h40A34.43,34.43,0,0,1,132,1092.9Zm-3.9,45.2A20,20,0,0,0,114,1104H90v40h24A19.24,19.24,0,0,0,128.1,1138.1Z"/><polygon class="cls-1" points="168.1 832 138.1 888.4 108.1 832 92.1 832 92.1 835.8 92.1 848 92.1 960 108.1 960 108.1 865.92 138.1 922.4 168.1 865.92 168.1 960 184.1 960 184.1 848 184.1 835.8 184.1 832 168.1 832"/><path class="cls-1" d="M1035.9,960l-9.67-16.28a43.61,43.61,0,0,0,2.47-3.72,38.81,38.81,0,0,0,5.4-20V872a38.81,38.81,0,0,0-5.4-20,40.39,40.39,0,0,0-14.6-14.6,38.81,38.81,0,0,0-20-5.4h-.2a38.81,38.81,0,0,0-20,5.4A40.39,40.39,0,0,0,959.3,852a38.81,38.81,0,0,0-5.4,20v48a38.81,38.81,0,0,0,5.4,20,40.39,40.39,0,0,0,14.6,14.6,38.81,38.81,0,0,0,20,5.4h.2a38.81,38.81,0,0,0,20-5.4l.43-.27,3.37,5.67Zm-42-112h.2a23.9,23.9,0,0,1,24,24v48a23.81,23.81,0,0,1-1.3,7.85l-41.89-70.5A24.09,24.09,0,0,1,977,855,23.23,23.23,0,0,1,993.9,848Zm.2,96h-.2a24.25,24.25,0,0,1-24-24V879.1l36.51,61.53A23.08,23.08,0,0,1,994.1,944Z"/><path class="cls-1" d="M592,837.4A40.39,40.39,0,0,1,606.6,852a38.81,38.81,0,0,1,5.4,20v48a38.81,38.81,0,0,1-5.4,20A40.39,40.39,0,0,1,592,954.6a38.81,38.81,0,0,1-20,5.4h-.2a38.81,38.81,0,0,1-20-5.4A40.39,40.39,0,0,1,537.2,940a38.81,38.81,0,0,1-5.4-20V872a38.81,38.81,0,0,1,5.4-20,40.39,40.39,0,0,1,14.6-14.6,38.81,38.81,0,0,1,20-5.4h.2A38.81,38.81,0,0,1,592,837.4ZM554.9,855a23,23,0,0,0-7.1,17v48a24.25,24.25,0,0,0,24,24h.2a23,23,0,0,0,17-7.1,23.23,23.23,0,0,0,7-16.9V872a23.9,23.9,0,0,0-24-24h-.2A23.23,23.23,0,0,0,554.9,855Z"/><polygon class="cls-1" points="382.95 832 382.95 926.39 332.95 832 316.95 832 316.95 835.4 316.95 848 316.95 960 332.95 960 332.95 865.61 382.95 960 398.95 960 398.95 956.6 398.95 944 398.95 832 382.95 832"/><path class="cls-1" d="M744.85,832h40.2a34.43,34.43,0,0,1,18,4.9,37.36,37.36,0,0,1,13.1,13.1,35.51,35.51,0,0,1,0,36,37.36,37.36,0,0,1-13.1,13.1,34.43,34.43,0,0,1-18,4.9h-24.2v56h-16Zm54.3,50.1a20,20,0,0,0-14.1-34.1h-24.2v40h24.2A19.24,19.24,0,0,0,799.15,882.1Z"/><path class="cls-1" d="M295.2,1942v20h-20v-20Zm0,56v20h-20v-20Z"/><path class="cls-1" d="M147.2,1996v20h-20v-20Z"/><path class="cls-1" d="M597,2036H580l12-40h16.8Zm11.8-92v16h-16v-16Z"/><path class="cls-1" d="M956.8,1944v16h-56v-16Z"/><path class="cls-1" d="M440.2,2036h-17l12-40H452Z"/><path class="cls-1" d="M756.8,1998v20h-20v-20Zm-1.8-94v70H739v-86h16Z"/></svg>