<svg viewBox="0 0 1100 2100" xmlns="http://www.w3.org/2000/svg"><g fill="#fff"><g opacity=".6"><path d="m888 578v112h80v12h-92v-124zm2-2h-16v128h96v-16h-80z"/><path d="m786.49 578-36.21 61-.75 1.27 1 1.09 55 60.66h-14.6l-50.21-55.34-.59-.66h-68.13v56h-12v-124.02h12v56h67.94l.58-1 32.62-55zm3.51-2h-18l-33.2 56h-64.8v-56h-16v128h16v-56h65.2l50.8 56h20l-58-64z"/><path d="m592 578v86a36.92 36.92 0 0 1 -5.13 19 38.58 38.58 0 0 1 -13.87 13.88 37.06 37.06 0 0 1 -19 5.12h-62v-12h62a25.33 25.33 0 0 0 18.51-7.69 24.38 24.38 0 0 0 7.49-18.31v-74h-104v-12zm2-2h-120v16h104v72a22.41 22.41 0 0 1 -6.9 16.9 23.31 23.31 0 0 1 -17.1 7.1h-64v16h64a38.81 38.81 0 0 0 20-5.4 40.39 40.39 0 0 0 14.6-14.6 38.81 38.81 0 0 0 5.4-20z"/><path d="m408 578v12h-32v100h32v12h-76v-12h32v-100h-32v-12zm2-2h-80v16h32v96h-32v16h80v-16h-32v-96h32z"/><path d="m264 578v124h-12v-56h-108v56h-12v-124h12v56h108v-56zm2-2h-16v56h-104v-56h-16v128h16v-56h104v56h16z"/><path d="m374.51 66 36.81 124h-12.83l-11.41-38.57-.42-1.43h-97.25l-.43 1.43-11.47 38.57h-12.83l36.81-124h73m-81.49 72h90.13l-.76-2.57-16.57-56-.45-1.43h-54.53l-.42 1.43-16.66 56zm83-74h-76l-38 128h17l11.9-40h94.26l11.84 40h17zm-80.34 72 16.66-56h51.54l16.57 56z"/><path d="m578 66a32.58 32.58 0 0 1 17 4.62 35.51 35.51 0 0 1 12.38 12.38 32.64 32.64 0 0 1 4.62 17 33.06 33.06 0 0 1 -1.88 11.13 37.42 37.42 0 0 1 -5.32 9.87l-1.62 2.15 2.53.93a34.2 34.2 0 0 1 22.29 31.92 32.52 32.52 0 0 1 -4.62 17 35.46 35.46 0 0 1 -12.38 12.38 32.52 32.52 0 0 1 -17 4.62h-114v-124zm-86 56h86a21.23 21.23 0 0 0 15.51-6.49 22 22 0 0 0 0-31.23 20.56 20.56 0 0 0 -15-6.29h-86.51v44m0 56h102a22 22 0 0 0 0-44h-102zm86-113.99h-100v128h116a34.43 34.43 0 0 0 18-4.9 37.36 37.36 0 0 0 13.1-13.1 34.43 34.43 0 0 0 4.9-18 34.94 34.94 0 0 0 -6.6-20.7 35.32 35.32 0 0 0 -17-13.1 39.19 39.19 0 0 0 5.6-10.4 34.9 34.9 0 0 0 2-11.8 34.43 34.43 0 0 0 -4.9-18 37.36 37.36 0 0 0 -13.1-13.1 34.43 34.43 0 0 0 -18-4.9zm-84 56v-40h84.53a18.57 18.57 0 0 1 13.57 5.7 19.24 19.24 0 0 1 5.9 14.1 19.48 19.48 0 0 1 -5.9 14.3 19.24 19.24 0 0 1 -14.1 5.9zm0 56v-40h100a20 20 0 0 1 0 40z"/><path d="m796 66a37 37 0 0 1 19 5.12 38.69 38.69 0 0 1 13.88 13.88 37 37 0 0 1 5.12 17h-12a25.9 25.9 0 0 0 -26-24h-62a25.24 25.24 0 0 0 -18.3 7.58 25 25 0 0 0 -7.7 18.42v48a25.94 25.94 0 0 0 3.46 13 25.38 25.38 0 0 0 9.55 9.55 25.92 25.92 0 0 0 12.99 3.45h64a25 25 0 0 0 18.42-7.7 25.24 25.24 0 0 0 7.58-18.3v-6h12v6a37 37 0 0 1 -5.12 19 38.58 38.58 0 0 1 -13.88 13.87 36.94 36.94 0 0 1 -19 5.13h-64a36.92 36.92 0 0 1 -19-5.13 38.48 38.48 0 0 1 -13.87-13.87 36.92 36.92 0 0 1 -5.13-19v-48a37 37 0 0 1 5.13-19 38.58 38.58 0 0 1 13.87-13.88 37 37 0 0 1 19-5.12zm0-2h-62a38.81 38.81 0 0 0 -20 5.4 40.39 40.39 0 0 0 -14.6 14.6 38.81 38.81 0 0 0 -5.4 20v48a38.81 38.81 0 0 0 5.4 20 40.39 40.39 0 0 0 14.6 14.6 38.81 38.81 0 0 0 20 5.4h64a38.81 38.81 0 0 0 20-5.4 40.39 40.39 0 0 0 14.6-14.6 38.81 38.81 0 0 0 5.4-20v-8h-16v8a23.23 23.23 0 0 1 -7 16.9 23 23 0 0 1 -17 7.1h-64a23.81 23.81 0 0 1 -12-3.2 23.24 23.24 0 0 1 -8.8-8.8 23.81 23.81 0 0 1 -3.2-12v-48a23 23 0 0 1 7.1-17 23.23 23.23 0 0 1 16.9-7h62a23.9 23.9 0 0 1 24 24h16a38.81 38.81 0 0 0 -5.4-20 40.39 40.39 0 0 0 -14.6-14.6 38.81 38.81 0 0 0 -20-5.4z"/><path d="m868 322v12h-62a25.24 25.24 0 0 0 -18.3 7.58 25 25 0 0 0 -7.7 18.42v48a26.26 26.26 0 0 0 26 26h64a25 25 0 0 0 18.42-7.7 25.24 25.24 0 0 0 7.58-18.3v-18h-56v-12h68v30a37 37 0 0 1 -5.12 19 38.58 38.58 0 0 1 -13.88 13.87 36.94 36.94 0 0 1 -19 5.13h-64a36.92 36.92 0 0 1 -19-5.13 38.48 38.48 0 0 1 -13.87-13.87 36.92 36.92 0 0 1 -5.13-19v-48a37 37 0 0 1 5.13-19 38.58 38.58 0 0 1 13.87-13.88 37 37 0 0 1 19-5.12zm2-2h-64a38.81 38.81 0 0 0 -20 5.4 40.39 40.39 0 0 0 -14.6 14.6 38.81 38.81 0 0 0 -5.4 20v48a38.81 38.81 0 0 0 5.4 20 40.39 40.39 0 0 0 14.6 14.6 38.81 38.81 0 0 0 20 5.4h64a38.81 38.81 0 0 0 20-5.4 40.39 40.39 0 0 0 14.6-14.6 38.81 38.81 0 0 0 5.4-20v-32h-72v16h56v16a23.23 23.23 0 0 1 -7 16.9 23 23 0 0 1 -17 7.1h-64a24.25 24.25 0 0 1 -24-24v-48a23 23 0 0 1 7.1-17 23.23 23.23 0 0 1 16.9-7h64z"/><path d="m700 322v12h-104v44h88v12h-88v56h-12v-124zm2-2h-120v128h16v-56h88v-16h-88v-40h104z"/><path d="m516 322v12h-104v44h88v12h-88v44h104v12h-116v-124zm2-2h-120v128h120v-16h-104v-40h88v-16h-88v-40h104z"/><path d="m294 322a37 37 0 0 1 19 5.12 38.69 38.69 0 0 1 13.88 13.88 37 37 0 0 1 5.12 19v48a37 37 0 0 1 -5.12 19 38.58 38.58 0 0 1 -13.88 13.87 36.94 36.94 0 0 1 -19 5.13h-102v-124zm-90 112h90a25 25 0 0 0 18.42-7.7 25.24 25.24 0 0 0 7.58-18.3v-48a25.9 25.9 0 0 0 -26-26h-90zm90-114h-104v128h104a38.81 38.81 0 0 0 20-5.4 40.39 40.39 0 0 0 14.6-14.6 38.81 38.81 0 0 0 5.4-20v-48a38.81 38.81 0 0 0 -5.4-20 40.39 40.39 0 0 0 -14.6-14.6 38.81 38.81 0 0 0 -20-5.4zm-88 112v-96h88a23.9 23.9 0 0 1 24 24v48a23.23 23.23 0 0 1 -7 16.9 23 23 0 0 1 -17 7.1z"/><path d="m798 1602v12h-12v-12zm-60 0v12h-12v-12zm94 32v86a36.92 36.92 0 0 1 -5.13 19 38.58 38.58 0 0 1 -13.87 13.88 37.06 37.06 0 0 1 -19 5.12h-64a37 37 0 0 1 -19-5.12 38.5 38.5 0 0 1 -13.87-13.88 36.92 36.92 0 0 1 -5.13-19v-86h12v86a26.26 26.26 0 0 0 26 26h64a25 25 0 0 0 18.42-7.7 25.24 25.24 0 0 0 7.58-18.3v-86zm-32-34h-16v16h16zm-60 0h-16v16h16zm94 32h-16v88a23.23 23.23 0 0 1 -7 16.9 23 23 0 0 1 -17 7.1h-64a24.25 24.25 0 0 1 -24-24v-88h-16v88a38.81 38.81 0 0 0 5.4 20 40.39 40.39 0 0 0 14.6 14.6 38.81 38.81 0 0 0 20 5.4h64a38.81 38.81 0 0 0 20-5.4 40.39 40.39 0 0 0 14.6-14.6 38.81 38.81 0 0 0 5.4-20z"/><path d="m590 1602v12h-12v-12zm-60 0v12h-12v-12zm56 32a37 37 0 0 1 19 5.13 38.48 38.48 0 0 1 13.87 13.87 37 37 0 0 1 5.13 19v48a36.92 36.92 0 0 1 -5.13 19 38.58 38.58 0 0 1 -13.87 13.88 37.06 37.06 0 0 1 -19 5.12h-64a37 37 0 0 1 -19-5.12 38.5 38.5 0 0 1 -13.87-13.88 36.92 36.92 0 0 1 -5.13-19v-48a37 37 0 0 1 5.13-19 38.48 38.48 0 0 1 13.87-13.87 36.92 36.92 0 0 1 19-5.13zm-64 112h64a25 25 0 0 0 18.42-7.7 25.24 25.24 0 0 0 7.58-18.3v-48a25.91 25.91 0 0 0 -26-26h-64a25.24 25.24 0 0 0 -18.3 7.58 25 25 0 0 0 -7.7 18.42v48a26.26 26.26 0 0 0 26 26m70-146h-16v16h16zm-60 0h-16v16h16zm54 32h-64a38.81 38.81 0 0 0 -20 5.4 40.39 40.39 0 0 0 -14.6 14.6 38.81 38.81 0 0 0 -5.4 20v48a38.81 38.81 0 0 0 5.4 20 40.39 40.39 0 0 0 14.6 14.6 38.81 38.81 0 0 0 20 5.4h64a38.81 38.81 0 0 0 20-5.4 40.39 40.39 0 0 0 14.6-14.6 38.81 38.81 0 0 0 5.4-20v-48a38.81 38.81 0 0 0 -5.4-20 40.39 40.39 0 0 0 -14.6-14.6 38.81 38.81 0 0 0 -20-5.4zm-64 112a24.25 24.25 0 0 1 -24-24v-48a23 23 0 0 1 7.1-17 23.23 23.23 0 0 1 16.9-7h64a23.9 23.9 0 0 1 24 24v48a23.23 23.23 0 0 1 -7 16.9 23 23 0 0 1 -17 7.1z"/><path d="m378.51 1634 36.81 124h-12.83l-11.41-38.57-.42-1.43h-97.25l-.43 1.43-11.47 38.57h-12.83l36.81-124h73m-81.49 72h90.13l-.76-2.57-16.57-56-.42-1.43h-54.55l-.43 1.43-16.66 56zm83-74h-76l-38 128h17l11.9-40h94.26l11.84 40h17zm-80.34 72 16.66-56h51.54l16.57 56z"/><path d="m486.12 1346-51.6 60.71-1.1 1.29 1.1 1.3 51.6 60.7h-14.78l-45.41-50.93-1.49-1.67-1.49 1.67-45.6 50.93h-14.77l51.78-60.7 1.11-1.3-1.1-1.29-51.6-60.71h14.77l45.46 50.93 1.49 1.68 1.5-1.68 45.2-50.93h15m4.32-2h-20.2l-45.8 51.6-46-51.6h-20l54.4 64-54.6 64h20l46.2-51.6 46 51.6h20l-54.51-64 54.4-64z"/><path d="m280.24 1346v124h-36.86l-33.38-56.22-1.72-2.89-1.72 2.89-33.46 56.22h-36.86v-124h12v112h18.62l.58-1 40.8-68.7 40.76 68.7.58 1h18.62v-112h12m2-2h-16v112h-15.44l-42.52-71.6-42.52 71.6h-15.48v-112h-16v128h40l34-57.2 34 57.2h40v-128z"/><path d="m963.76 1346v13.09l-109.32 95.4-4 3.51h113.32v12h-132v-13.09l109.32-95.4 4-3.51h-113.32v-12zm2-2h-136v16h110l-110 96v16h136v-16h-110l110-96z"/><path d="m725.16 1346-55.32 67.53-.46.55v55.92h-12v-55.92l-.45-.55-55.32-67.53h14.86l45.41 52.11 1.5 1.73 1.51-1.73 45.4-52.11zm4.22-2h-20l-46 52.8-46-52.8h-20l58 70.8v57.2h16v-57.2z"/><path d="m1023.32 1090-36.81 124h-69l-36.81-124h12.83l32.71 110.57.42 1.43h50.53l.43-1.43 32.87-110.57zm2.68-2h-17l-33.32 112h-47.54l-33.14-112h-17l38 128h72z"/><path d="m812 1090v86a37 37 0 0 1 -5.12 19 38.58 38.58 0 0 1 -13.88 13.87 37 37 0 0 1 -19 5.13h-64a36.94 36.94 0 0 1 -19-5.13 38.58 38.58 0 0 1 -13.88-13.87 37 37 0 0 1 -5.12-19v-86h12v86a26.26 26.26 0 0 0 26 26h64a25 25 0 0 0 18.42-7.7 25.24 25.24 0 0 0 7.58-18.3v-86zm2-2h-16v88a23.23 23.23 0 0 1 -7 16.9 23 23 0 0 1 -17 7.1h-64a24.25 24.25 0 0 1 -24-24v-88h-16v88a38.81 38.81 0 0 0 5.4 20 40.39 40.39 0 0 0 14.6 14.6 38.81 38.81 0 0 0 20 5.4h64a38.81 38.81 0 0 0 20-5.4 40.39 40.39 0 0 0 14.6-14.6 38.81 38.81 0 0 0 5.4-20z"/><path d="m604 1090v12h-60v112h-12v-112h-60v-12zm2-2h-136v16h60v112h16v-112h60z"/><path d="m388 1090v12h-74a22 22 0 0 0 0 44h56a32.58 32.58 0 0 1 17 4.62 35.51 35.51 0 0 1 12.41 12.4 33.5 33.5 0 0 1 0 34 35.46 35.46 0 0 1 -12.41 12.36 32.52 32.52 0 0 1 -17 4.62h-90v-12h90a22 22 0 0 0 0-44h-56a32.52 32.52 0 0 1 -17-4.62 35.46 35.46 0 0 1 -12.38-12.38 33.48 33.48 0 0 1 0-33.94 35.46 35.46 0 0 1 12.38-12.44 32.52 32.52 0 0 1 17-4.62zm2-2h-76a34.43 34.43 0 0 0 -18 4.9 37.36 37.36 0 0 0 -13.1 13.1 35.51 35.51 0 0 0 0 36 37.36 37.36 0 0 0 13.1 13.1 34.43 34.43 0 0 0 18 4.9h56a20 20 0 0 1 0 40h-92v16h92a34.43 34.43 0 0 0 18-4.9 37.36 37.36 0 0 0 13.1-13.1 35.51 35.51 0 0 0 0-36 37.36 37.36 0 0 0 -13.1-13.1 34.43 34.43 0 0 0 -18-4.9h-56a20 20 0 0 1 0-40h76z"/><path d="m178 1090a32.58 32.58 0 0 1 17 4.62 35.51 35.51 0 0 1 12.41 12.4 33.5 33.5 0 0 1 0 34 35.37 35.37 0 0 1 -12.41 12.36 32.52 32.52 0 0 1 -17 4.62h-4.71l1.79 3 31.41 53h-13.35l-32.62-55-.58-1h-71.94v56h-12v-124zm-90 56h90a22 22 0 0 0 0-44h-90zm90-58h-104v128h16v-56h68.8l33.2 56h18l-33.2-56h1.2a34.43 34.43 0 0 0 18-4.9 37.36 37.36 0 0 0 13.1-13.1 35.51 35.51 0 0 0 0-36 37.36 37.36 0 0 0 -13.1-13.1 34.43 34.43 0 0 0 -18-4.9zm-88 56v-40h88a20 20 0 0 1 0 40z"/><path d="m210.1 834v124h-12v-112h-18.62l-.58 1-40.8 68.7-40.8-68.7-.58-1h-18.62v112h-12v-124h36.9l33.42 56.22 1.72 2.89 1.72-2.89 33.38-56.22zm2-2h-40l-34 57.2-34-57.2h-40v128h16v-112h15.48l42.52 71.6 42.52-71.6h15.48v112h16z"/><path d="m994.1 834a37 37 0 0 1 19 5.12 38.69 38.69 0 0 1 13.9 13.88 37 37 0 0 1 5.12 19v48a37 37 0 0 1 -5.12 19 41 41 0 0 1 -2.36 3.54l-.79 1.07.68 1.14 7.88 13.26h-13.41l-2.79-4.69-1-1.73-1.72 1-.25.16-.16.1a37.06 37.06 0 0 1 -19 5.12h-64a37 37 0 0 1 -19-5.12 38.5 38.5 0 0 1 -13.85-13.85 36.92 36.92 0 0 1 -5.13-19v-48a37 37 0 0 1 5.13-19 38.58 38.58 0 0 1 13.88-13.89 37 37 0 0 1 19-5.12h64m23.19 98.58 1.4-4.07a25.88 25.88 0 0 0 1.41-8.51v-47.99a25.9 25.9 0 0 0 -26-26h-28.27l1.8 3 47.44 79.86 2.21 3.7m-87.19 13.44h64a25.11 25.11 0 0 0 13.34-3.66l1.68-1-1-1.7-55-92.63-.58-1h-22.44a25.24 25.24 0 0 0 -18.3 7.58 25 25 0 0 0 -7.7 18.41v48a26.26 26.26 0 0 0 26 26m64-114h-64a38.81 38.81 0 0 0 -20 5.4 40.39 40.39 0 0 0 -14.6 14.6 38.81 38.81 0 0 0 -5.4 20v48a38.81 38.81 0 0 0 5.4 20 40.39 40.39 0 0 0 14.6 14.6 38.81 38.81 0 0 0 20 5.4h64a38.81 38.81 0 0 0 20-5.4l.43-.27 3.37 5.67h18l-9.67-16.28a43.61 43.61 0 0 0 2.47-3.72 38.81 38.81 0 0 0 5.4-20v-48a38.81 38.81 0 0 0 -5.4-20 40.39 40.39 0 0 0 -14.6-14.6 38.81 38.81 0 0 0 -20-5.4zm22.7 95.85-47.45-79.85h24.75a23.9 23.9 0 0 1 24 24v48a23.81 23.81 0 0 1 -1.3 7.85zm-86.7 16.15a24.25 24.25 0 0 1 -24-24v-48a23 23 0 0 1 7.1-17 23.23 23.23 0 0 1 16.9-7h21.25l55 92.63a23 23 0 0 1 -12.25 3.37z"/><path d="m582.1 834a37 37 0 0 1 19 5.12 38.69 38.69 0 0 1 13.9 13.88 37 37 0 0 1 5.12 19v48a37 37 0 0 1 -5.12 19 38.58 38.58 0 0 1 -13.89 13.88 36.94 36.94 0 0 1 -19 5.13h-64a36.92 36.92 0 0 1 -19-5.13 38.48 38.48 0 0 1 -13.88-13.88 36.94 36.94 0 0 1 -5.13-19v-48a36.94 36.94 0 0 1 5.13-19 38.5 38.5 0 0 1 13.88-13.89 37 37 0 0 1 19-5.12h64m-64 112h64a25 25 0 0 0 18.42-7.7 25.24 25.24 0 0 0 7.57-18.29v-48a25.9 25.9 0 0 0 -26-26h-64a25.24 25.24 0 0 0 -18.3 7.58 25 25 0 0 0 -7.7 18.42v48a26.26 26.26 0 0 0 26 26m64-114h-64a38.81 38.81 0 0 0 -20 5.4 40.39 40.39 0 0 0 -14.6 14.6 38.81 38.81 0 0 0 -5.4 20v48a38.81 38.81 0 0 0 5.4 20 40.39 40.39 0 0 0 14.6 14.6 38.81 38.81 0 0 0 20 5.4h64a38.81 38.81 0 0 0 20-5.4 40.39 40.39 0 0 0 14.6-14.6 38.81 38.81 0 0 0 5.4-20v-48a38.81 38.81 0 0 0 -5.4-20 40.39 40.39 0 0 0 -14.6-14.6 38.81 38.81 0 0 0 -20-5.4zm-64 112a24.25 24.25 0 0 1 -24-24v-48a23 23 0 0 1 7.1-17 23.23 23.23 0 0 1 16.9-7h64a23.9 23.9 0 0 1 24 24v48a23.23 23.23 0 0 1 -7 16.9 23 23 0 0 1 -17 7.1z"/><path d="m412.1 834v124h-36.86l-65.94-111-.58-1h-18.62v112h-12v-124h36.9l65.9 111 .58 1h18.62v-112zm2-2h-16v112h-15.48l-66.52-112h-40v128h16v-112h15.48l66.52 112h40z"/><path d="m790.1 834a32.58 32.58 0 0 1 17 4.62 35.51 35.51 0 0 1 12.38 12.38 33.5 33.5 0 0 1 0 34 35.46 35.46 0 0 1 -12.41 12.41 32.52 32.52 0 0 1 -17 4.62h-90v56h-12v-124.03h102m-90 56h90a22 22 0 0 0 0-44h-90zm90-58h-104v128h16v-56h88a34.43 34.43 0 0 0 18-4.9 37.36 37.36 0 0 0 13.13-13.1 35.51 35.51 0 0 0 0-36 37.36 37.36 0 0 0 -13.1-13.1 34.43 34.43 0 0 0 -18-4.9zm-88 56v-40h88a20 20 0 0 1 0 40z"/><path d="m970.8 1946v12h-84v-12zm2-2h-88v16h88z"/><path d="m753 1890v86h-12v-86zm1.8 110v16h-16v-16zm.2-112h-16v90h16zm1.8 110h-20v20h20z"/><path d="m147.2 1996v20h-20v-20z"/></g><path d="m890 576v112h48v16h-64v-128z"/><path d="m674 576v56h19.8l19.2-56h17l-23.2 62.2 39.2 65.8h-18l-33.2-56h-20.8v56h-16v-128z"/><path d="m594 576v88a38.81 38.81 0 0 1 -5.4 20 40.39 40.39 0 0 1 -14.6 14.6 38.81 38.81 0 0 1 -20 5.4v-16a23.9 23.9 0 0 0 24-24v-72h-48v-16z"/><path d="m378 592v112h-16v-128h16z"/><path d="m178 576v56h40v-56h16v128h-16v-56h-40v56h-16v-128z"/><path d="m367 192h17l-38-128h-16l-38 128h17l11.84-40h34.29zm-41.43-56 12.43-41.86 12.38 41.86z"/><path d="m524 68.9a37.36 37.36 0 0 1 13.1 13.1 34.43 34.43 0 0 1 4.9 18 36.07 36.07 0 0 1 -2.6 13.5 33.24 33.24 0 0 1 -7.4 11.3 36.32 36.32 0 0 1 13.1 13.1 34.93 34.93 0 0 1 4.9 18.1 34.43 34.43 0 0 1 -4.9 18 37.36 37.36 0 0 1 -13.1 13.1 34.43 34.43 0 0 1 -18 4.9h-36v-128h28a34.43 34.43 0 0 1 18 4.9zm-30 51.1h12a19.94 19.94 0 0 0 14.1-34.1 19.24 19.24 0 0 0 -14.1-5.9h-12zm0 56h20a20 20 0 0 0 0-40h-20z"/><path d="m699.4 84a40.39 40.39 0 0 1 14.6-14.6 38.81 38.81 0 0 1 20-5.4h.2a38.81 38.81 0 0 1 20 5.4 40.39 40.39 0 0 1 14.6 14.6 38.81 38.81 0 0 1 5.4 20h-16a23.9 23.9 0 0 0 -24-24h-.2a23.23 23.23 0 0 0 -16.9 7 23 23 0 0 0 -7.1 17v48a23.22 23.22 0 0 0 3.3 12 24.19 24.19 0 0 0 8.8 8.8 23.29 23.29 0 0 0 11.9 3.2h2a24.24 24.24 0 0 0 24.2-24v-8h16v8a38.81 38.81 0 0 1 -5.4 20 40.13 40.13 0 0 1 -14.7 14.6 39.35 39.35 0 0 1 -20.1 5.4h-2a38.81 38.81 0 0 1 -20-5.4 40.39 40.39 0 0 1 -14.6-14.6 38.81 38.81 0 0 1 -5.4-20v-48a38.81 38.81 0 0 1 5.4-20z"/><path d="m823.2 424.9a23.23 23.23 0 0 0 7-16.9v-16h-24.2v-16h40.2v32a38.81 38.81 0 0 1 -5.4 20 40.39 40.39 0 0 1 -14.6 14.6 38.81 38.81 0 0 1 -20 5.4h-.2a38.81 38.81 0 0 1 -20-5.4 40.39 40.39 0 0 1 -14.6-14.6 38.81 38.81 0 0 1 -5.4-20v-48a38.81 38.81 0 0 1 5.4-20 40.39 40.39 0 0 1 14.6-14.6 38.81 38.81 0 0 1 20-5.4h.2v16h-.2a23.23 23.23 0 0 0 -16.9 7 23 23 0 0 0 -7.1 17v48a24.25 24.25 0 0 0 24 24h.2a23 23 0 0 0 17-7.1z"/><path d="m654 320v16h-56v40h40v16h-40v56h-16v-128z"/><path d="m470 320v16h-56v40h40v16h-40v40h56v16h-72v-128z"/><path d="m250 325.4a40.39 40.39 0 0 1 14.6 14.6 38.81 38.81 0 0 1 5.4 20v48a38.81 38.81 0 0 1 -5.4 20 40.39 40.39 0 0 1 -14.6 14.6 38.81 38.81 0 0 1 -20 5.4h-40v-128h40a38.81 38.81 0 0 1 20 5.4zm-44 106.6h24a23 23 0 0 0 17-7.1 23.23 23.23 0 0 0 7-16.9v-48a23.9 23.9 0 0 0 -24-24h-24z"/><path d="m737.9 1632v88a24.25 24.25 0 0 0 24 24h.2a23.9 23.9 0 0 0 24-24v-88h16v88a38.81 38.81 0 0 1 -5.4 20 40.58 40.58 0 0 1 -14.5 14.6 38.67 38.67 0 0 1 -20.1 5.4h-.2a38.81 38.81 0 0 1 -20-5.4 40.39 40.39 0 0 1 -14.6-14.6 38.81 38.81 0 0 1 -5.4-20v-88zm16-32v16h-16v-16zm32.2 0v16h-16v-16z"/><path d="m574.2 1637.4a40.39 40.39 0 0 1 14.6 14.6 38.81 38.81 0 0 1 5.4 20v48a38.81 38.81 0 0 1 -5.4 20 40.39 40.39 0 0 1 -14.6 14.6 38.81 38.81 0 0 1 -20 5.4h-.2a38.81 38.81 0 0 1 -20-5.4 40.39 40.39 0 0 1 -14.6-14.6 38.81 38.81 0 0 1 -5.4-20v-48a38.81 38.81 0 0 1 5.4-20 40.39 40.39 0 0 1 14.6-14.6 38.81 38.81 0 0 1 20-5.4h.2a38.81 38.81 0 0 1 20 5.4zm-28.2-37.4v16h-16v-16zm-8.9 55a23 23 0 0 0 -7.1 17v48a24.25 24.25 0 0 0 24 24h.2a23 23 0 0 0 17-7.1 23.23 23.23 0 0 0 7-16.9v-48a23.9 23.9 0 0 0 -24-24h-.2a23.21 23.21 0 0 0 -16.9 7zm40.9-55v16h-16v-16z"/><path d="m334 1632h16l.4 1.6-37.4 126.4h-17zm0-32v16h-16v-16zm32 104v16h-48v-16zm-16-72 38 128h-17l-37.4-126.2.4-1.8zm0 0v16h-16v-16zm16-32v16h-16v-16z"/><path d="m434.94 1408 32.4 64h-18l-25-46.8-25 46.8h-18l32.4-64-32.4-64h18l25 46.8 25-46.8h18z"/><path d="m162.24 1472v-128h16v128zm0-3.8 46-86.6 46 86.6v3.8h-16l-30-56.4-30 56.4h-16zm0 3.8v-16h16v16zm76 0v-128h16v128zm0 0v-16h16v16z"/><path d="m912.56 1456h53.2v16h-72v-16l53.2-96h-53.2v-16h72v16z"/><path d="m671.28 1418v54h-16v-54l-35.4-74h17l26.4 53.8 26.6-53.8h17z"/><path d="m960.4 1214.4-.4 1.6h-16l-38-128h17zm-.4 1.6h-16l-.6-1.6 37.6-126.4h17zm0-16v16h-16v-16z"/><path d="m717.9 1088v88a24.25 24.25 0 0 0 24 24h.2a23.9 23.9 0 0 0 24-24v-88h16v88a38.81 38.81 0 0 1 -5.4 20 40.58 40.58 0 0 1 -14.5 14.6 38.67 38.67 0 0 1 -20.1 5.4h-.2a38.81 38.81 0 0 1 -20-5.4 40.39 40.39 0 0 1 -14.6-14.6 38.81 38.81 0 0 1 -5.4-20v-88z"/><path d="m574 1104h-28v112h-16v-112h-28v-16h72z"/><path d="m336.1 1194.1a20 20 0 0 0 -14.1-34.1h-8a34.43 34.43 0 0 1 -18-4.9 37.36 37.36 0 0 1 -13.1-13.1 35.51 35.51 0 0 1 0-36 37.36 37.36 0 0 1 13.1-13.1 34.43 34.43 0 0 1 18-4.9h24v16h-24a20 20 0 0 0 0 40h8a34.43 34.43 0 0 1 18 4.9 37.36 37.36 0 0 1 13.1 13.1 35.51 35.51 0 0 1 0 36 37.36 37.36 0 0 1 -13.1 13.1 34.43 34.43 0 0 1 -18 4.9h-44v-16h44a19.24 19.24 0 0 0 14.1-5.9z"/><path d="m132 1092.9a37.36 37.36 0 0 1 13.1 13.1 34.43 34.43 0 0 1 4.9 18 35.43 35.43 0 0 1 -2.8 14 36.69 36.69 0 0 1 -7.9 11.7 34 34 0 0 1 -11.7 7.7l17.4 58.6h-17l-16.6-56h-21.4v56h-16v-128h40a34.43 34.43 0 0 1 18 4.9zm-3.9 45.2a20 20 0 0 0 -14.1-34.1h-24v40h24a19.24 19.24 0 0 0 14.1-5.9z"/><path d="m168.1 832-30 56.4-30-56.4h-16v3.8 12.2 112h16v-94.08l30 56.48 30-56.48v94.08h16v-112-12.2-3.8z"/><path d="m1035.9 960-9.67-16.28a43.61 43.61 0 0 0 2.47-3.72 38.81 38.81 0 0 0 5.4-20v-48a38.81 38.81 0 0 0 -5.4-20 40.39 40.39 0 0 0 -14.6-14.6 38.81 38.81 0 0 0 -20-5.4h-.2a38.81 38.81 0 0 0 -20 5.4 40.39 40.39 0 0 0 -14.6 14.6 38.81 38.81 0 0 0 -5.4 20v48a38.81 38.81 0 0 0 5.4 20 40.39 40.39 0 0 0 14.6 14.6 38.81 38.81 0 0 0 20 5.4h.2a38.81 38.81 0 0 0 20-5.4l.43-.27 3.37 5.67zm-42-112h.2a23.9 23.9 0 0 1 24 24v48a23.81 23.81 0 0 1 -1.3 7.85l-41.89-70.5a24.09 24.09 0 0 1 2.09-2.35 23.23 23.23 0 0 1 16.9-7zm.2 96h-.2a24.25 24.25 0 0 1 -24-24v-40.9l36.51 61.53a23.08 23.08 0 0 1 -12.31 3.37z"/><path d="m570.2 837.4a40.39 40.39 0 0 1 14.6 14.6 38.81 38.81 0 0 1 5.4 20v48a38.81 38.81 0 0 1 -5.4 20 40.39 40.39 0 0 1 -14.6 14.6 38.81 38.81 0 0 1 -20 5.4h-.2a38.81 38.81 0 0 1 -20-5.4 40.39 40.39 0 0 1 -14.6-14.6 38.81 38.81 0 0 1 -5.4-20v-48a38.81 38.81 0 0 1 5.4-20 40.39 40.39 0 0 1 14.6-14.6 38.81 38.81 0 0 1 20-5.4h.2a38.81 38.81 0 0 1 20 5.4zm-37.1 17.6a23 23 0 0 0 -7.1 17v48a24.25 24.25 0 0 0 24 24h.2a23 23 0 0 0 17-7.1 23.23 23.23 0 0 0 7-16.9v-48a23.9 23.9 0 0 0 -24-24h-.2a23.23 23.23 0 0 0 -16.9 7z"/><path d="m342.1 832v94.39l-50-94.39h-16v3.4 12.6 112h16v-94.39l50 94.39h16v-3.4-12.6-112z"/><path d="m686.1 832h40.2a34.43 34.43 0 0 1 18 4.9 37.36 37.36 0 0 1 13.1 13.1 35.51 35.51 0 0 1 0 36 37.36 37.36 0 0 1 -13.1 13.1 34.43 34.43 0 0 1 -18 4.9h-24.2v56h-16zm54.3 50.1a20 20 0 0 0 -14.1-34.1h-24.2v40h24.2a19.24 19.24 0 0 0 14.1-5.9z"/><path d="m295.2 1942v20h-20v-20zm0 56v20h-20v-20z"/><g opacity=".6"><path d="m378 1602v12h-12v-12zm2-2h-16v16h16z"/><path d="m318 1602v12h-12v-12zm2-2h-16v16h16z"/></g><path d="m597 2036h-17l12-40h16.8zm11.8-92v16h-16v-16z"/><path d="m956.8 1944v16h-56v-16z"/><path d="m440.2 2036h-17l12-40h16.8z"/><path d="m756.8 1998v20h-20v-20zm-1.8-94v70h-16v-86h16z"/></g></svg>