<svg viewBox="0 0 2076 100" xmlns="http://www.w3.org/2000/svg"><path d="m96 80h-8v-16-48h8z" fill="#29abe2"/><path d="m96 16h42v8h-42z" fill="#fcee21"/><path d="m96 44h50v8h-50z" fill="#fcee21"/><path d="m138 16v8a10 10 0 0 1 0 20v8a18 18 0 0 0 0-36z" fill="#0f0"/><path d="m146 44v8a10 10 0 0 1 0 20v8a18 18 0 0 0 0-36z" fill="#f0f"/><path d="m96 72h50v8h-50z" fill="#fcee21"/><path d="m256 80h-8v-16-48h8z" fill="#29abe2"/><path d="m256 16h44v8h-44z" fill="#fcee21"/><path d="m256 72h44v8h-44z" fill="#fcee21"/><path d="m320 36a20 20 0 0 0 -20-20v8a12 12 0 0 1 12 12z" fill="#f0f"/><path d="m320 60a20 20 0 0 1 -20 20v-8a12 12 0 0 0 12-12z" fill="#f0f"/><path d="m312 36h8v24h-8z" fill="#29abe2"/><path d="m329 16h8v64h-8z" fill="#29abe2" transform="matrix(-1 0 0 -1 666 96)"/><g fill="#fcee21"><path d="m337 44h44v8h-44z"/><path d="m359-6h8v52h-8z" transform="matrix(0 -1 1 0 343 383)"/><path d="m359 50h8v52h-8z" transform="matrix(0 -1 1 0 287 439)"/></g><path d="m408 16h8v64h-8z" fill="#29abe2" transform="matrix(-1 0 0 -1 824 96)"/><path d="m416 44h44v8h-44z" fill="#fcee21"/><path d="m438-6h8v52h-8z" fill="#fcee21" transform="matrix(0 -1 1 0 422 462)"/><path d="m568 16h8v64h-8z" fill="#29abe2" transform="matrix(-1 0 0 -1 1144 96)"/><path d="m628 16h8v64h-8z" fill="#29abe2" transform="matrix(-1 0 0 -1 1264 96)"/><path d="m576 44h52v8h-52z" fill="#fcee21"/><path d="m856 16h8v64h-8z" fill="#29abe2" transform="matrix(-1 0 0 -1 1720 96)"/><path d="m880 56h8v40h-8z" fill="#fcee21" transform="matrix(0 -1 1 0 808 960)"/><path d="m1200 80h-8v-16-48h8z" fill="#29abe2"/><path d="m1200 16h44v8h-44z" fill="#fcee21"/><path d="m1200 44h44v8h-44z" fill="#fcee21"/><path d="m1244 16v8a10 10 0 0 1 0 20v8a18 18 0 0 0 0-36z" fill="#f0f"/><path d="m1432 72h46v8h-46z" fill="#fcee21"/><path d="m1478 44v8a10 10 0 0 1 0 20v8a18 18 0 0 0 0-36z" fill="#f0f"/><path d="m1450 52v-8a10 10 0 0 1 0-20v-8a18 18 0 0 0 0 36z" fill="#0f0"/><path d="m1450 16h42v8h-42z" fill="#fcee21"/><path d="m1450 44h28v8h-28z" fill="#fcee21"/><path d="m1542 16h8v64h-8z" fill="#29abe2" transform="matrix(-1 0 0 -1 3092 96)"/><path d="m1542-14h8v68h-8z" fill="#fcee21" transform="matrix(0 -1 1 0 1526 1566)"/><path d="m2072 24h-13l-59 48h13z" fill="#f0f"/><path d="m2000 16h72v8h-72z" fill="#fcee21"/><path d="m2000 72h72v8h-72z" fill="#fcee21"/><path d="m664 16h8v64h-8z" fill="#29abe2"/><path d="m664 0h8v40h-8z" fill="#fff" transform="matrix(0 -1 1 0 648 688)"/><path d="m664 56h8v40h-8z" fill="#fff" transform="matrix(0 -1 1 0 592 744)"/><path d="m168 36a20 20 0 0 1 20-20v8a12 12 0 0 0 -12 12z" fill="#f0f"/><path d="m239 36a20 20 0 0 0 -20-20v8a12 12 0 0 1 12 12z" fill="#f0f"/><path d="m168 36h8v24h-8z" fill="#29abe2" transform="matrix(-1 0 0 -1 344 96)"/><path d="m168 60a20 20 0 0 0 20 20v-8a12 12 0 0 1 -12-12z" fill="#f0f"/><path d="m240 60a20 20 0 0 1 -20 20v-8a12 12 0 0 0 12-12z" fill="#f0f"/><path d="m232 56h8v4h-8z" fill="#29abe2"/><path d="m199.5 4.5h8v31h-8z" fill="#fff" transform="matrix(0 -1 1 0 183.5 223.5)"/><path d="m200 60h8v32h-8z" fill="#fff" transform="matrix(0 -1 1 0 128 280)"/><path d="m488 36a20 20 0 0 1 20-20v8a12 12 0 0 0 -12 12z" fill="#f0f"/><path d="m488 36h8v24h-8z" fill="#29abe2" transform="matrix(-1 0 0 -1 984 96)"/><path d="m488 60a20 20 0 0 0 20 20v-8a12 12 0 0 1 -12-12z" fill="#f0f"/><path d="m560 60a20 20 0 0 1 -20 20v-8a12 12 0 0 0 12-12z" fill="#f0f"/><path d="m524 44h36v8h-36z" fill="#fcee21" transform="matrix(-1 0 0 -1 1084 96)"/><path d="m552 52h8v8h-8z" fill="#29abe2"/><path d="m520 60h8v32h-8z" fill="#fff" transform="matrix(0 -1 1 0 448 600)"/><path d="m508 16h24v8h-24z" fill="#fff" transform="matrix(-1 0 0 -1 1040 40)"/><path d="m1112 36a20 20 0 0 1 20-20v8a12 12 0 0 0 -12 12z" fill="#f0f"/><path d="m1184 36a20 20 0 0 0 -20-20v8a12 12 0 0 1 12 12z" fill="#f0f"/><path d="m1112 36h8v24h-8z" fill="#29abe2" transform="matrix(-1 0 0 -1 2232 96)"/><path d="m1176 36h8v24h-8z" fill="#29abe2" transform="matrix(-1 0 0 -1 2360 96)"/><path d="m1112 60a20 20 0 0 0 20 20v-8a12 12 0 0 1 -12-12z" fill="#f0f"/><path d="m1184 60a20 20 0 0 1 -20 20v-8a12 12 0 0 0 12-12z" fill="#f0f"/><path d="m1144 4h8v32h-8z" fill="#fff" transform="matrix(0 -1 1 0 1128 1168)"/><path d="m1144 60h8v32h-8z" fill="#fff" transform="matrix(0 -1 1 0 1072 1224)"/><path d="m1324 16h-32a20 20 0 0 0 -20 20v24a20 20 0 0 0 20 20h32a20 20 0 0 0 20-20v-24a20 20 0 0 0 -20-20zm0 56h-32a12 12 0 0 1 -12-12v-24a12 12 0 0 1 12-12h32a12 12 0 0 1 12 12v24a12 12 0 0 1 -12 12z" fill="#f0f"/><path d="m1343 80h-8.5l-19-64h8.5z" fill="#f00"/><path d="m1352 16h8v64h-8z" fill="#29abe2"/><path d="m1360 16h44v8h-44z" fill="#fcee21"/><path d="m1404 16v8a10 10 0 0 1 0 20v8a18 18 0 0 0 0-36z" fill="#f0f"/><path d="m1360 44h44v8h-44z" fill="#fcee21"/><path d="m1401 48h-9l19 32h9z" fill="#f00"/><path d="m1592 16h8v44h-8z" fill="#29abe2" transform="matrix(-1 0 0 -1 3192 76)"/><path d="m1656 16h8v44h-8z" fill="#29abe2" transform="matrix(-1 0 0 -1 3320 76)"/><path d="m1592 60a20 20 0 0 0 20 20v-8a12 12 0 0 1 -12-12z" fill="#f0f"/><path d="m1664 60a20 20 0 0 1 -20 20v-8a12 12 0 0 0 12-12z" fill="#f0f"/><path d="m1624 60h8v32h-8z" fill="#fff" transform="matrix(0 -1 1 0 1552 1704)"/><path d="m1930.5 16h-10l-29.8 32-28.2 32h10l29.8-32z" fill="#f00"/><path d="m1862.5 16h10l29.8 32 28.2 32h-10l-29.8-32z" fill="#f00"/><path d="m999 16h8v64h-8z" fill="#29abe2"/><path d="m929 16h8v64h-8z" fill="#29abe2"/><path d="m943 17.69v-1.69h8l21.5 36.21-4.5 7.79z" fill="#0f0"/><path d="m968 60-4.5-7.79 21.5-36.21h8v1.69z" fill="#f0f"/><path d="m992 9h8v22h-8z" fill="#fff" transform="matrix(0 -1 1 0 976 1016)"/><path d="m936 9h8v22h-8z" fill="#fff" transform="matrix(0 -1 1 0 920 960)"/><path d="m1833 16h8v64h-8z" fill="#29abe2" transform="matrix(-1 0 0 -1 3674 96)"/><path d="m1763 16h8v64h-8z" fill="#29abe2" transform="matrix(-1 0 0 -1 3534 96)"/><path d="m1827 78.31v1.69h-8l-21.5-36.21 4.5-7.79z" fill="#0f0"/><path d="m1802 36 4.5 7.79-21.5 36.21h-8v-1.69z" fill="#f0f"/><path d="m1770 65h8v22h-8z" fill="#fff" transform="matrix(0 1 -1 0 1850 -1698)"/><path d="m1826 65h8v22h-8z" fill="#fff" transform="matrix(0 1 -1 0 1906 -1754)"/><path d="m1021 16h8v64h-8z" fill="#29abe2"/><path d="m1082 16h8v64h-8z" fill="#29abe2"/><path d="m1078 78.32v1.68h-8l-37-62.32v-1.68h8z" fill="#0f0"/><path d="m1076 66h8v20h-8z" fill="#fff" transform="matrix(0 -1 1 0 1004 1156)"/><path d="m1027 10h8v20h-8z" fill="#fff" transform="matrix(0 -1 1 0 1011 1051)"/><path d="m753 16h8v44h-8z" fill="#29abe2" transform="matrix(-1 0 0 -1 1514 76)"/><path d="m721-8h8v56h-8z" fill="#fcee21" transform="matrix(0 -1 1 0 705 745)"/><path d="m761 60a20 20 0 0 1 -20 20v-8a12 12 0 0 0 12-12z" fill="#f0f"/><path d="m709 72h32v8h-32z" fill="#fff" transform="matrix(-1 0 0 -1 1450 152)"/><path d="m1721.75 79.16.25.84h8l19-64h-8.5z" fill="#0f0"/><path d="m1702.25 79.16-.25.84h-8l-19-64h8.5z" fill="#0f0"/><path d="m1708 58h8v36h-8z" fill="#fff" transform="matrix(0 1 -1 0 1788 -1636)"/><path d="m31.25 16.84-.25-.84h-8l-19 64h8.5z" fill="#0f0"/><path d="m52.75 16.84.25-.84h8l19 64h-8.5z" fill="#0f0"/><path d="m15 52h54v8h-54z" fill="#fcee21"/><path d="m38 1h8v38h-8z" fill="#fff" transform="matrix(0 -1 1 0 22 62)"/><path d="m1960 47.41v32.59h8v-32.59l27-31.41h-10l-21 24.44-21-24.44h-10z" fill="#29abe2"/><path d="m801.38 44 7.25 8h-32.63v-8z" fill="#fcee21"/><path d="m768 16h8v64h-8z" fill="#29abe2"/><path d="m801.38 44h10l32.62 36h-10z" fill="#f00"/><path d="m812.63 52 21.37-36h-9l-18.68 31.47 1.56 4.53z" fill="#0f0"/></svg>