<svg viewBox="0 0 2076 100" xmlns="http://www.w3.org/2000/svg"><path d="m1177 16h-9l-19.8 32-18.2 32h9l19.8-32z" fill="#f00"/><path d="m1130 16h9l19.8 32 18.2 32h-9l-19.8-32z" fill="#f00"/><path d="m31.25 16.84-.25-.84h-8l-.25.84-18.75 63.16h8.5l14.5-48.84z" fill="#0f0"/><path d="m50 80-18.75-63.16-.25-.84h-8l-.25.84 4.25 14.32 14.5 48.84z" fill="#f0f"/><path d="m15 52h24v8h-24z" fill="#fcee21"/><path d="m68 80h-8v-16-48h8z" fill="#29abe2"/><path d="m68 16h10v8h-10z" fill="#fcee21"/><path d="m68 44h18v8h-18z" fill="#fcee21"/><path d="m78 16v8a10 10 0 0 1 0 20v8a18 18 0 0 0 0-36z" fill="#0f0"/><path d="m86 44v8a10 10 0 0 1 0 20v8a18 18 0 0 0 0-36z" fill="#f0f"/><path d="m68 72h18v8h-18z" fill="#fcee21"/><path d="m116 36a20 20 0 0 1 20-20v8a12 12 0 0 0 -12 12z" fill="#f0f"/><path d="m156 36a20 20 0 0 0 -20-20v8a12 12 0 0 1 12 12z" fill="#f0f"/><path d="m116 36h8v24h-8z" fill="#29abe2" transform="matrix(-1 0 0 -1 240 96)"/><path d="m116 60a20 20 0 0 0 20 20v-8a12 12 0 0 1 -12-12z" fill="#f0f"/><path d="m156 60a20 20 0 0 1 -20 20v-8a12 12 0 0 0 12-12z" fill="#f0f"/><path d="m148 56h8v4h-8z" fill="#29abe2"/><path d="m172 80h-8v-16-48h8z" fill="#29abe2"/><path d="m172 16h12v8h-12z" fill="#fcee21"/><path d="m172 72h12v8h-12z" fill="#fcee21"/><path d="m204 36a20 20 0 0 0 -20-20v8a12 12 0 0 1 12 12z" fill="#f0f"/><path d="m204 60a20 20 0 0 1 -20 20v-8a12 12 0 0 0 12-12z" fill="#f0f"/><path d="m196 36h8v24h-8z" fill="#29abe2"/><path d="m212 16h8v64h-8z" fill="#29abe2" transform="matrix(-1 0 0 -1 432 96)"/><path d="m220 44h20v8h-20z" fill="#fcee21"/><path d="m230 6h8v28h-8z" fill="#fcee21" transform="matrix(0 -1 1 0 214 254)"/><path d="m230 62h8v28h-8z" fill="#fcee21" transform="matrix(0 -1 1 0 158 310)"/><path d="m260 16h8v64h-8z" fill="#29abe2" transform="matrix(-1 0 0 -1 528 96)"/><path d="m268 44h20v8h-20z" fill="#fcee21"/><path d="m278 6h8v28h-8z" fill="#fcee21" transform="matrix(0 -1 1 0 262 302)"/><path d="m308 36a20 20 0 0 1 20-20v8a12 12 0 0 0 -12 12z" fill="#f0f"/><path d="m308 36h8v24h-8z" fill="#29abe2" transform="matrix(-1 0 0 -1 624 96)"/><path d="m308 60a20 20 0 0 0 20 20v-8a12 12 0 0 1 -12-12z" fill="#f0f"/><path d="m348 60a20 20 0 0 1 -20 20v-8a12 12 0 0 0 12-12z" fill="#f0f"/><path d="m328 44h20v8h-20z" fill="#fcee21" transform="matrix(-1 0 0 -1 676 96)"/><path d="m340 52h8v8h-8z" fill="#29abe2"/><path d="m355.88 16h8v64h-8z" fill="#29abe2" transform="matrix(-1 0 0 -1 719.76 96)"/><path d="m383.88 16h8v64h-8z" fill="#29abe2" transform="matrix(-1 0 0 -1 775.76 96)"/><path d="m363.88 44h20v8h-20z" fill="#fcee21"/><path d="m404 16h8v64h-8z" fill="#29abe2"/><path d="m444 16h8v44h-8z" fill="#29abe2" transform="matrix(-1 0 0 -1 896 76)"/><path d="m428 8h8v24h-8z" fill="#fcee21" transform="matrix(0 -1 1 0 412 452)"/><path d="m452 60a20 20 0 0 1 -20 20v-8a12 12 0 0 0 12-12z" fill="#f0f"/><path d="m474 44h12v8h-12z" fill="#fcee21"/><path d="m466 16h8v64h-8z" fill="#29abe2"/><path d="m512 80h-9l-13.3-22.4-3.32-5.6-2.06-3.47 1.56-4.53h4.75l2.37 4 2.38 4z" fill="#0f0"/><path d="m504 16-9.62 28-1.38 4-1.37 4h-8.5l1.19-3.47 1.56-4.53 1.74-5.07 7.88-22.93z" fill="#f0f"/><path d="m516 16h8v64h-8z" fill="#29abe2" transform="matrix(-1 0 0 -1 1040 96)"/><path d="m532 64h8v24h-8z" fill="#fcee21" transform="matrix(0 -1 1 0 460 612)"/><path d="m598 16h8v64h-8z" fill="#29abe2"/><path d="m556 16h8v64h-8z" fill="#29abe2"/><path d="m585.5 52.21-4.5 7.79-17-28.77-8-13.54v-1.69h8z" fill="#0f0"/><path d="m598 16h8v1.69l-8 13.54-17 28.77-4.5-7.79z" fill="#f0f"/><path d="m620 16h8v64h-8z" fill="#29abe2"/><path d="m657 16h8v64h-8z" fill="#29abe2"/><path d="m665 78.32v1.68h-8l-29-48.84-8-13.48v-1.68h8l29 48.84z" fill="#0f0"/><path d="m676 36a20 20 0 0 1 20-20v8a12 12 0 0 0 -12 12z" fill="#f0f"/><path d="m716 36a20 20 0 0 0 -20-20v8a12 12 0 0 1 12 12z" fill="#f0f"/><path d="m676 36h8v24h-8z" fill="#29abe2" transform="matrix(-1 0 0 -1 1360 96)"/><path d="m708 36h8v24h-8z" fill="#29abe2" transform="matrix(-1 0 0 -1 1424 96)"/><path d="m676 60a20 20 0 0 0 20 20v-8a12 12 0 0 1 -12-12z" fill="#f0f"/><path d="m716 60a20 20 0 0 1 -20 20v-8a12 12 0 0 0 12-12z" fill="#f0f"/><path d="m732 80h-8v-16-48h8z" fill="#29abe2"/><path d="m732 16h12v8h-12z" fill="#fcee21"/><path d="m732.06 44h12v8h-12z" fill="#fcee21"/><g fill="#f0f"><path d="m744 16v8a10 10 0 0 1 0 20v8a18 18 0 0 0 0-36z"/><path d="m778.26 21.48a19.91 19.91 0 0 0 -6.26 14.52h8a12 12 0 0 1 12-12v-8a19.89 19.89 0 0 0 -13.74 5.48z"/><path d="m812 36a20 20 0 0 0 -20-20v8a12 12 0 0 1 12 12z"/></g><path d="m772 36h8v24h-8z" fill="#29abe2" transform="matrix(-1 0 0 -1 1552 96)"/><path d="m804 36h8v24h-8z" fill="#29abe2" transform="matrix(-1 0 0 -1 1616 96)"/><path d="m772 60a20 20 0 0 0 20 20v-8a12 12 0 0 1 -12-12z" fill="#f0f"/><path d="m812 60a20 20 0 0 1 -20 20v-8a12 12 0 0 0 12-12z" fill="#f0f"/><path d="m813 80h-9l-1.7-2.86-4.07-6.87-18.23-30.69-2.12-3.58-4.44-7.46a19.74 19.74 0 0 1 4.82-7.06l4.25 7.17 20.87 35.15 4.76 8z" fill="#0f0"/><path d="m820 16h8v64h-8z" fill="#29abe2"/><path d="m828 16h12v8h-12z" fill="#fcee21"/><path d="m840 16v8a10 10 0 0 1 0 20v8a18 18 0 0 0 0-36z" fill="#f0f"/><path d="m828 44h12v8h-12z" fill="#fcee21"/><path d="m846 48 9.5 32h-8.5l-9.5-32z" fill="#0f0"/><path d="m868 72h22v8h-22z" fill="#fcee21"/><path d="m890 44v8a10 10 0 0 1 0 20v8a18 18 0 0 0 0-36z" fill="#f0f"/><path d="m886 52v-8a10 10 0 0 1 0-20v-8a18 18 0 0 0 0 36z" fill="#0f0"/><path d="m886 16h22v8h-22z" fill="#fcee21"/><path d="m886 44h4v8h-4z" fill="#fcee21"/><path d="m930 16h8v64h-8z" fill="#29abe2" transform="matrix(-1 0 0 -1 1868 96)"/><path d="m930 2h8v36h-8z" fill="#fcee21" transform="matrix(0 -1 1 0 914 954)"/><path d="m964 16h8v44h-8z" fill="#29abe2" transform="matrix(-1 0 0 -1 1936 76)"/><path d="m996 16h8v44h-8z" fill="#29abe2" transform="matrix(-1 0 0 -1 2000 76)"/><path d="m964 60a20 20 0 0 0 20 20v-8a12 12 0 0 1 -12-12z" fill="#f0f"/><path d="m1004 60a20 20 0 0 1 -20 20v-8a12 12 0 0 0 12-12z" fill="#f0f"/><path d="m1039.25 79.16-.25.84h-8l-.25-.84-18.75-63.16h8.5l14.5 48.84z" fill="#0f0"/><path d="m1058 16-18.75 63.16-.25.84h-8l-.25-.84 4.25-14.32 14.5-48.84z" fill="#f0f"/><path d="m1108 16h8v64h-8z" fill="#29abe2"/><path d="m1066 16h8v64h-8z" fill="#29abe2"/><path d="m1095.5 43.79-4.5-7.79-17 28.77-8 13.54v1.69h8z" fill="#0f0"/><path d="m1108 80h8v-1.69l-8-13.54-17-28.77-4.5 7.79z" fill="#f0f"/><path d="m1200.25 44h8v36h-8z" fill="#29abe2" transform="matrix(-1 0 0 -1 2408.5 124)"/><path d="m1208.5 55.27-4.25 12.37-4.25-12.37-13.5-39.27h8.5l9.25 26.91z" fill="#0f0"/><path d="m1222 16-13.5 39.27-4.25 12.37-4.25-12.37 4.25-12.36 9.25-26.91z" fill="#f0f"/><path d="m1274 24h-9.4l-30.6 48h9.4z" fill="#f0f"/><path d="m1234 16h40v8h-40z" fill="#fcee21"/><path d="m1234 72h40v8h-40z" fill="#fcee21"/></svg>