<?xml version="1.0" encoding="utf-8"?>
<!-- Generator: Adobe Illustrator 25.1.0, SVG Export Plug-In . SVG Version: 6.00 Build 0)  -->
<svg version="1.1" id="Ebene_1" xmlns="http://www.w3.org/2000/svg" xmlns:xlink="http://www.w3.org/1999/xlink" x="0px" y="0px"
	 viewBox="0 0 393 80" style="enable-background:new 0 0 393 80;" xml:space="preserve">
<style type="text/css">
	.st0{fill:#FFFFFF;}
</style>
<g>
	<path class="st0" d="M26,16c5.5,0,10,4.5,10,10h8c0-9.9-8.1-18-18-18S8,16.1,8,26v10c0,4.4,3.6,8,8,8h20v10c0,5.5-4.5,10-10,10
		s-10-4.5-10-10H8c0,9.9,8.1,18,18,18s18-8.1,18-18V44c0-4.4-3.6-8-8-8H16V26C16,20.5,20.5,16,26,16z"/>
	<path class="st0" d="M56,26c0,9.9,8.1,18,18,18c5.5,0,10,4.5,10,10s-4.5,10-10,10H56v8h18c9.9,0,18-8.1,18-18s-8.1-18-18-18
		c-5.5,0-10-4.5-10-10s4.5-10,10-10h18V8H74C64.1,8,56,16.1,56,26z"/>
	<path class="st0" d="M110,27v-2c0-6.6,5.4-12,12-12V5c-11,0-20,9-20,20v2c0,23,32,10,32,24v2c0,6.6-5.4,12-12,12s-12-5.4-12-12h-8
		c0,11,9,20,20,20s20-9,20-20v-2C142,28,110,41,110,27z"/>
	<path class="st0" d="M170,16c6.6,0,12,5.4,12,12h8c0-11-9-20-20-20s-20,9-20,20v8v8h32v8c0,6.6-5.4,12-12,12c-6.6,0-12-5.4-12-12
		h-8c0,11,9,20,20,20s20-9,20-20v-8v-8h-32v-8C158,21.4,163.4,16,170,16z"/>
	<path class="st0" d="M199,28c0,8.8,7.2,16,16,16h8c4.4,0,8,3.6,8,8c0,6.6-5.4,12-12,12h-20v8h20c11,0,20-9,20-20
		c0-8.8-7.2-16-16-16h-8c-4.4,0-8-3.6-8-8c0-6.6,5.4-12,12-12h20V8h-20C208,8,199,17,199,28z"/>
	<path class="st0" d="M272,36h-8c-4.4,0-8-3.6-8-8c0-6.6,5.4-12,12-12V8c-11,0-20,9-20,20c0,8.8,7.2,16,16,16h8c4.4,0,8,3.6,8,8
		c0,6.6-5.4,12-12,12h-20v8h20c11,0,20-9,20-20C288,43.2,280.8,36,272,36z"/>
	<path class="st0" d="M314,16c6.6,0,12,5.4,12,12h8c0-11-9-20-20-20h-20v8v13h0.1c0.5,8.4,7.5,15,15.9,15h8c4.4,0,8,3.6,8,8v12h-32
		v8h40v-8V52c0-8.8-7.2-16-16-16h-8c-4.4,0-8-3.6-8-8V16H314z"/>
	<path class="st0" d="M364,16h20V8h-20c-11,0-20,9-20,20c0,8.8,7.2,16,16,16h8c4.4,0,8,3.6,8,8v12h-12c-6.6,0-12-5.4-12-12h-8
		c0,11,9,20,20,20h20v-8V51h-0.1c-0.5-8.4-7.5-15-15.9-15h-8c-4.4,0-8-3.6-8-8C352,21.4,357.4,16,364,16z"/>
</g>
</svg>
