<svg viewBox="0 0 169 80" xmlns="http://www.w3.org/2000/svg"><g fill="#fff"><path d="m8 8h8v64h-8z"/><path d="m24 8h8v24h-8z" transform="matrix(-1 0 0 -1 56 40)"/><path d="m92 28a20 20 0 0 0 -20-20v8a12 12 0 0 1 12 12z"/><path d="m54 10h12v8h-12z" transform="matrix(0 1 -1 0 74 -46)"/><path d="m108 54h-8a10 10 0 0 1 -20 0h-8a18 18 0 0 0 36 0z"/><path d="m90 50a18 18 0 0 0 -18-18v8a10 10 0 0 1 10 10z"/><path d="m34 14h20v8h-20z" transform="matrix(0 1 -1 0 62 -26)"/><path d="m96 8h9l38 64h-9z"/><path d="m130 8h8.5l22 64h-8.5z"/></g></svg>