<svg enable-background="new 0 0 393 80" viewBox="0 0 393 80" xmlns="http://www.w3.org/2000/svg"><g fill="#fff"><path d="m26 16c5.5 0 10 4.5 10 10h8c0-9.9-8.1-18-18-18s-18 8.1-18 18v10c0 4.4 3.6 8 8 8h20v10c0 5.5-4.5 10-10 10s-10-4.5-10-10h-8c0 9.9 8.1 18 18 18s18-8.1 18-18v-10c0-4.4-3.6-8-8-8h-20v-10c0-5.5 4.5-10 10-10z"/><path d="m56 26c0 9.9 8.1 18 18 18 5.5 0 10 4.5 10 10s-4.5 10-10 10h-18v8h18c9.9 0 18-8.1 18-18s-8.1-18-18-18c-5.5 0-10-4.5-10-10s4.5-10 10-10h18v-8h-18c-9.9 0-18 8.1-18 18z"/><path d="m110 27v-2c0-6.6 5.4-12 12-12v-8c-11 0-20 9-20 20v2c0 23 32 10 32 24v2c0 6.6-5.4 12-12 12s-12-5.4-12-12h-8c0 11 9 20 20 20s20-9 20-20v-2c0-23-32-10-32-24z"/><path d="m170 16c6.6 0 12 5.4 12 12h8c0-11-9-20-20-20s-20 9-20 20v8 8h32v8c0 6.6-5.4 12-12 12s-12-5.4-12-12h-8c0 11 9 20 20 20s20-9 20-20v-8-8h-32v-8c0-6.6 5.4-12 12-12z"/><path d="m199 28c0 8.8 7.2 16 16 16h8c4.4 0 8 3.6 8 8 0 6.6-5.4 12-12 12h-20v8h20c11 0 20-9 20-20 0-8.8-7.2-16-16-16h-8c-4.4 0-8-3.6-8-8 0-6.6 5.4-12 12-12h20v-8h-20c-11 0-20 9-20 20z"/><path d="m272 36h-8c-4.4 0-8-3.6-8-8 0-6.6 5.4-12 12-12v-8c-11 0-20 9-20 20 0 8.8 7.2 16 16 16h8c4.4 0 8 3.6 8 8 0 6.6-5.4 12-12 12h-20v8h20c11 0 20-9 20-20 0-8.8-7.2-16-16-16z"/><path d="m314 16c6.6 0 12 5.4 12 12h8c0-11-9-20-20-20h-20v8 13h.1c.5 8.4 7.5 15 15.9 15h8c4.4 0 8 3.6 8 8v12h-32v8h40v-8-12c0-8.8-7.2-16-16-16h-8c-4.4 0-8-3.6-8-8v-12z"/><path d="m364 16h20v-8h-20c-11 0-20 9-20 20 0 8.8 7.2 16 16 16h8c4.4 0 8 3.6 8 8v12h-12c-6.6 0-12-5.4-12-12h-8c0 11 9 20 20 20h20v-8-13h-.1c-.5-8.4-7.5-15-15.9-15h-8c-4.4 0-8-3.6-8-8 0-6.6 5.4-12 12-12z"/></g></svg>