<svg viewBox="0 0 599 166" xmlns="http://www.w3.org/2000/svg"><path d="m16 77h-8v-16-48h8z" fill="#29abe2"/><path d="m16 13h12v8h-12z" fill="#fcee21"/><path d="m16 69h12v8h-12z" fill="#fcee21"/><path d="m48 33a20 20 0 0 0 -20-20v8a12 12 0 0 1 12 12z" fill="#f0f"/><path d="m48 57a20 20 0 0 1 -20 20v-8a12 12 0 0 0 12-12z" fill="#f0f"/><path d="m40 33h8v24h-8z" fill="#29abe2"/><path d="m74.25 13.84-.25-.84h-8l-.25.84-18.75 63.16h8.5l14.5-48.84z" fill="#0f0"/><path d="m93 77-18.75-63.16-.25-.84h-8l-.25.84 4.25 14.32 14.5 48.84z" fill="#f0f"/><path d="m58 49h24v8h-24z" fill="#fcee21"/><path d="m109.25 76.16-.25.84h-8l-.25-.84-18.75-63.16h8.5l14.5 48.84z" fill="#0f0"/><path d="m128 13-18.75 63.16-.25.84h-8l-.25-.84 4.25-14.32 14.5-48.84z" fill="#f0f"/><path d="m132 13h8v64h-8z" fill="#29abe2"/><path d="m156 77h-8v-16-48h8z" fill="#29abe2"/><path d="m156 13h12v8h-12z" fill="#fcee21"/><path d="m156 69h12v8h-12z" fill="#fcee21"/><path d="m188 33a20 20 0 0 0 -20-20v8a12 12 0 0 1 12 12z" fill="#f0f"/><path d="m188 57a20 20 0 0 1 -20 20v-8a12 12 0 0 0 12-12z" fill="#f0f"/><path d="m180 33h8v24h-8z" fill="#29abe2"/><path d="m224 33a20 20 0 0 1 20-20v8a12 12 0 0 0 -12 12z" fill="#f0f"/><path d="m264 33a20 20 0 0 0 -20-20v8a12 12 0 0 1 12 12z" fill="#f0f"/><path d="m224 33h8v24h-8z" fill="#29abe2" transform="matrix(-1 0 0 -1 456 90)"/><path d="m256 33h8v24h-8z" fill="#29abe2" transform="matrix(-1 0 0 -1 520 90)"/><path d="m224 57a20 20 0 0 0 20 20v-8a12 12 0 0 1 -12-12z" fill="#f0f"/><path d="m264 57a20 20 0 0 1 -20 20v-8a12 12 0 0 0 12-12z" fill="#f0f"/><path d="m278 77h-8v-16-48h8z" fill="#29abe2"/><path d="m278 13h10v8h-10z" fill="#fcee21"/><path d="m278 41h18v8h-18z" fill="#fcee21"/><path d="m288 13v8a10 10 0 0 1 0 20v8a18 18 0 0 0 0-36z" fill="#0f0"/><path d="m296 41v8a10 10 0 0 1 0 20v8a18 18 0 0 0 0-36z" fill="#f0f"/><path d="m278 69h18v8h-18z" fill="#fcee21"/><path d="m314 69h22v8h-22z" fill="#fcee21"/><path d="m336 41v8a10 10 0 0 1 0 20v8a18 18 0 0 0 0-36z" fill="#f0f"/><path d="m332 49v-8a10 10 0 0 1 0-20v-8a18 18 0 0 0 0 36z" fill="#0f0"/><path d="m332 13h4v8h-4z" fill="#fcee21"/><path d="m332 41h4v8h-4z" fill="#fcee21"/><path d="m366 41h12v8h-12z" fill="#fcee21"/><path d="m358 13h8v64h-8z" fill="#29abe2"/><path d="m404 77h-9l-13.3-22.4-3.32-5.6-2.06-3.47 1.56-4.53h4.75l2.37 4 2.38 4z" fill="#0f0"/><path d="m396 13-9.62 28-1.38 4-1.37 4h-8.5l1.19-3.47 1.56-4.53 1.74-5.07 7.88-22.93z" fill="#f0f"/><path d="m416 41h12v8h-12z" fill="#fcee21"/><path d="m408 13h8v64h-8z" fill="#29abe2"/><path d="m454 77h-9l-13.3-22.4-3.32-5.6-2.06-3.47 1.56-4.53h4.75l2.37 4 2.38 4z" fill="#0f0"/><path d="m446 13-9.62 28-1.38 4-1.37 4h-8.5l1.19-3.47 1.56-4.53 1.74-5.07 7.88-22.93z" fill="#f0f"/><path d="m452 13h8v44h-8z" fill="#29abe2" transform="matrix(-1 0 0 -1 912 70)"/><path d="m484 13h8v44h-8z" fill="#29abe2" transform="matrix(-1 0 0 -1 976 70)"/><path d="m452 57a20 20 0 0 0 20 20v-8a12 12 0 0 1 -12-12z" fill="#f0f"/><path d="m492 57a20 20 0 0 1 -20 20v-8a12 12 0 0 0 12-12z" fill="#f0f"/><path d="m499 13h8v64h-8z" fill="#29abe2"/><path d="m507 13h12v8h-12z" fill="#fcee21"/><path d="m519 13v8a10 10 0 0 1 0 20v8a18 18 0 0 0 0-36z" fill="#f0f"/><path d="m507 41h12v8h-12z" fill="#fcee21"/><path d="m525 45 9.5 32h-8.5l-9.5-32z" fill="#0f0"/><path d="m563.25 13.84-.25-.84h-8l-.25.84-18.75 63.16h8.5l14.5-48.84z" fill="#0f0"/><path d="m582 77-18.75-63.16-.25-.84h-8l-.25.84 4.25 14.32 14.5 48.84z" fill="#f0f"/><path d="m547 49h24v8h-24z" fill="#fcee21"/><g fill="#fff"><path d="m48 113a20 20 0 0 0 -20-20h-20v64h20a20 20 0 0 0 20-20zm-8 24a12 12 0 0 1 -12 12h-12v-48h12a12 12 0 0 1 12 12z"/><path d="m74 93h-8l-.25.84-18.75 63.16h8.5l5.94-20h17.12l5.94 20h8.5l-18.75-63.16zm-10.19 36 6.19-20.84 6.19 20.84z"/><path d="m105 141.84-14.5-48.84h-8.5l18.75 63.16.25.84h8l.25-.84 18.75-63.16h-8.5z"/><path d="m132 93h8v64h-8z"/><path d="m168 93h-20v64h20a20 20 0 0 0 20-20v-24a20 20 0 0 0 -20-20zm12 44a12 12 0 0 1 -12 12h-12v-48h12a12 12 0 0 1 12 12z"/><path d="m244 93a20 20 0 0 0 -20 20v24a20 20 0 0 0 40 0v-24a20 20 0 0 0 -20-20zm12 44a12 12 0 0 1 -24 0v-24a12 12 0 0 1 24 0z"/><path d="m302.15 122.1a18 18 0 0 0 -14.15-29.1h-18v64h26a18 18 0 0 0 6.15-34.9zm-24.15-21.1h10a10 10 0 0 1 0 20h-10zm18 48h-18v-20h18a10 10 0 0 1 0 20z"/><path d="m391 125 1.38-4 9.62-28h-8.5l-7.88 22.93-1.74 5.07h-11.88v-28h-8v64h8v-28h9.13 2.87.38l3.32 5.6 13.3 22.4h9l-16.62-28z"/><path d="m442.37 125 1.38-4 9.62-28h-8.5l-7.88 22.93-1.74 5.07h-11.88v-28h-8v64h8v-28h9.13 2.87.38l3.32 5.6 13.3 22.4h9l-16.62-28z"/><path d="m492 137a12 12 0 0 1 -24 0v-44h-8v44a20 20 0 0 0 40 0v-44h-8z"/><path d="m545 111a18 18 0 0 0 -17-18h-21v64h8v-28h10.69l8.31 28h8.5l-8.71-29.34a18 18 0 0 0 11.21-16.66zm-30 10v-20h12a10 10 0 0 1 0 20z"/><path d="m571.25 93.84-.25-.84h-8l-.25.84-18.75 63.16h8.5l5.94-20h17.12l5.94 20h8.5zm-10.44 35.16 6.19-20.84 6.19 20.84z"/><path d="m342 121h-8a8 8 0 0 1 -8-8 12 12 0 0 1 20.49-8.49l5.65-5.65a20 20 0 0 0 -34.14 14.14 16 16 0 0 0 16 16h8a8 8 0 0 1 8 8 12 12 0 0 1 -12 12h-6a12 12 0 0 1 -8.49-3.51l-5.65 5.65a19.94 19.94 0 0 0 14.14 5.86h6a20 20 0 0 0 20-20 16 16 0 0 0 -16-16z"/></g></svg>