<svg enable-background="new 0 0 312 100" viewBox="0 0 312 100" xmlns="http://www.w3.org/2000/svg"><g fill="none" stroke="#fff" stroke-miterlimit="10"><path d="m62 32c0-11 9-20 20-20v8c-6.6 0-12 5.4-12 12z"/><path d="m102 32c0-11-9-20-20-20v8c6.6 0 12 5.4 12 12z"/><path d="m70 56h-8v-24h8z"/><path d="m102 56h-8v-24h8z"/><path d="m62 56c0 11 9 20 20 20v-8c-6.6 0-12-5.4-12-12z"/><path d="m102 56c0 11-9 20-20 20v-8c6.6 0 12-5.4 12-12z"/><path d="m120 76h-8v-64h8z"/><path d="m157 76h-8v-64h8z"/><path d="m111 12h9l38 64h-9z"/><path d="m56 12h9l38 64h-9z"/><path d="m8 12h9l38 64h-9z"/><path d="m17 12h8v64h-8z"/><path d="m25 12h12v8h-12z"/><path d="m37 12v8c5.5 0 10 4.5 10 10s-4.5 10-10 10v8c9.9 0 18-8.1 18-18s-8.1-18-18-18z"/><path d="m25 40h12v8h-12z"/><path d="m190.5 76h-8.5l-19-64h8.5z"/><path d="m181.5 76h8.5l19-64h-8.5z"/><path d="m216 12h8v64h-8z"/><path d="m224 12h12v8h-12z"/><path d="m236 12v8c5.5 0 10 4.5 10 10s-4.5 10-10 10v8c9.9 0 18-8.1 18-18s-8.1-18-18-18z"/><path d="m224 40h12v8h-12z"/><path d="m251.5 76h-8.5l-19-64h8.5z"/><path d="m262 13h8v64h-8z"/><path d="m270 41h12v8h-12z"/><path d="m261 13h9l38 64h-9z"/><path d="m300 13h-8.5l-22 64h8.5z"/></g></svg>