<?xml version="1.0" encoding="utf-8"?>
<!-- Generator: Adobe Illustrator 25.1.0, SVG Export Plug-In . SVG Version: 6.00 Build 0)  -->
<svg version="1.1" id="Ebene_1" xmlns="http://www.w3.org/2000/svg" xmlns:xlink="http://www.w3.org/1999/xlink" x="0px" y="0px"
	 viewBox="0 0 312 100" style="enable-background:new 0 0 312 100;" xml:space="preserve">
<style type="text/css">
	.st0{fill:none;stroke:#FFFFFF;stroke-miterlimit:10;}
</style>
<g>
	<path class="st0" d="M62,32c0-11,9-20,20-20v8c-6.6,0-12,5.4-12,12H62z"/>
	<path class="st0" d="M102,32c0-11-9-20-20-20v8c6.6,0,12,5.4,12,12H102z"/>
	<path class="st0" d="M70,56h-8V32h8V56z"/>
	<path class="st0" d="M102,56h-8V32h8V56z"/>
	<path class="st0" d="M62,56c0,11,9,20,20,20v-8c-6.6,0-12-5.4-12-12H62z"/>
	<path class="st0" d="M102,56c0,11-9,20-20,20v-8c6.6,0,12-5.4,12-12H102z"/>
	<path class="st0" d="M120,76h-8V12h8V76z"/>
	<path class="st0" d="M157,76h-8V12h8V76z"/>
	<path class="st0" d="M111,12h9l38,64h-9L111,12z"/>
	<path class="st0" d="M56,12h9l38,64h-9L56,12z"/>
	<path class="st0" d="M8,12h9l38,64h-9L8,12z"/>
	<path class="st0" d="M17,12h8v64h-8V12z"/>
	<path class="st0" d="M25,12h12v8H25V12z"/>
	<path class="st0" d="M37,12v8c5.5,0,10,4.5,10,10s-4.5,10-10,10v8c9.9,0,18-8.1,18-18S46.9,12,37,12z"/>
	<path class="st0" d="M25,40h12v8H25V40z"/>
	<path class="st0" d="M190.5,76H182l-19-64h8.5L190.5,76z"/>
	<path class="st0" d="M181.5,76h8.5l19-64h-8.5L181.5,76z"/>
	<path class="st0" d="M216,12h8v64h-8V12z"/>
	<path class="st0" d="M224,12h12v8h-12V12z"/>
	<path class="st0" d="M236,12v8c5.5,0,10,4.5,10,10s-4.5,10-10,10v8c9.9,0,18-8.1,18-18S245.9,12,236,12z"/>
	<path class="st0" d="M224,40h12v8h-12V40z"/>
	<path class="st0" d="M251.5,76H243l-19-64h8.5L251.5,76z"/>
	<path class="st0" d="M262,13h8v64h-8V13z"/>
	<path class="st0" d="M270,41h12v8h-12V41z"/>
	<path class="st0" d="M261,13h9l38,64h-9L261,13z"/>
	<path class="st0" d="M300,13h-8.5l-22,64h8.5L300,13z"/>
</g>
</svg>
