<svg viewBox="0 0 490 74" xmlns="http://www.w3.org/2000/svg"><path d="m80 4h8v64h-8z" fill="#29abe2"/><path d="m6 4h8v64h-8z" fill="#29abe2"/><path d="m51.5 40.21-4.5 7.79-17-28.77-8-13.54v-1.69h8z" fill="#0f0"/><path d="m64 4h8v1.69l-8 13.54-17 28.77-4.5-7.79z" fill="#f0f"/><path d="m72-4h8v24h-8z" fill="#fff" transform="matrix(0 -1 1 0 68 84)"/><path d="m14-4h8v24h-8z" fill="#fff" transform="matrix(0 -1 1 0 10 26)"/><path d="m176 4h8v64h-8z" fill="#29abe2"/><path d="m102 4h8v64h-8z" fill="#29abe2"/><path d="m131.5 40.21-4.5 7.79-17-28.77-8-13.54v-1.69h8z" fill="#0f0"/><path d="m176 4h8v1.69l-8 13.54-17 28.77-4.5-7.79z" fill="#f0f"/><path d="m139 28h8v32h-8z" fill="#fff" transform="matrix(0 -1 1 0 99 187)"/><path d="m377 4h8v64h-8z" fill="#29abe2"/><path d="m303 4h8v64h-8z" fill="#29abe2"/><path d="m364.5 40.21-4.5 7.79-17-28.77-8-13.54v-1.69h8z" fill="#0f0"/><path d="m377 4h8v1.69l-8 13.54-17 28.77-4.5-7.79z" fill="#f0f"/><path d="m323-8h8v32h-8z" fill="#fff" transform="matrix(0 -1 1 0 319 335)"/><path d="m440.75 40.21-4.5 7.79-17-28.77-8-13.54v-1.69h8z" fill="#0f0"/><path d="m453.25 4h8v1.69l-8 13.54-17 28.77-4.5-7.79z" fill="#f0f"/><path d="m419.25 4.84-.25-.84h-8l-.25.84-18.75 63.16h8.5l14.5-48.84z" fill="#29abe2"/><path d="m480.25 68-18.75-63.16-.25-.84h-8l-.25.84 4.25 14.32 14.5 48.84z" fill="#29abe2"/><path d="m250.5 40.21-4.5 7.79-17-28.77-8-13.54v-1.69h8z" fill="#0f0"/><path d="m263 4h8v1.69l-8 13.54-17 28.77-4.5-7.79z" fill="#f0f"/><path d="m225 4.84-.25-.84h-8l-.25.84-18.75 63.16h8.5l14.5-48.84z" fill="#29abe2"/><path d="m294 68-18.75-63.16-.25-.84h-8l-.25.84 4.25 14.32 14.5 48.84z" fill="#29abe2"/><g fill="#fff"><path d="m219 2h8v12h-8z" transform="matrix(0 -1 1 0 215 231)"/><path d="m265 2h8v12h-8z" transform="matrix(0 -1 1 0 261 277)"/></g></svg>