<!-- Generator: Adobe Illustrator 25.1.0, SVG Export Plug-In  -->
<svg version="1.1" xmlns="http://www.w3.org/2000/svg" xmlns:xlink="http://www.w3.org/1999/xlink" x="0px" y="0px" width="144px"
	 height="128px" viewBox="0 0 144 128" style="overflow:visible;enable-background:new 0 0 144 128;" xml:space="preserve">
<style type="text/css">
	    .st0{
        fill:#000000;
    }
    @media (prefers-color-scheme: dark) {
        .st0{
            fill: #ffffff;
        }
    }
</style>
<path class="st0" d="M138.6,20C135,13.87,130.13,9,124,5.4C117.87,1.8,111.2,0,104,0H72.1h-0.2H40c-7.2,0-13.87,1.8-20,5.4
	C13.87,9,9,13.87,5.4,20C1.8,26.13,0,32.8,0,40v48c0,7.2,1.8,13.87,5.4,20c3.6,6.13,8.47,11,14.6,14.6c6.13,3.6,12.8,5.4,20,5.4
	h31.9h0.2H104c7.2,0,13.87-1.8,20-5.4c6.13-3.6,11-8.47,14.6-14.6c3.6-6.13,5.4-12.8,5.4-20V40C144,32.8,142.2,26.13,138.6,20z
	 M40,126c-6.81,0-13.2-1.72-18.99-5.13c-5.81-3.41-10.48-8.08-13.89-13.89C3.72,101.2,2,94.81,2,88V40c0-6.8,1.72-13.19,5.13-18.99
	c3.41-5.81,8.08-10.48,13.89-13.89C26.8,3.72,33.19,2,40,2h19.38c-2.57,0.86-5.07,1.98-7.48,3.4c-3.97,2.33-7.41,5.21-10.32,8.6H40
	c-7.05,0-13.21,2.55-18.3,7.58C16.59,26.61,14,32.81,14,40v48c0,7.06,2.59,13.22,7.69,18.31c5.1,5.1,11.26,7.69,18.31,7.69h1.58
	c2.91,3.4,6.34,6.27,10.32,8.6c2.41,1.42,4.91,2.54,7.48,3.4H40z M106.7,20c-0.82-1.4-1.72-2.73-2.68-4
	c6.66,0.01,12.31,2.34,16.98,7c4.67,4.67,7,10.33,7,17v48c0,6.53-2.33,12.17-7,16.9c-4.66,4.73-10.32,7.09-16.98,7.1
	c0.96-1.27,1.85-2.6,2.68-4c3.6-6.13,5.4-12.8,5.4-20V40C112.1,32.8,110.3,26.13,106.7,20z M89.1,23c4.67,4.67,7,10.33,7,17v48
	c0,6.53-2.33,12.17-7,16.9c-4.67,4.73-10.33,7.1-17,7.1h-0.2c-6.53,0-12.17-2.37-16.9-7.1c-4.73-4.73-7.1-10.37-7.1-16.9V40
	c0-6.67,2.37-12.33,7.1-17c4.73-4.67,10.37-7,16.9-7h0.2C78.77,16,84.43,18.33,89.1,23z M37.3,108c0.82,1.4,1.72,2.73,2.68,4
	c-6.52-0.01-12.15-2.37-16.88-7.1C18.37,100.17,16,94.53,16,88V40c0-6.67,2.37-12.33,7.1-17c4.73-4.66,10.35-6.99,16.88-7
	c-0.96,1.27-1.85,2.6-2.68,4c-3.6,6.13-5.4,12.8-5.4,20v48C31.9,95.2,33.7,101.87,37.3,108z M142,88c0,6.81-1.72,13.2-5.12,18.99
	c-3.41,5.81-8.08,10.48-13.89,13.89c-5.79,3.4-12.18,5.13-18.99,5.13H84.62c2.58-0.86,5.07-1.99,7.48-3.4
	c3.97-2.33,7.41-5.2,10.32-8.6H104c7.19,0,13.39-2.59,18.42-7.7c5.03-5.1,7.58-11.25,7.58-18.3V40c0-7.18-2.55-13.38-7.59-18.41
	C117.38,16.55,111.18,14,104,14h-1.58c-2.91-3.4-6.34-6.27-10.32-8.6c-2.41-1.41-4.91-2.54-7.48-3.4H104
	c6.8,0,13.19,1.72,18.99,5.12c5.81,3.41,10.48,8.08,13.89,13.89C140.28,26.81,142,33.19,142,40V88z"/>
</svg>
